<?xml version="1.0" encoding="utf-8" standalone="no"?>
<!DOCTYPE svg PUBLIC "-//W3C//DTD SVG 1.1//EN"
  "http://www.w3.org/Graphics/SVG/1.1/DTD/svg11.dtd">
<!-- Created with matplotlib (https://matplotlib.org/) -->
<svg height="792pt" version="1.1" viewBox="0 0 612 792" width="612pt" xmlns="http://www.w3.org/2000/svg" xmlns:xlink="http://www.w3.org/1999/xlink">
 <defs>
  <style type="text/css">
*{stroke-linecap:butt;stroke-linejoin:round;}
  </style>
 </defs>
 <g id="figure_1">
  <g id="patch_1">
   <path d="M 0 792 
L 612 792 
L 612 0 
L 0 0 
z
" style="fill:#ffffff;"/>
  </g>
  <g id="axes_1">
   <g id="patch_2">
    <path d="M 76.5 704.88 
L 550.8 704.88 
L 550.8 95.04 
L 76.5 95.04 
z
" style="fill:#ffffff;"/>
   </g>
   <g id="matplotlib.axis_1">
    <g id="xtick_1">
     <g id="line2d_1">
      <defs>
       <path d="M 0 0 
L 0 3.5 
" id="m58ac2c365b" style="stroke:#000000;stroke-width:0.8;"/>
      </defs>
      <g>
       <use style="stroke:#000000;stroke-width:0.8;" x="98.059091" xlink:href="#m58ac2c365b" y="704.88"/>
      </g>
     </g>
     <g id="text_1">
      <!-- 0 -->
      <defs>
       <path d="M 31.78125 66.40625 
Q 24.171875 66.40625 20.328125 58.90625 
Q 16.5 51.421875 16.5 36.375 
Q 16.5 21.390625 20.328125 13.890625 
Q 24.171875 6.390625 31.78125 6.390625 
Q 39.453125 6.390625 43.28125 13.890625 
Q 47.125 21.390625 47.125 36.375 
Q 47.125 51.421875 43.28125 58.90625 
Q 39.453125 66.40625 31.78125 66.40625 
z
M 31.78125 74.21875 
Q 44.046875 74.21875 50.515625 64.515625 
Q 56.984375 54.828125 56.984375 36.375 
Q 56.984375 17.96875 50.515625 8.265625 
Q 44.046875 -1.421875 31.78125 -1.421875 
Q 19.53125 -1.421875 13.0625 8.265625 
Q 6.59375 17.96875 6.59375 36.375 
Q 6.59375 54.828125 13.0625 64.515625 
Q 19.53125 74.21875 31.78125 74.21875 
z
" id="DejaVuSans-48"/>
      </defs>
      <g transform="translate(94.877841 719.478438)scale(0.1 -0.1)">
       <use xlink:href="#DejaVuSans-48"/>
      </g>
     </g>
    </g>
    <g id="xtick_2">
     <g id="line2d_2">
      <g>
       <use style="stroke:#000000;stroke-width:0.8;" x="182.300748" xlink:href="#m58ac2c365b" y="704.88"/>
      </g>
     </g>
     <g id="text_2">
      <!-- 10 -->
      <defs>
       <path d="M 12.40625 8.296875 
L 28.515625 8.296875 
L 28.515625 63.921875 
L 10.984375 60.40625 
L 10.984375 69.390625 
L 28.421875 72.90625 
L 38.28125 72.90625 
L 38.28125 8.296875 
L 54.390625 8.296875 
L 54.390625 0 
L 12.40625 0 
z
" id="DejaVuSans-49"/>
      </defs>
      <g transform="translate(175.938248 719.478438)scale(0.1 -0.1)">
       <use xlink:href="#DejaVuSans-49"/>
       <use x="63.623047" xlink:href="#DejaVuSans-48"/>
      </g>
     </g>
    </g>
    <g id="xtick_3">
     <g id="line2d_3">
      <g>
       <use style="stroke:#000000;stroke-width:0.8;" x="266.542405" xlink:href="#m58ac2c365b" y="704.88"/>
      </g>
     </g>
     <g id="text_3">
      <!-- 20 -->
      <defs>
       <path d="M 19.1875 8.296875 
L 53.609375 8.296875 
L 53.609375 0 
L 7.328125 0 
L 7.328125 8.296875 
Q 12.9375 14.109375 22.625 23.890625 
Q 32.328125 33.6875 34.8125 36.53125 
Q 39.546875 41.84375 41.421875 45.53125 
Q 43.3125 49.21875 43.3125 52.78125 
Q 43.3125 58.59375 39.234375 62.25 
Q 35.15625 65.921875 28.609375 65.921875 
Q 23.96875 65.921875 18.8125 64.3125 
Q 13.671875 62.703125 7.8125 59.421875 
L 7.8125 69.390625 
Q 13.765625 71.78125 18.9375 73 
Q 24.125 74.21875 28.421875 74.21875 
Q 39.75 74.21875 46.484375 68.546875 
Q 53.21875 62.890625 53.21875 53.421875 
Q 53.21875 48.921875 51.53125 44.890625 
Q 49.859375 40.875 45.40625 35.40625 
Q 44.1875 33.984375 37.640625 27.21875 
Q 31.109375 20.453125 19.1875 8.296875 
z
" id="DejaVuSans-50"/>
      </defs>
      <g transform="translate(260.179905 719.478438)scale(0.1 -0.1)">
       <use xlink:href="#DejaVuSans-50"/>
       <use x="63.623047" xlink:href="#DejaVuSans-48"/>
      </g>
     </g>
    </g>
    <g id="xtick_4">
     <g id="line2d_4">
      <g>
       <use style="stroke:#000000;stroke-width:0.8;" x="350.784063" xlink:href="#m58ac2c365b" y="704.88"/>
      </g>
     </g>
     <g id="text_4">
      <!-- 30 -->
      <defs>
       <path d="M 40.578125 39.3125 
Q 47.65625 37.796875 51.625 33 
Q 55.609375 28.21875 55.609375 21.1875 
Q 55.609375 10.40625 48.1875 4.484375 
Q 40.765625 -1.421875 27.09375 -1.421875 
Q 22.515625 -1.421875 17.65625 -0.515625 
Q 12.796875 0.390625 7.625 2.203125 
L 7.625 11.71875 
Q 11.71875 9.328125 16.59375 8.109375 
Q 21.484375 6.890625 26.8125 6.890625 
Q 36.078125 6.890625 40.9375 10.546875 
Q 45.796875 14.203125 45.796875 21.1875 
Q 45.796875 27.640625 41.28125 31.265625 
Q 36.765625 34.90625 28.71875 34.90625 
L 20.21875 34.90625 
L 20.21875 43.015625 
L 29.109375 43.015625 
Q 36.375 43.015625 40.234375 45.921875 
Q 44.09375 48.828125 44.09375 54.296875 
Q 44.09375 59.90625 40.109375 62.90625 
Q 36.140625 65.921875 28.71875 65.921875 
Q 24.65625 65.921875 20.015625 65.03125 
Q 15.375 64.15625 9.8125 62.3125 
L 9.8125 71.09375 
Q 15.4375 72.65625 20.34375 73.4375 
Q 25.25 74.21875 29.59375 74.21875 
Q 40.828125 74.21875 47.359375 69.109375 
Q 53.90625 64.015625 53.90625 55.328125 
Q 53.90625 49.265625 50.4375 45.09375 
Q 46.96875 40.921875 40.578125 39.3125 
z
" id="DejaVuSans-51"/>
      </defs>
      <g transform="translate(344.421563 719.478438)scale(0.1 -0.1)">
       <use xlink:href="#DejaVuSans-51"/>
       <use x="63.623047" xlink:href="#DejaVuSans-48"/>
      </g>
     </g>
    </g>
    <g id="xtick_5">
     <g id="line2d_5">
      <g>
       <use style="stroke:#000000;stroke-width:0.8;" x="435.02572" xlink:href="#m58ac2c365b" y="704.88"/>
      </g>
     </g>
     <g id="text_5">
      <!-- 40 -->
      <defs>
       <path d="M 37.796875 64.3125 
L 12.890625 25.390625 
L 37.796875 25.390625 
z
M 35.203125 72.90625 
L 47.609375 72.90625 
L 47.609375 25.390625 
L 58.015625 25.390625 
L 58.015625 17.1875 
L 47.609375 17.1875 
L 47.609375 0 
L 37.796875 0 
L 37.796875 17.1875 
L 4.890625 17.1875 
L 4.890625 26.703125 
z
" id="DejaVuSans-52"/>
      </defs>
      <g transform="translate(428.66322 719.478438)scale(0.1 -0.1)">
       <use xlink:href="#DejaVuSans-52"/>
       <use x="63.623047" xlink:href="#DejaVuSans-48"/>
      </g>
     </g>
    </g>
    <g id="xtick_6">
     <g id="line2d_6">
      <g>
       <use style="stroke:#000000;stroke-width:0.8;" x="519.267377" xlink:href="#m58ac2c365b" y="704.88"/>
      </g>
     </g>
     <g id="text_6">
      <!-- 50 -->
      <defs>
       <path d="M 10.796875 72.90625 
L 49.515625 72.90625 
L 49.515625 64.59375 
L 19.828125 64.59375 
L 19.828125 46.734375 
Q 21.96875 47.46875 24.109375 47.828125 
Q 26.265625 48.1875 28.421875 48.1875 
Q 40.625 48.1875 47.75 41.5 
Q 54.890625 34.8125 54.890625 23.390625 
Q 54.890625 11.625 47.5625 5.09375 
Q 40.234375 -1.421875 26.90625 -1.421875 
Q 22.3125 -1.421875 17.546875 -0.640625 
Q 12.796875 0.140625 7.71875 1.703125 
L 7.71875 11.625 
Q 12.109375 9.234375 16.796875 8.0625 
Q 21.484375 6.890625 26.703125 6.890625 
Q 35.15625 6.890625 40.078125 11.328125 
Q 45.015625 15.765625 45.015625 23.390625 
Q 45.015625 31 40.078125 35.4375 
Q 35.15625 39.890625 26.703125 39.890625 
Q 22.75 39.890625 18.8125 39.015625 
Q 14.890625 38.140625 10.796875 36.28125 
z
" id="DejaVuSans-53"/>
      </defs>
      <g transform="translate(512.904877 719.478438)scale(0.1 -0.1)">
       <use xlink:href="#DejaVuSans-53"/>
       <use x="63.623047" xlink:href="#DejaVuSans-48"/>
      </g>
     </g>
    </g>
    <g id="text_7">
     <!-- Time (min) -->
     <defs>
      <path d="M -0.296875 72.90625 
L 61.375 72.90625 
L 61.375 64.59375 
L 35.5 64.59375 
L 35.5 0 
L 25.59375 0 
L 25.59375 64.59375 
L -0.296875 64.59375 
z
" id="DejaVuSans-84"/>
      <path d="M 9.421875 54.6875 
L 18.40625 54.6875 
L 18.40625 0 
L 9.421875 0 
z
M 9.421875 75.984375 
L 18.40625 75.984375 
L 18.40625 64.59375 
L 9.421875 64.59375 
z
" id="DejaVuSans-105"/>
      <path d="M 52 44.1875 
Q 55.375 50.25 60.0625 53.125 
Q 64.75 56 71.09375 56 
Q 79.640625 56 84.28125 50.015625 
Q 88.921875 44.046875 88.921875 33.015625 
L 88.921875 0 
L 79.890625 0 
L 79.890625 32.71875 
Q 79.890625 40.578125 77.09375 44.375 
Q 74.3125 48.1875 68.609375 48.1875 
Q 61.625 48.1875 57.5625 43.546875 
Q 53.515625 38.921875 53.515625 30.90625 
L 53.515625 0 
L 44.484375 0 
L 44.484375 32.71875 
Q 44.484375 40.625 41.703125 44.40625 
Q 38.921875 48.1875 33.109375 48.1875 
Q 26.21875 48.1875 22.15625 43.53125 
Q 18.109375 38.875 18.109375 30.90625 
L 18.109375 0 
L 9.078125 0 
L 9.078125 54.6875 
L 18.109375 54.6875 
L 18.109375 46.1875 
Q 21.1875 51.21875 25.484375 53.609375 
Q 29.78125 56 35.6875 56 
Q 41.65625 56 45.828125 52.96875 
Q 50 49.953125 52 44.1875 
z
" id="DejaVuSans-109"/>
      <path d="M 56.203125 29.59375 
L 56.203125 25.203125 
L 14.890625 25.203125 
Q 15.484375 15.921875 20.484375 11.0625 
Q 25.484375 6.203125 34.421875 6.203125 
Q 39.59375 6.203125 44.453125 7.46875 
Q 49.3125 8.734375 54.109375 11.28125 
L 54.109375 2.78125 
Q 49.265625 0.734375 44.1875 -0.34375 
Q 39.109375 -1.421875 33.890625 -1.421875 
Q 20.796875 -1.421875 13.15625 6.1875 
Q 5.515625 13.8125 5.515625 26.8125 
Q 5.515625 40.234375 12.765625 48.109375 
Q 20.015625 56 32.328125 56 
Q 43.359375 56 49.78125 48.890625 
Q 56.203125 41.796875 56.203125 29.59375 
z
M 47.21875 32.234375 
Q 47.125 39.59375 43.09375 43.984375 
Q 39.0625 48.390625 32.421875 48.390625 
Q 24.90625 48.390625 20.390625 44.140625 
Q 15.875 39.890625 15.1875 32.171875 
z
" id="DejaVuSans-101"/>
      <path id="DejaVuSans-32"/>
      <path d="M 31 75.875 
Q 24.46875 64.65625 21.28125 53.65625 
Q 18.109375 42.671875 18.109375 31.390625 
Q 18.109375 20.125 21.3125 9.0625 
Q 24.515625 -2 31 -13.1875 
L 23.1875 -13.1875 
Q 15.875 -1.703125 12.234375 9.375 
Q 8.59375 20.453125 8.59375 31.390625 
Q 8.59375 42.28125 12.203125 53.3125 
Q 15.828125 64.359375 23.1875 75.875 
z
" id="DejaVuSans-40"/>
      <path d="M 54.890625 33.015625 
L 54.890625 0 
L 45.90625 0 
L 45.90625 32.71875 
Q 45.90625 40.484375 42.875 44.328125 
Q 39.84375 48.1875 33.796875 48.1875 
Q 26.515625 48.1875 22.3125 43.546875 
Q 18.109375 38.921875 18.109375 30.90625 
L 18.109375 0 
L 9.078125 0 
L 9.078125 54.6875 
L 18.109375 54.6875 
L 18.109375 46.1875 
Q 21.34375 51.125 25.703125 53.5625 
Q 30.078125 56 35.796875 56 
Q 45.21875 56 50.046875 50.171875 
Q 54.890625 44.34375 54.890625 33.015625 
z
" id="DejaVuSans-110"/>
      <path d="M 8.015625 75.875 
L 15.828125 75.875 
Q 23.140625 64.359375 26.78125 53.3125 
Q 30.421875 42.28125 30.421875 31.390625 
Q 30.421875 20.453125 26.78125 9.375 
Q 23.140625 -1.703125 15.828125 -13.1875 
L 8.015625 -13.1875 
Q 14.5 -2 17.703125 9.0625 
Q 20.90625 20.125 20.90625 31.390625 
Q 20.90625 42.671875 17.703125 53.65625 
Q 14.5 64.65625 8.015625 75.875 
z
" id="DejaVuSans-41"/>
     </defs>
     <g transform="translate(286.497656 733.156563)scale(0.1 -0.1)">
      <use xlink:href="#DejaVuSans-84"/>
      <use x="57.958984" xlink:href="#DejaVuSans-105"/>
      <use x="85.742188" xlink:href="#DejaVuSans-109"/>
      <use x="183.154297" xlink:href="#DejaVuSans-101"/>
      <use x="244.677734" xlink:href="#DejaVuSans-32"/>
      <use x="276.464844" xlink:href="#DejaVuSans-40"/>
      <use x="315.478516" xlink:href="#DejaVuSans-109"/>
      <use x="412.890625" xlink:href="#DejaVuSans-105"/>
      <use x="440.673828" xlink:href="#DejaVuSans-110"/>
      <use x="504.052734" xlink:href="#DejaVuSans-41"/>
     </g>
    </g>
   </g>
   <g id="matplotlib.axis_2">
    <g id="ytick_1">
     <g id="line2d_7">
      <defs>
       <path d="M 0 0 
L -3.5 0 
" id="m5de62a12ba" style="stroke:#000000;stroke-width:0.8;"/>
      </defs>
      <g>
       <use style="stroke:#000000;stroke-width:0.8;" x="76.5" xlink:href="#m5de62a12ba" y="699.033701"/>
      </g>
     </g>
     <g id="text_8">
      <!-- 12500 -->
      <g transform="translate(37.6875 702.832919)scale(0.1 -0.1)">
       <use xlink:href="#DejaVuSans-49"/>
       <use x="63.623047" xlink:href="#DejaVuSans-50"/>
       <use x="127.246094" xlink:href="#DejaVuSans-53"/>
       <use x="190.869141" xlink:href="#DejaVuSans-48"/>
       <use x="254.492188" xlink:href="#DejaVuSans-48"/>
      </g>
     </g>
    </g>
    <g id="ytick_2">
     <g id="line2d_8">
      <g>
       <use style="stroke:#000000;stroke-width:0.8;" x="76.5" xlink:href="#m5de62a12ba" y="622.229977"/>
      </g>
     </g>
     <g id="text_9">
      <!-- 15000 -->
      <g transform="translate(37.6875 626.029195)scale(0.1 -0.1)">
       <use xlink:href="#DejaVuSans-49"/>
       <use x="63.623047" xlink:href="#DejaVuSans-53"/>
       <use x="127.246094" xlink:href="#DejaVuSans-48"/>
       <use x="190.869141" xlink:href="#DejaVuSans-48"/>
       <use x="254.492188" xlink:href="#DejaVuSans-48"/>
      </g>
     </g>
    </g>
    <g id="ytick_3">
     <g id="line2d_9">
      <g>
       <use style="stroke:#000000;stroke-width:0.8;" x="76.5" xlink:href="#m5de62a12ba" y="545.426253"/>
      </g>
     </g>
     <g id="text_10">
      <!-- 17500 -->
      <defs>
       <path d="M 8.203125 72.90625 
L 55.078125 72.90625 
L 55.078125 68.703125 
L 28.609375 0 
L 18.3125 0 
L 43.21875 64.59375 
L 8.203125 64.59375 
z
" id="DejaVuSans-55"/>
      </defs>
      <g transform="translate(37.6875 549.225472)scale(0.1 -0.1)">
       <use xlink:href="#DejaVuSans-49"/>
       <use x="63.623047" xlink:href="#DejaVuSans-55"/>
       <use x="127.246094" xlink:href="#DejaVuSans-53"/>
       <use x="190.869141" xlink:href="#DejaVuSans-48"/>
       <use x="254.492188" xlink:href="#DejaVuSans-48"/>
      </g>
     </g>
    </g>
    <g id="ytick_4">
     <g id="line2d_10">
      <g>
       <use style="stroke:#000000;stroke-width:0.8;" x="76.5" xlink:href="#m5de62a12ba" y="468.622529"/>
      </g>
     </g>
     <g id="text_11">
      <!-- 20000 -->
      <g transform="translate(37.6875 472.421748)scale(0.1 -0.1)">
       <use xlink:href="#DejaVuSans-50"/>
       <use x="63.623047" xlink:href="#DejaVuSans-48"/>
       <use x="127.246094" xlink:href="#DejaVuSans-48"/>
       <use x="190.869141" xlink:href="#DejaVuSans-48"/>
       <use x="254.492188" xlink:href="#DejaVuSans-48"/>
      </g>
     </g>
    </g>
    <g id="ytick_5">
     <g id="line2d_11">
      <g>
       <use style="stroke:#000000;stroke-width:0.8;" x="76.5" xlink:href="#m5de62a12ba" y="391.818805"/>
      </g>
     </g>
     <g id="text_12">
      <!-- 22500 -->
      <g transform="translate(37.6875 395.618024)scale(0.1 -0.1)">
       <use xlink:href="#DejaVuSans-50"/>
       <use x="63.623047" xlink:href="#DejaVuSans-50"/>
       <use x="127.246094" xlink:href="#DejaVuSans-53"/>
       <use x="190.869141" xlink:href="#DejaVuSans-48"/>
       <use x="254.492188" xlink:href="#DejaVuSans-48"/>
      </g>
     </g>
    </g>
    <g id="ytick_6">
     <g id="line2d_12">
      <g>
       <use style="stroke:#000000;stroke-width:0.8;" x="76.5" xlink:href="#m5de62a12ba" y="315.015081"/>
      </g>
     </g>
     <g id="text_13">
      <!-- 25000 -->
      <g transform="translate(37.6875 318.8143)scale(0.1 -0.1)">
       <use xlink:href="#DejaVuSans-50"/>
       <use x="63.623047" xlink:href="#DejaVuSans-53"/>
       <use x="127.246094" xlink:href="#DejaVuSans-48"/>
       <use x="190.869141" xlink:href="#DejaVuSans-48"/>
       <use x="254.492188" xlink:href="#DejaVuSans-48"/>
      </g>
     </g>
    </g>
    <g id="ytick_7">
     <g id="line2d_13">
      <g>
       <use style="stroke:#000000;stroke-width:0.8;" x="76.5" xlink:href="#m5de62a12ba" y="238.211358"/>
      </g>
     </g>
     <g id="text_14">
      <!-- 27500 -->
      <g transform="translate(37.6875 242.010576)scale(0.1 -0.1)">
       <use xlink:href="#DejaVuSans-50"/>
       <use x="63.623047" xlink:href="#DejaVuSans-55"/>
       <use x="127.246094" xlink:href="#DejaVuSans-53"/>
       <use x="190.869141" xlink:href="#DejaVuSans-48"/>
       <use x="254.492188" xlink:href="#DejaVuSans-48"/>
      </g>
     </g>
    </g>
    <g id="ytick_8">
     <g id="line2d_14">
      <g>
       <use style="stroke:#000000;stroke-width:0.8;" x="76.5" xlink:href="#m5de62a12ba" y="161.407634"/>
      </g>
     </g>
     <g id="text_15">
      <!-- 30000 -->
      <g transform="translate(37.6875 165.206853)scale(0.1 -0.1)">
       <use xlink:href="#DejaVuSans-51"/>
       <use x="63.623047" xlink:href="#DejaVuSans-48"/>
       <use x="127.246094" xlink:href="#DejaVuSans-48"/>
       <use x="190.869141" xlink:href="#DejaVuSans-48"/>
       <use x="254.492188" xlink:href="#DejaVuSans-48"/>
      </g>
     </g>
    </g>
    <g id="text_16">
     <!-- Counts -->
     <defs>
      <path d="M 64.40625 67.28125 
L 64.40625 56.890625 
Q 59.421875 61.53125 53.78125 63.8125 
Q 48.140625 66.109375 41.796875 66.109375 
Q 29.296875 66.109375 22.65625 58.46875 
Q 16.015625 50.828125 16.015625 36.375 
Q 16.015625 21.96875 22.65625 14.328125 
Q 29.296875 6.6875 41.796875 6.6875 
Q 48.140625 6.6875 53.78125 8.984375 
Q 59.421875 11.28125 64.40625 15.921875 
L 64.40625 5.609375 
Q 59.234375 2.09375 53.4375 0.328125 
Q 47.65625 -1.421875 41.21875 -1.421875 
Q 24.65625 -1.421875 15.125 8.703125 
Q 5.609375 18.84375 5.609375 36.375 
Q 5.609375 53.953125 15.125 64.078125 
Q 24.65625 74.21875 41.21875 74.21875 
Q 47.75 74.21875 53.53125 72.484375 
Q 59.328125 70.75 64.40625 67.28125 
z
" id="DejaVuSans-67"/>
      <path d="M 30.609375 48.390625 
Q 23.390625 48.390625 19.1875 42.75 
Q 14.984375 37.109375 14.984375 27.296875 
Q 14.984375 17.484375 19.15625 11.84375 
Q 23.34375 6.203125 30.609375 6.203125 
Q 37.796875 6.203125 41.984375 11.859375 
Q 46.1875 17.53125 46.1875 27.296875 
Q 46.1875 37.015625 41.984375 42.703125 
Q 37.796875 48.390625 30.609375 48.390625 
z
M 30.609375 56 
Q 42.328125 56 49.015625 48.375 
Q 55.71875 40.765625 55.71875 27.296875 
Q 55.71875 13.875 49.015625 6.21875 
Q 42.328125 -1.421875 30.609375 -1.421875 
Q 18.84375 -1.421875 12.171875 6.21875 
Q 5.515625 13.875 5.515625 27.296875 
Q 5.515625 40.765625 12.171875 48.375 
Q 18.84375 56 30.609375 56 
z
" id="DejaVuSans-111"/>
      <path d="M 8.5 21.578125 
L 8.5 54.6875 
L 17.484375 54.6875 
L 17.484375 21.921875 
Q 17.484375 14.15625 20.5 10.265625 
Q 23.53125 6.390625 29.59375 6.390625 
Q 36.859375 6.390625 41.078125 11.03125 
Q 45.3125 15.671875 45.3125 23.6875 
L 45.3125 54.6875 
L 54.296875 54.6875 
L 54.296875 0 
L 45.3125 0 
L 45.3125 8.40625 
Q 42.046875 3.421875 37.71875 1 
Q 33.40625 -1.421875 27.6875 -1.421875 
Q 18.265625 -1.421875 13.375 4.4375 
Q 8.5 10.296875 8.5 21.578125 
z
M 31.109375 56 
z
" id="DejaVuSans-117"/>
      <path d="M 18.3125 70.21875 
L 18.3125 54.6875 
L 36.8125 54.6875 
L 36.8125 47.703125 
L 18.3125 47.703125 
L 18.3125 18.015625 
Q 18.3125 11.328125 20.140625 9.421875 
Q 21.96875 7.515625 27.59375 7.515625 
L 36.8125 7.515625 
L 36.8125 0 
L 27.59375 0 
Q 17.1875 0 13.234375 3.875 
Q 9.28125 7.765625 9.28125 18.015625 
L 9.28125 47.703125 
L 2.6875 47.703125 
L 2.6875 54.6875 
L 9.28125 54.6875 
L 9.28125 70.21875 
z
" id="DejaVuSans-116"/>
      <path d="M 44.28125 53.078125 
L 44.28125 44.578125 
Q 40.484375 46.53125 36.375 47.5 
Q 32.28125 48.484375 27.875 48.484375 
Q 21.1875 48.484375 17.84375 46.4375 
Q 14.5 44.390625 14.5 40.28125 
Q 14.5 37.15625 16.890625 35.375 
Q 19.28125 33.59375 26.515625 31.984375 
L 29.59375 31.296875 
Q 39.15625 29.25 43.1875 25.515625 
Q 47.21875 21.78125 47.21875 15.09375 
Q 47.21875 7.46875 41.1875 3.015625 
Q 35.15625 -1.421875 24.609375 -1.421875 
Q 20.21875 -1.421875 15.453125 -0.5625 
Q 10.6875 0.296875 5.421875 2 
L 5.421875 11.28125 
Q 10.40625 8.6875 15.234375 7.390625 
Q 20.0625 6.109375 24.8125 6.109375 
Q 31.15625 6.109375 34.5625 8.28125 
Q 37.984375 10.453125 37.984375 14.40625 
Q 37.984375 18.0625 35.515625 20.015625 
Q 33.0625 21.96875 24.703125 23.78125 
L 21.578125 24.515625 
Q 13.234375 26.265625 9.515625 29.90625 
Q 5.8125 33.546875 5.8125 39.890625 
Q 5.8125 47.609375 11.28125 51.796875 
Q 16.75 56 26.8125 56 
Q 31.78125 56 36.171875 55.265625 
Q 40.578125 54.546875 44.28125 53.078125 
z
" id="DejaVuSans-115"/>
     </defs>
     <g transform="translate(31.607812 417.413125)rotate(-90)scale(0.1 -0.1)">
      <use xlink:href="#DejaVuSans-67"/>
      <use x="69.824219" xlink:href="#DejaVuSans-111"/>
      <use x="131.005859" xlink:href="#DejaVuSans-117"/>
      <use x="194.384766" xlink:href="#DejaVuSans-110"/>
      <use x="257.763672" xlink:href="#DejaVuSans-116"/>
      <use x="296.972656" xlink:href="#DejaVuSans-115"/>
     </g>
    </g>
   </g>
   <g id="line2d_15">
    <path clip-path="url(#pd99c6907be)" d="M 98.059091 677.16 
L 98.339896 653.289403 
L 98.761105 657.651854 
L 98.97308 653.658061 
L 99.187797 666.4382 
L 99.25937 665.455112 
L 99.334507 663.826874 
L 99.484782 666.22315 
L 99.635057 663.826874 
L 99.714034 663.581102 
L 99.871987 666.468922 
L 99.950963 666.038821 
L 100.02994 666.653251 
L 100.112756 666.253871 
L 100.195571 666.407479 
L 100.278387 667.697781 
L 100.444018 663.120279 
L 100.618425 661.184825 
L 100.792831 662.93595 
L 100.971626 665.117176 
L 101.063216 662.198635 
L 101.154807 664.564189 
L 101.433967 661.952863 
L 101.529946 662.905229 
L 101.721903 665.547277 
L 101.817881 666.100264 
L 101.91907 665.547277 
L 102.121447 661.645648 
L 102.222636 661.799255 
L 102.323825 662.813064 
L 102.536623 661.27699 
L 102.643022 661.829977 
L 102.85582 658.081955 
L 102.967703 658.358448 
L 103.079587 657.528968 
L 103.19147 659.372258 
L 103.303353 658.972878 
L 103.532605 657.498247 
L 103.649973 659.126486 
L 103.767341 657.866905 
L 103.884709 657.959069 
L 104.248878 653.320124 
L 104.372279 654.67187 
L 104.49568 659.372258 
L 104.619081 659.433701 
L 104.879045 657.744019 
L 105.009028 655.224856 
L 105.13901 657.744019 
L 105.405556 652.152708 
L 105.542119 655.163413 
L 105.678683 653.535175 
L 105.95181 654.979085 
L 106.095504 654.364655 
L 106.239197 652.82858 
L 106.382891 653.320124 
L 106.526584 654.917642 
L 106.670277 651.38467 
L 106.820552 650.55519 
L 106.970827 651.200341 
L 107.271377 647.759535 
L 107.421652 647.206548 
L 107.580153 648.804065 
L 107.897156 644.16512 
L 108.214159 645.670473 
L 108.380888 650.002203 
L 108.714344 651.968379 
L 109.57102 640.724313 
L 109.745427 646.407789 
L 109.919834 648.036028 
L 110.104112 646.622839 
L 110.288391 649.080559 
L 110.472669 638.942467 
L 110.656948 637.621443 
L 110.841227 639.21896 
L 111.228431 644.288006 
L 111.615636 644.933157 
L 111.809238 638.819581 
L 112.012164 636.515469 
L 112.21509 637.222064 
L 112.418016 634.334244 
L 112.620941 636.822684 
L 112.823867 636.822684 
L 113.037762 641.645958 
L 113.251657 641.246579 
L 113.465552 640.44782 
L 113.679447 636.914849 
L 113.893341 628.804375 
L 114.118205 629.019426 
L 114.343069 626.868922 
L 115.01766 633.627649 
L 115.252396 633.934864 
L 115.487132 635.409496 
L 115.956604 633.566206 
L 116.19134 628.620047 
L 116.439238 631.262095 
L 116.687137 629.080869 
L 116.935036 629.173033 
L 117.182934 628.312832 
L 117.430833 625.609341 
L 117.691894 626.193049 
L 117.952956 624.319038 
L 118.214017 624.103988 
L 118.475078 625.79367 
L 118.73614 622.721521 
L 119.010364 623.73533 
L 119.284588 623.520279 
L 119.558812 624.319038 
L 119.833036 622.168534 
L 120.107261 621.953483 
L 120.388066 624.718417 
L 120.668872 621.861319 
L 120.949677 621.400497 
L 121.230483 622.414306 
L 121.511288 621.492661 
L 121.792094 621.06256 
L 122.072899 618.635562 
L 122.353705 620.540295 
L 122.63451 619.188549 
L 122.915316 616.454337 
L 123.196121 621.584825 
L 123.476927 618.144019 
L 123.757732 617.652475 
L 124.038538 618.512676 
L 124.319343 618.021133 
L 124.600149 618.082576 
L 124.880954 618.819891 
L 125.16176 616.147122 
L 125.442566 617.099488 
L 125.723371 617.038045 
L 126.004177 618.881334 
L 126.284982 617.130209 
L 126.565788 612.798479 
L 126.846593 614.119503 
L 127.127399 617.406703 
L 127.408204 615.932071 
L 127.969815 611.631063 
L 128.250621 613.474352 
L 128.531426 611.78467 
L 128.812232 614.764655 
L 129.093037 615.041148 
L 129.373843 613.597238 
L 129.654648 613.996618 
L 129.935454 613.167137 
L 130.216259 610.402203 
L 130.497065 612.337657 
L 130.77787 612.337657 
L 131.058676 609.326951 
L 131.339482 618.758448 
L 131.620287 612.460543 
L 131.901093 609.419116 
L 132.181898 608.159535 
L 132.462704 608.28242 
L 132.743509 611.999721 
L 133.024315 611.416012 
L 133.30512 606.777067 
L 133.585926 607.821598 
L 134.147537 608.128813 
L 134.428342 608.989015 
L 134.709148 609.050458 
L 134.989953 608.098092 
L 135.270759 605.916866 
L 135.551564 608.436028 
L 135.83237 604.012133 
L 136.113175 606.899953 
L 136.393981 606.654182 
L 136.674786 604.135019 
L 136.955592 603.029046 
L 137.236398 605.210272 
L 137.798009 606.62346 
L 138.078814 606.439131 
L 138.35962 602.199566 
L 138.640425 604.626563 
L 138.921231 604.319348 
L 139.202036 604.35007 
L 139.482842 602.168844 
L 139.763647 601.339364 
L 140.044453 602.07668 
L 140.325258 602.353173 
L 140.606064 603.551311 
L 140.886869 600.663491 
L 141.167675 602.998324 
L 141.729286 599.035252 
L 142.010091 604.749449 
L 142.571703 598.605151 
L 142.852508 599.311746 
L 143.133314 600.970706 
L 143.414119 595.28723 
L 143.694925 599.281024 
L 144.256536 592.491575 
L 144.537341 597.591342 
L 144.818147 596.51609 
L 145.098952 596.239597 
L 145.379758 597.714228 
L 145.660563 594.85713 
L 145.941369 596.700419 
L 146.222174 594.488472 
L 146.50298 594.85713 
L 146.783785 590.341071 
L 147.064591 592.368689 
L 147.626202 603.858526 
L 147.907007 595.133623 
L 148.187813 590.556121 
L 148.468619 591.047665 
L 149.03023 595.993825 
L 149.591841 588.497781 
L 149.872646 591.815702 
L 150.153452 591.600652 
L 150.434257 587.422529 
L 150.715063 590.494678 
L 151.276674 586.19367 
L 151.557479 594.980016 
L 151.838285 592.000031 
L 152.11909 586.777378 
L 152.399896 587.576137 
L 152.680701 588.006237 
L 152.961507 588.774275 
L 153.242312 583.981722 
L 153.523118 582.107711 
L 153.803923 585.333468 
L 154.084729 594.027649 
L 154.365535 584.995531 
L 154.64634 586.838821 
L 154.927146 583.336571 
L 155.207951 585.855733 
L 155.488757 585.333468 
L 155.769562 582.107711 
L 156.050368 581.646889 
L 156.331173 582.199876 
L 156.611979 590.187463 
L 156.892784 591.938588 
L 157.454395 582.476369 
L 158.016006 577.345881 
L 158.577617 593.41322 
L 158.858423 582.476369 
L 159.139228 576.577843 
L 159.420034 581.739054 
L 159.700839 579.987929 
L 159.981645 583.367292 
L 160.262451 581.401117 
L 160.543256 580.264422 
L 160.824062 578.206082 
L 161.104867 579.742157 
L 161.385673 578.974119 
L 161.666478 581.124624 
L 161.947284 574.765275 
L 162.228089 576.239907 
L 162.508895 574.949604 
L 162.7897 574.826718 
L 163.070506 573.62858 
L 163.351311 576.577843 
L 163.632117 571.508798 
L 163.912922 581.769775 
L 164.193728 581.769775 
L 164.474533 585.456354 
L 164.755339 571.232304 
L 165.036144 572.553328 
L 165.31695 571.754569 
L 165.597755 575.656199 
L 165.878561 571.017254 
L 166.159367 572.7991 
L 166.440172 573.843631 
L 166.720978 567.392118 
L 167.001783 570.52571 
L 167.563394 581.370396 
L 167.8442 578.57474 
L 168.125005 566.531916 
L 168.405811 563.183274 
L 168.967422 581.493282 
L 169.248227 581.186067 
L 169.529033 567.760776 
L 169.809838 564.75007 
L 170.371449 564.995842 
L 170.652255 576.024856 
L 170.93306 568.067991 
L 171.213866 576.178464 
L 171.494671 567.177067 
L 171.775477 564.719348 
L 172.056283 567.515004 
L 172.337088 566.40903 
L 172.617894 569.972723 
L 172.898699 563.244717 
L 173.46031 564.780791 
L 173.741116 559.312366 
L 174.302727 576.270628 
L 174.583532 566.071094 
L 174.864338 561.86225 
L 175.145143 563.398324 
L 175.425949 561.616478 
L 175.706754 563.029666 
L 175.98756 562.445958 
L 176.268365 560.203289 
L 176.549171 564.473576 
L 176.829976 564.104919 
L 177.110782 568.190877 
L 177.391587 574.304453 
L 177.672393 562.876059 
L 177.953199 559.373809 
L 178.234004 563.244717 
L 178.51481 558.697936 
L 179.076421 560.940605 
L 179.357226 559.926796 
L 179.638032 561.094213 
L 180.199643 558.820822 
L 180.480448 565.425943 
L 180.761254 559.527417 
L 181.322865 552.553638 
L 181.60367 556.639597 
L 181.884476 562.722452 
L 182.165281 554.85775 
L 182.446087 561.186377 
L 182.726892 555.502901 
L 183.007698 555.410737 
L 183.288503 553.137347 
L 183.569309 556.885369 
L 183.850115 551.816323 
L 184.13092 559.066594 
L 184.692531 550.833235 
L 185.254142 564.719348 
L 185.534948 555.47218 
L 185.815753 551.570551 
L 186.096559 551.693437 
L 186.377364 552.891575 
L 186.938975 549.112832 
L 187.219781 552.277145 
L 187.500586 553.260233 
L 187.781392 553.290954 
L 188.062197 549.819426 
L 188.343003 547.883972 
L 188.623808 547.699643 
L 188.904614 550.034476 
L 189.185419 556.240217 
L 189.466225 556.363103 
L 189.747031 546.532227 
L 190.027836 543.552242 
L 190.308642 553.260233 
L 190.589447 550.771792 
L 190.870253 550.034476 
L 191.151058 544.688937 
L 191.431864 551.263336 
L 191.712669 550.771792 
L 191.993475 549.266439 
L 192.27428 548.590566 
L 192.555086 545.549139 
L 192.835891 545.241924 
L 193.116697 545.36481 
L 193.397502 549.635097 
L 193.678308 544.197393 
L 194.239919 541.03308 
L 194.520724 543.09142 
L 194.80153 551.017564 
L 195.082335 543.183584 
L 195.363141 543.09142 
L 195.643947 538.882576 
L 195.924752 540.695144 
L 196.486363 552.338588 
L 196.767169 540.387929 
L 197.047974 536.639907 
L 197.32878 545.764189 
L 197.609585 548.529123 
L 198.452002 534.765896 
L 198.732807 546.562948 
L 199.013613 538.728968 
L 199.294418 535.687541 
L 199.575224 543.736571 
L 199.856029 542.046889 
L 200.136835 539.435562 
L 200.41764 535.25744 
L 200.698446 535.933313 
L 200.979252 540.572258 
L 201.260057 533.752087 
L 201.540863 541.371016 
L 201.821668 544.658216 
L 202.102474 545.733468 
L 202.383279 542.630597 
L 202.664085 531.847355 
L 202.94489 532.830442 
L 203.506501 544.75038 
L 203.787307 533.598479 
L 204.068112 535.411047 
L 204.910529 529.942622 
L 205.191334 532.523227 
L 205.47214 539.404841 
L 205.752945 538.882576 
L 206.033751 541.586067 
L 206.314556 530.249837 
L 206.595362 535.47249 
L 206.876168 538.175981 
L 207.156973 533.383429 
L 207.718584 537.653716 
L 207.99939 530.618495 
L 208.280195 536.639907 
L 208.841806 525.057905 
L 209.122612 529.266749 
L 209.403417 535.902591 
L 209.684223 538.944019 
L 210.526639 519.927417 
L 210.807445 523.92121 
L 211.369056 539.374119 
L 211.649861 524.105539 
L 211.930667 521.279162 
L 212.211472 523.644717 
L 212.492278 535.718262 
L 212.773084 525.703057 
L 213.053889 524.351311 
L 213.334695 528.959535 
L 213.896306 539.988549 
L 214.177111 521.586377 
L 214.457917 518.084127 
L 214.738722 530.065508 
L 215.019528 532.185291 
L 215.300333 526.563258 
L 215.581139 527.792118 
L 215.861944 523.736881 
L 216.14275 525.887386 
L 216.423555 532.861164 
L 216.704361 520.111746 
L 216.985166 521.924313 
L 217.265972 519.528037 
L 217.546777 522.047199 
L 217.827583 520.142467 
L 218.108388 519.005772 
L 218.389194 518.913607 
L 218.67 516.363724 
L 218.950805 527.177688 
L 219.512416 516.363724 
L 219.793222 516.517331 
L 220.074027 515.227029 
L 220.354833 522.538743 
L 220.635638 524.136261 
L 220.916444 527.20841 
L 221.197249 517.10104 
L 221.478055 516.916711 
L 221.75886 512.646424 
L 222.039666 518.575671 
L 222.601277 512.584981 
L 222.882082 515.011978 
L 223.443693 512.093437 
L 223.724499 523.829046 
L 224.005304 515.196307 
L 224.28611 511.079628 
L 224.566916 514.028891 
L 224.847721 510.434476 
L 225.128527 509.697161 
L 225.409332 514.090334 
L 225.690138 509.820047 
L 226.532554 519.650923 
L 226.81336 519.251544 
L 227.094165 512.584981 
L 227.374971 503.184205 
L 227.655776 502.446889 
L 227.936582 513.291575 
L 228.217387 517.070318 
L 228.498193 517.654026 
L 228.778998 516.947432 
L 229.059804 518.14557 
L 229.340609 504.013685 
L 229.621415 509.727882 
L 229.90222 508.744794 
L 230.183026 503.952242 
L 230.744637 517.254647 
L 231.025443 513.59879 
L 231.306248 515.011978 
L 231.587054 501.064422 
L 231.867859 509.850768 
L 232.148665 512.277766 
L 232.42947 512.98436 
L 232.710276 510.465198 
L 232.991081 500.173499 
L 233.271887 509.328503 
L 233.552692 512.98436 
L 233.833498 507.270163 
L 234.114303 496.456199 
L 234.675914 509.543553 
L 234.95672 510.434476 
L 235.237525 509.082731 
L 235.518331 509.912211 
L 235.799136 496.364034 
L 236.360748 508.468301 
L 236.641553 501.310194 
L 236.922359 505.058216 
L 237.203164 511.509728 
L 237.48397 513.660233 
L 237.764775 495.688161 
L 238.045581 497.623615 
L 238.326386 495.565275 
L 238.607192 507.177998 
L 238.887997 506.778619 
L 239.168803 502.04751 
L 239.449608 503.798635 
L 239.730414 493.691265 
L 240.292025 502.692661 
L 240.57283 502.139674 
L 240.853636 505.365431 
L 241.134441 501.832459 
L 241.415247 501.893902 
L 241.696052 500.173499 
L 241.976858 501.893902 
L 242.257664 499.589791 
L 242.538469 503.184205 
L 242.819275 504.382343 
L 243.10008 500.419271 
L 243.380886 499.497626 
L 243.661691 502.508332 
L 243.942497 495.135175 
L 244.223302 493.844872 
L 244.504108 488.714383 
L 244.784913 498.729589 
L 245.065719 501.125865 
L 245.346524 497.408565 
L 245.62733 489.236649 
L 245.908135 490.035407 
L 246.188941 489.543863 
L 246.469746 496.425477 
L 246.750552 499.497626 
L 247.031357 489.175206 
L 247.312163 486.963258 
L 247.592968 487.239752 
L 247.873774 493.5991 
L 248.15458 496.118262 
L 248.435385 499.98917 
L 248.716191 497.162793 
L 248.996996 484.474818 
L 249.277802 490.09685 
L 249.558607 492.585291 
L 249.839413 492.677455 
L 250.120218 495.841769 
L 250.401024 487.639131 
L 250.681829 490.987773 
L 251.24344 480.173809 
L 251.524246 488.806548 
L 251.805051 491.602203 
L 252.085857 490.465508 
L 252.647468 489.513142 
L 252.928273 490.465508 
L 253.489884 494.612909 
L 253.77069 487.393359 
L 254.051496 484.782033 
L 254.332301 488.499333 
L 254.613107 484.93564 
L 254.893912 489.26737 
L 255.174718 488.03851 
L 255.455523 487.393359 
L 255.736329 485.427184 
L 256.017134 488.499333 
L 256.29794 479.77443 
L 256.578745 483.184515 
L 256.859551 484.628425 
L 257.140356 488.43789 
L 257.421162 486.840372 
L 257.701967 487.393359 
L 257.982773 475.903522 
L 258.263578 472.524158 
L 258.544384 482.600807 
L 258.825189 486.010892 
L 259.105995 484.013995 
L 259.3868 475.289092 
L 259.667606 476.855888 
L 259.948412 479.98948 
L 260.229217 479.743708 
L 260.510023 481.586998 
L 260.790828 481.740605 
L 261.071634 480.419581 
L 261.352439 479.928037 
L 261.633245 473.107867 
L 261.91405 475.934244 
L 262.194856 482.324313 
L 262.475661 482.815857 
L 262.756467 484.843476 
L 263.318078 464.352242 
L 263.879689 480.173809 
L 264.160494 480.788239 
L 264.722105 473.753018 
L 265.002911 476.302901 
L 265.283717 477.10166 
L 265.564522 479.313607 
L 266.126133 467.055733 
L 266.406939 471.356742 
L 266.687744 472.616323 
L 267.249355 480.38886 
L 267.530161 468.530365 
L 267.810966 462.570396 
L 268.372577 475.289092 
L 268.653383 473.906625 
L 268.934188 477.439597 
L 269.214994 464.536571 
L 269.495799 460.788549 
L 269.776605 470.680869 
L 270.338216 462.693282 
L 270.619021 468.130985 
L 270.899827 467.82377 
L 271.742244 474.582498 
L 272.023049 459.375361 
L 272.58466 466.011202 
L 272.865466 472.524158 
L 273.146271 472.585601 
L 273.427077 460.204841 
L 273.707882 461.095764 
L 273.988688 469.88211 
L 274.550299 456.211047 
L 274.831104 454.859302 
L 275.11191 464.567292 
L 275.392715 465.089558 
L 275.673521 465.304608 
L 275.954326 464.93595 
L 276.235132 468.561086 
L 276.515937 462.140295 
L 276.796743 460.727106 
L 277.077549 463.338433 
L 277.358354 460.60422 
L 277.63916 466.134088 
L 277.919965 465.519659 
L 278.200771 455.012909 
L 278.481576 459.590411 
L 278.762382 457.071249 
L 279.043187 462.04813 
L 279.323993 462.631839 
L 279.604798 459.283196 
L 279.885604 458.207944 
L 280.166409 460.972878 
L 280.447215 460.60422 
L 280.72802 459.651854 
L 281.008826 457.992894 
L 281.289631 458.699488 
L 281.570437 456.88692 
L 281.851242 457.071249 
L 282.132048 456.702591 
L 282.412853 454.982188 
L 282.693659 456.764034 
L 282.974465 457.224856 
L 283.25527 455.995997 
L 283.536076 459.467525 
L 283.816881 459.897626 
L 284.097687 445.274197 
L 284.378492 451.080559 
L 284.659298 453.108177 
L 284.940103 453.968379 
L 285.220909 452.678076 
L 285.501714 453.568999 
L 285.78252 452.647355 
L 286.063325 452.708798 
L 286.344131 454.920745 
L 286.624936 450.742622 
L 286.905742 451.756431 
L 287.186547 452.34014 
L 287.467353 453.937657 
L 287.748158 453.077455 
L 288.028964 448.715004 
L 288.309769 452.278697 
L 288.590575 441.495454 
L 288.871381 451.879317 
L 289.152186 449.175826 
L 289.432992 449.790256 
L 289.713797 449.513763 
L 289.994603 451.32633 
L 290.275408 449.083662 
L 290.837019 447.547587 
L 291.117825 449.145105 
L 291.39863 448.22346 
L 291.679436 454.582808 
L 291.960241 438.238976 
L 292.241047 442.355656 
L 292.521852 436.426408 
L 292.802658 446.349449 
L 293.083463 449.083662 
L 293.364269 445.519969 
L 293.645074 451.910039 
L 293.92588 451.971482 
L 294.206685 434.736726 
L 294.487491 427.025632 
L 294.768297 441.403289 
L 295.049102 448.315625 
L 295.329908 451.572102 
L 295.610713 452.616633 
L 295.891519 432.279007 
L 296.172324 429.053251 
L 296.45313 443.246579 
L 296.733935 443.830287 
L 297.014741 448.22346 
L 297.295546 443.89173 
L 297.576352 444.014616 
L 297.857157 428.530985 
L 298.137963 439.34495 
L 298.418768 441.495454 
L 298.699574 444.905539 
L 298.980379 443.185136 
L 299.261185 443.185136 
L 299.54199 442.140605 
L 299.822796 438.023926 
L 300.103601 437.778154 
L 300.665213 439.590721 
L 300.946018 437.255888 
L 301.226824 439.990101 
L 301.507629 441.556897 
L 301.788435 429.66768 
L 302.06924 435.719814 
L 302.350046 431.357362 
L 302.630851 437.317331 
L 302.911657 437.90104 
L 303.192462 439.713607 
L 303.473268 438.392583 
L 303.754073 434.583119 
L 304.034879 440.17443 
L 304.315684 424.875128 
L 304.59649 431.295919 
L 304.877295 434.030132 
L 305.158101 434.183739 
L 305.438906 435.01322 
L 305.719712 431.756742 
L 306.000517 440.328037 
L 306.281323 442.570706 
L 306.562129 419.437424 
L 307.12374 432.831994 
L 307.404545 437.50166 
L 307.685351 431.603134 
L 307.966156 428.715314 
L 308.246962 434.921055 
L 308.527767 432.893437 
L 308.808573 429.176137 
L 309.089378 431.848906 
L 309.370184 431.72602 
L 309.650989 429.176137 
L 309.931795 433.292816 
L 310.2126 427.39429 
L 310.493406 430.89654 
L 310.774211 430.404996 
L 311.055017 428.8382 
L 311.335822 419.713918 
L 311.616628 415.259302 
L 312.178239 429.145415 
L 312.459045 432.401893 
L 312.73985 416.426718 
L 313.020656 407.486765 
L 313.301461 425.581722 
L 313.582267 425.612444 
L 313.863072 431.541691 
L 314.143878 426.042545 
L 314.424683 408.715625 
L 314.705489 413.446734 
L 314.986294 425.33595 
L 315.2671 424.076369 
L 315.547905 427.271404 
L 316.109516 409.667991 
L 316.390322 411.265508 
L 316.671127 408.439131 
L 316.951933 417.133313 
L 317.513544 425.059457 
L 317.794349 418.1164 
L 318.075155 423.738433 
L 318.355961 407.025943 
L 318.636766 403.646579 
L 318.917572 418.976602 
L 319.198377 424.660078 
L 319.479183 410.405306 
L 320.040794 400.144329 
L 320.321599 414.306936 
L 320.602405 414.3991 
L 321.164016 422.048751 
L 321.444821 416.242389 
L 321.725627 405.981412 
L 322.006432 403.984515 
L 322.287238 415.566517 
L 322.568043 412.586532 
L 322.848849 415.22858 
L 323.129654 415.996618 
L 323.41046 417.348363 
L 323.691266 402.417719 
L 323.972071 397.655888 
L 324.533682 422.417409 
L 325.095293 396.334864 
L 325.376099 394.79879 
L 325.656904 412.371482 
L 325.93771 415.750846 
L 326.218515 414.982808 
L 326.499321 396.365586 
L 326.780126 404.90616 
L 327.060932 407.025943 
L 327.341737 414.18405 
L 327.622543 410.313142 
L 327.903348 408.992118 
L 328.184154 410.28242 
L 328.464959 409.85232 
L 328.745765 412.12571 
L 329.02657 408.62346 
L 329.588182 394.768068 
L 329.868987 409.545105 
L 330.149793 411.050458 
L 330.430598 395.566827 
L 330.992209 405.428425 
L 331.273015 411.29623 
L 331.55382 405.090489 
L 331.834626 405.981412 
L 332.115431 404.383894 
L 332.677042 387.671404 
L 333.238653 404.230287 
L 333.519459 404.199566 
L 333.800264 400.973809 
L 334.08107 401.250303 
L 334.361875 400.605151 
L 334.642681 402.663491 
L 334.923486 408.101195 
L 335.204292 392.709728 
L 335.485098 387.855733 
L 335.765903 399.990721 
L 336.046709 400.912366 
L 336.327514 402.786377 
L 336.60832 395.751156 
L 336.889125 396.549915 
L 337.731542 402.84782 
L 338.012347 399.990721 
L 338.293153 391.726641 
L 338.573958 387.302746 
L 338.854764 390.313452 
L 339.135569 400.57443 
L 339.416375 397.471559 
L 339.69718 396.273421 
L 339.977986 399.222684 
L 340.258791 394.092196 
L 340.539597 393.877145 
L 340.820402 396.027649 
L 341.382014 380.113918 
L 342.22443 398.915469 
L 342.505236 396.396307 
L 342.786041 372.494988 
L 343.347652 392.187463 
L 343.628458 393.877145 
L 343.909263 391.603755 
L 344.190069 385.705229 
L 344.470874 390.712832 
L 344.75168 380.236804 
L 345.313291 387.425632 
L 345.594096 395.658991 
L 345.874902 390.743553 
L 346.155707 377.871249 
L 346.436513 378.30135 
L 346.717318 380.328968 
L 346.998124 392.187463 
L 347.27893 393.385601 
L 347.559735 377.625477 
L 347.840541 371.849837 
L 348.121346 384.875749 
L 348.402152 380.820512 
L 348.682957 383.892661 
L 348.963763 382.786687 
L 349.244568 384.629977 
L 349.525374 383.923382 
L 349.806179 375.905074 
L 350.086985 378.700729 
L 350.36779 383.923382 
L 350.648596 395.966206 
L 350.929401 375.874352 
L 351.210207 369.883662 
L 351.491012 367.487386 
L 352.052623 386.104608 
L 352.614234 385.152242 
L 352.89504 374.676214 
L 353.175846 368.439752 
L 353.456651 377.041769 
L 353.737457 379.898867 
L 354.018262 384.507091 
L 354.299068 387.149139 
L 354.579873 382.510194 
L 354.860679 367.425943 
L 355.141484 368.040372 
L 355.42229 381.619271 
L 355.703095 374.307556 
L 355.983901 370.375206 
L 356.264706 369.484282 
L 356.545512 371.511901 
L 356.826317 371.266129 
L 357.107123 367.241614 
L 357.387928 361.527417 
L 357.668734 363.002048 
L 357.949539 375.812909 
L 358.230345 380.206082 
L 358.51115 376.519503 
L 358.791956 380.021753 
L 359.072762 364.353794 
L 359.353567 360.912987 
L 359.634373 375.843631 
L 359.915178 377.779085 
L 360.195984 378.30135 
L 360.476789 370.774585 
L 360.757595 360.114228 
L 361.0384 360.022064 
L 361.319206 364.230908 
L 361.880817 375.474973 
L 362.161622 362.940605 
L 362.442428 357.779395 
L 362.723233 369.361396 
L 363.004039 374.891265 
L 363.284844 370.528813 
L 363.846455 351.757983 
L 364.127261 363.309263 
L 364.408066 368.439752 
L 364.688872 367.917486 
L 364.969678 365.091109 
L 365.250483 364.415237 
L 365.531289 364.845337 
L 365.812094 366.842234 
L 366.0929 366.074197 
L 366.373705 368.777688 
L 366.654511 368.316866 
L 366.935316 366.934399 
L 367.216122 353.232614 
L 367.496927 355.383119 
L 367.777733 363.24782 
L 368.058538 357.68723 
L 368.339344 361.220202 
L 368.620149 362.295454 
L 368.900955 366.872956 
L 369.18176 368.040372 
L 369.462566 352.52602 
L 369.743371 350.836338 
L 370.024177 361.527417 
L 370.304982 357.871559 
L 370.585788 352.249527 
L 370.866594 351.69654 
L 371.147399 353.601272 
L 371.428205 359.438355 
L 371.70901 361.619581 
L 371.989816 353.079007 
L 372.270621 348.102126 
L 372.551427 356.796307 
L 372.832232 357.380016 
L 373.113038 352.126641 
L 373.393843 351.020667 
L 373.674649 357.103522 
L 373.955454 354.492196 
L 374.23626 361.80391 
L 374.517065 362.848441 
L 374.797871 344.814926 
L 375.078676 345.890178 
L 375.359482 349.853251 
L 375.640287 356.089713 
L 375.921093 356.151156 
L 376.201898 355.260233 
L 376.482704 356.089713 
L 376.76351 343.186687 
L 377.044315 341.066905 
L 377.325121 353.14045 
L 377.605926 358.793204 
L 377.886732 353.601272 
L 378.167537 344.016168 
L 378.729148 355.628891 
L 379.009954 345.552242 
L 379.290759 341.834942 
L 379.571565 339.899488 
L 380.133176 351.235718 
L 380.413981 352.556742 
L 380.694787 343.524624 
L 380.975592 329.484903 
L 381.537203 353.048285 
L 381.818009 350.283351 
L 382.098814 349.484593 
L 382.37962 334.830442 
L 382.660426 332.772102 
L 382.941231 342.725865 
L 383.222037 342.357207 
L 383.502842 334.676835 
L 383.783648 331.604686 
L 384.064453 338.424856 
L 384.345259 339.745881 
L 384.626064 335.997859 
L 384.90687 338.025477 
L 385.187675 342.295764 
L 385.468481 348.962327 
L 385.749286 345.982343 
L 386.030092 332.557052 
L 386.310897 335.383429 
L 386.591703 329.085524 
L 386.872508 337.779705 
L 387.153314 338.394135 
L 387.434119 332.09623 
L 387.714925 332.772102 
L 387.995731 329.392739 
L 388.276536 334.216012 
L 388.557342 331.850458 
L 388.838147 326.351311 
L 389.118953 323.64782 
L 389.399758 336.796618 
L 389.680564 339.838045 
L 389.961369 329.331296 
L 390.242175 326.044096 
L 390.52298 320.053406 
L 390.803786 336.02858 
L 391.365397 324.753794 
L 391.646202 332.249837 
L 391.927008 328.409651 
L 392.207813 327.180791 
L 392.488619 326.658526 
L 392.769424 323.678542 
L 393.05023 324.292971 
L 393.331035 335.291265 
L 393.611841 323.555656 
L 393.892647 322.357517 
L 394.173452 319.93052 
L 394.454258 333.632304 
L 394.735063 322.081024 
L 395.015869 317.227029 
L 395.296674 328.163879 
L 395.57748 328.655423 
L 396.139091 310.775516 
L 396.419896 325.736881 
L 396.981507 335.629201 
L 397.262313 318.455888 
L 397.543118 310.591187 
L 398.385535 336.02858 
L 398.66634 320.053406 
L 398.947146 315.445182 
L 399.227951 314.646424 
L 399.508757 309.300884 
L 399.789563 323.002669 
L 400.070368 324.354414 
L 400.351174 321.958138 
L 400.631979 317.442079 
L 400.912785 317.411358 
L 401.19359 325.061009 
L 401.755201 311.082731 
L 402.036007 322.388239 
L 402.316812 315.353018 
L 402.878423 309.82315 
L 403.159229 311.942933 
L 403.440034 320.391342 
L 403.72084 321.620202 
L 404.282451 302.173499 
L 404.844062 320.667836 
L 405.124867 327.672335 
L 405.405673 308.133468 
L 405.686479 305.214926 
L 405.967284 305.153483 
L 406.24809 319.469697 
L 406.528895 321.159379 
L 407.090506 300.76031 
L 407.371312 300.330209 
L 407.652117 310.806237 
L 407.932923 316.151777 
L 408.213728 317.841458 
L 408.494534 313.417564 
L 408.775339 300.54526 
L 409.33695 318.08723 
L 409.617756 303.340915 
L 409.898561 310.959845 
L 410.179367 300.975361 
L 410.460172 301.282576 
L 410.740978 308.99367 
L 411.021783 312.188704 
L 411.302589 310.836959 
L 411.8642 310.929123 
L 412.145006 307.856974 
L 412.425811 296.766517 
L 412.706617 302.665043 
L 412.987422 298.978464 
L 413.268228 299.347122 
L 413.549033 305.245648 
L 413.829839 304.723382 
L 414.110644 291.236649 
L 414.39145 295.230442 
L 414.672255 309.331606 
L 414.953061 308.502126 
L 415.233866 306.658836 
L 415.514672 303.310194 
L 415.795477 308.072025 
L 416.076283 310.222529 
L 416.357088 293.356431 
L 416.637894 293.786532 
L 416.918699 289.362638 
L 417.199505 302.480714 
L 417.480311 305.552863 
L 417.761116 292.066129 
L 418.041922 299.746501 
L 418.322727 300.391652 
L 418.603533 303.740295 
L 418.884338 289.301195 
L 419.165144 297.473111 
L 419.445949 302.327106 
L 419.726755 289.854182 
L 420.00756 292.404065 
L 420.288366 286.566982 
L 420.569171 287.396462 
L 420.849977 286.444096 
L 421.130782 299.377843 
L 421.692393 284.078542 
L 421.973199 282.941846 
L 422.254004 276.951156 
L 422.53481 293.694368 
L 422.815615 302.234942 
L 423.096421 287.55007 
L 423.377227 279.869697 
L 423.658032 279.224546 
L 423.938838 279.10166 
L 424.219643 296.029201 
L 424.500449 290.714383 
L 424.781254 280.883507 
L 425.06206 281.682265 
L 425.342865 278.333623 
L 425.623671 283.863491 
L 425.904476 293.94014 
L 426.185282 296.397859 
L 426.466087 279.470318 
L 426.746893 277.811358 
L 427.308504 298.763413 
L 427.870115 269.946656 
L 428.15092 277.074042 
L 428.431726 290.407168 
L 428.712531 291.605306 
L 429.274143 274.954259 
L 429.554948 286.659147 
L 429.835754 276.736106 
L 430.116559 274.216943 
L 430.67817 289.516245 
L 430.958976 293.755811 
L 431.239781 272.895919 
L 431.520587 273.080248 
L 431.801392 274.401272 
L 432.082198 267.94976 
L 432.363003 277.903522 
L 432.643809 280.883507 
L 432.924614 285.061629 
L 433.20542 285.27668 
L 433.767031 259.224856 
L 434.328642 283.402669 
L 434.609447 286.013995 
L 434.890253 289.884903 
L 435.171059 266.382964 
L 435.451864 254.278697 
L 435.73267 268.502746 
L 436.294281 278.241458 
L 436.575086 272.588704 
L 436.855892 276.398169 
L 437.136697 275.660853 
L 437.417503 279.900419 
L 437.698308 267.089558 
L 437.979114 264.263181 
L 438.540725 276.705384 
L 438.82153 270.776137 
L 439.102336 271.605617 
L 439.663947 276.981877 
L 439.944752 277.319814 
L 440.225558 258.733313 
L 440.506363 252.527572 
L 441.067975 272.189325 
L 441.34878 272.097161 
L 441.629586 267.151001 
L 441.910391 266.782343 
L 442.472002 276.060233 
L 442.752808 252.097471 
L 443.033613 265.922141 
L 443.314419 266.198635 
L 443.595224 267.796152 
L 443.87603 270.899022 
L 444.437641 243.403289 
L 444.718446 259.839286 
L 444.999252 269.731606 
L 445.280057 270.991187 
L 445.560863 269.854492 
L 445.841668 264.969775 
L 446.122474 245.707401 
L 446.40328 256.61353 
L 446.684085 262.204841 
L 446.964891 265.461319 
L 447.245696 264.969775 
L 447.526502 267.243165 
L 447.807307 250.254182 
L 448.088113 245.369465 
L 448.649724 263.0036 
L 448.930529 264.508953 
L 449.211335 262.573499 
L 449.49214 263.679472 
L 449.772946 243.434011 
L 450.053751 240.73052 
L 450.615362 259.317021 
L 450.896168 261.006703 
L 451.176973 258.456819 
L 451.457779 242.450923 
L 451.738584 256.244872 
L 452.01939 252.527572 
L 452.300196 257.873111 
L 452.581001 255.353949 
L 452.861807 254.800962 
L 453.142612 258.180326 
L 453.423418 237.719814 
L 453.704223 251.698092 
L 453.985029 253.633545 
L 454.265834 259.378464 
L 454.54664 255.599721 
L 454.827445 236.982498 
L 455.108251 233.173033 
L 455.389056 248.656664 
L 455.950667 253.11128 
L 456.231473 249.148208 
L 456.512278 250.377067 
L 456.793084 242.543088 
L 457.073889 250.807168 
L 457.354695 248.933157 
L 457.6355 250.776447 
L 457.916306 235.78436 
L 458.197112 230.039441 
L 458.477917 242.266594 
L 458.758723 247.274197 
L 459.039528 246.751932 
L 459.320334 248.810272 
L 459.601139 250.00841 
L 459.881945 249.148208 
L 460.16275 230.254492 
L 460.443556 229.332847 
L 460.724361 235.384981 
L 461.005167 244.23277 
L 461.285972 238.119193 
L 461.847583 249.60903 
L 462.128389 229.025632 
L 462.69 224.786067 
L 463.251611 242.38948 
L 463.532416 242.328037 
L 463.813222 241.037735 
L 464.094028 226.107091 
L 464.655639 228.656974 
L 465.21725 230.254492 
L 465.498055 227.827494 
L 465.778861 227.305229 
L 466.340472 218.733933 
L 466.621277 235.78436 
L 466.902083 235.722917 
L 467.182888 231.729123 
L 467.463694 236.153018 
L 468.025305 219.501971 
L 468.30611 219.471249 
L 468.586916 232.558604 
L 468.867721 227.274507 
L 469.148527 215.231683 
L 469.429332 225.799876 
L 470.271749 237.166827 
L 470.83336 210.961396 
L 471.114166 218.303832 
L 471.394971 219.348363 
L 471.675777 217.22858 
L 471.956582 229.517176 
L 472.237388 230.776757 
L 472.518193 215.108798 
L 472.798999 210.316245 
L 473.079804 216.706315 
L 473.641415 233.787463 
L 473.922221 214.647975 
L 474.203026 208.933778 
L 474.483832 208.442234 
L 474.764637 211.514383 
L 475.326248 208.042855 
L 475.607054 221.95969 
L 475.88786 222.297626 
L 476.730276 204.694213 
L 477.011082 206.015237 
L 477.853498 216.952087 
L 478.415109 217.197859 
L 478.695915 209.363879 
L 478.97672 205.185756 
L 479.257526 206.07668 
L 479.538331 203.035252 
L 479.819137 205.06287 
L 480.099942 204.663491 
L 480.380748 214.187153 
L 480.661553 218.979705 
L 480.942359 202.635873 
L 481.223164 195.016943 
L 481.784776 219.809185 
L 482.065581 219.348363 
L 482.346387 198.764965 
L 482.627192 192.835718 
L 483.188803 211.391497 
L 483.469609 213.173344 
L 483.750414 210.254802 
L 484.03122 197.874042 
L 484.312025 198.764965 
L 484.873636 192.098402 
L 485.154442 193.634476 
L 485.716053 210.869232 
L 486.277664 186.29204 
L 486.839275 204.079783 
L 487.12008 211.698712 
L 487.681692 189.456354 
L 487.962497 188.534709 
L 488.243303 202.57443 
L 488.804914 185.155345 
L 489.366525 198.119814 
L 489.64733 196.092196 
L 489.928136 204.755656 
L 490.208941 188.565431 
L 490.489747 183.127727 
L 490.770552 181.714538 
L 491.051358 196.215081 
L 491.332163 203.588239 
L 491.893774 178.85744 
L 492.17458 178.02796 
L 492.455385 193.880248 
L 492.736191 197.874042 
L 493.016996 199.348673 
L 493.297802 194.341071 
L 493.578608 173.511901 
L 494.140219 196.583739 
L 494.421024 199.625167 
L 494.982635 174.341381 
L 495.263441 172.528813 
L 495.544246 189.210582 
L 495.825052 190.224391 
L 496.105857 193.142933 
L 496.386663 174.218495 
L 496.667468 183.8036 
L 496.948274 187.060078 
L 497.229079 194.586843 
L 497.79069 164.602669 
L 498.352301 194.894057 
L 498.633107 174.894368 
L 498.913912 168.289247 
L 499.194718 167.582653 
L 499.475524 178.826718 
L 499.756329 184.479472 
L 500.037135 183.219891 
L 500.598746 166.47668 
L 500.879551 166.845337 
L 501.160357 168.688627 
L 501.441162 189.917176 
L 501.721968 170.071094 
L 502.002773 163.926796 
L 502.283579 174.157052 
L 502.564384 178.120124 
L 502.84519 179.410427 
L 503.125995 182.113918 
L 503.406801 162.851544 
L 503.687606 163.066594 
L 504.530023 179.318262 
L 504.810829 168.565741 
L 505.091634 162.57505 
L 505.37244 160.055888 
L 505.934051 170.716245 
L 506.214856 171.822219 
L 506.495662 168.995842 
L 507.057273 175.539519 
L 507.338078 173.91128 
L 507.618884 157.444562 
L 507.899689 151.761086 
L 508.4613 178.85744 
L 508.742106 176.737657 
L 509.022911 153.389325 
L 509.303717 150.286455 
L 509.584522 154.372413 
L 509.865328 167.644096 
L 510.426939 153.420047 
L 510.707745 150.317176 
L 510.98855 151.761086 
L 511.269356 163.066594 
L 511.550161 168.258526 
L 511.830967 154.741071 
L 512.111772 149.334088 
L 512.392578 148.53533 
L 512.673383 148.873266 
L 512.954189 160.148053 
L 513.234994 166.384515 
L 513.5158 158.151156 
L 513.796605 160.30166 
L 514.077411 160.91609 
L 514.639022 144.449372 
L 514.919827 143.220512 
L 515.200633 158.6427 
L 515.481438 162.759379 
L 515.762244 146.569154 
L 516.043049 138.212909 
L 516.323855 155.386222 
L 516.604661 159.380016 
L 516.885466 158.949915 
L 517.166272 140.363413 
L 517.447077 149.917797 
L 517.727883 151.791808 
L 518.008688 155.14045 
L 518.570299 154.403134 
L 518.851105 134.956431 
L 519.13191 144.633701 
L 519.412716 148.443165 
L 519.693521 160.762483 
L 519.974327 159.47218 
L 520.255132 138.274352 
L 520.535938 141.53083 
L 521.097549 152.498402 
L 521.378354 150.317176 
L 521.65916 154.9254 
L 521.939965 138.151466 
L 522.220771 134.065508 
L 522.501577 132.990256 
L 522.782382 143.619891 
L 523.063188 144.387929 
L 523.343993 149.026874 
L 523.624799 150.102126 
L 523.905604 144.910194 
L 524.18641 144.234321 
L 524.467215 132.836649 
L 524.748021 129.641614 
L 525.028826 141.346501 
L 525.309632 147.552242 
L 525.590437 132.990256 
L 525.871243 128.166982 
L 526.152048 126.047199 
L 526.432854 139.411047 
L 526.713659 145.432459 
L 526.994465 129.825943 
L 527.27527 122.76 
L 527.556076 123.497316 
L 527.836881 128.996462 
L 528.398493 143.036183 
L 528.960104 129.7645 
L 529.240909 131.730675 
L 529.240909 131.730675 
" style="fill:none;stroke:#1f77b4;stroke-linecap:square;stroke-width:1.5;"/>
   </g>
   <g id="line2d_16">
    <path clip-path="url(#pd99c6907be)" d="M 98.059091 271.26768 
L 529.240909 271.26768 
" style="fill:none;stroke:#ff0000;stroke-dasharray:5.55,2.4;stroke-dashoffset:0;stroke-width:1.5;"/>
   </g>
   <g id="patch_3">
    <path d="M 76.5 704.88 
L 76.5 95.04 
" style="fill:none;stroke:#000000;stroke-linecap:square;stroke-linejoin:miter;stroke-width:0.8;"/>
   </g>
   <g id="patch_4">
    <path d="M 550.8 704.88 
L 550.8 95.04 
" style="fill:none;stroke:#000000;stroke-linecap:square;stroke-linejoin:miter;stroke-width:0.8;"/>
   </g>
   <g id="patch_5">
    <path d="M 76.5 704.88 
L 550.8 704.88 
" style="fill:none;stroke:#000000;stroke-linecap:square;stroke-linejoin:miter;stroke-width:0.8;"/>
   </g>
   <g id="patch_6">
    <path d="M 76.5 95.04 
L 550.8 95.04 
" style="fill:none;stroke:#000000;stroke-linecap:square;stroke-linejoin:miter;stroke-width:0.8;"/>
   </g>
   <g id="text_17">
    <!-- Active Ribosomes Final:Initial = 2.34 -->
    <defs>
     <path d="M 34.1875 63.1875 
L 20.796875 26.90625 
L 47.609375 26.90625 
z
M 28.609375 72.90625 
L 39.796875 72.90625 
L 67.578125 0 
L 57.328125 0 
L 50.6875 18.703125 
L 17.828125 18.703125 
L 11.1875 0 
L 0.78125 0 
z
" id="DejaVuSans-65"/>
     <path d="M 48.78125 52.59375 
L 48.78125 44.1875 
Q 44.96875 46.296875 41.140625 47.34375 
Q 37.3125 48.390625 33.40625 48.390625 
Q 24.65625 48.390625 19.8125 42.84375 
Q 14.984375 37.3125 14.984375 27.296875 
Q 14.984375 17.28125 19.8125 11.734375 
Q 24.65625 6.203125 33.40625 6.203125 
Q 37.3125 6.203125 41.140625 7.25 
Q 44.96875 8.296875 48.78125 10.40625 
L 48.78125 2.09375 
Q 45.015625 0.34375 40.984375 -0.53125 
Q 36.96875 -1.421875 32.421875 -1.421875 
Q 20.0625 -1.421875 12.78125 6.34375 
Q 5.515625 14.109375 5.515625 27.296875 
Q 5.515625 40.671875 12.859375 48.328125 
Q 20.21875 56 33.015625 56 
Q 37.15625 56 41.109375 55.140625 
Q 45.0625 54.296875 48.78125 52.59375 
z
" id="DejaVuSans-99"/>
     <path d="M 2.984375 54.6875 
L 12.5 54.6875 
L 29.59375 8.796875 
L 46.6875 54.6875 
L 56.203125 54.6875 
L 35.6875 0 
L 23.484375 0 
z
" id="DejaVuSans-118"/>
     <path d="M 44.390625 34.1875 
Q 47.5625 33.109375 50.5625 29.59375 
Q 53.5625 26.078125 56.59375 19.921875 
L 66.609375 0 
L 56 0 
L 46.6875 18.703125 
Q 43.0625 26.03125 39.671875 28.421875 
Q 36.28125 30.8125 30.421875 30.8125 
L 19.671875 30.8125 
L 19.671875 0 
L 9.8125 0 
L 9.8125 72.90625 
L 32.078125 72.90625 
Q 44.578125 72.90625 50.734375 67.671875 
Q 56.890625 62.453125 56.890625 51.90625 
Q 56.890625 45.015625 53.6875 40.46875 
Q 50.484375 35.9375 44.390625 34.1875 
z
M 19.671875 64.796875 
L 19.671875 38.921875 
L 32.078125 38.921875 
Q 39.203125 38.921875 42.84375 42.21875 
Q 46.484375 45.515625 46.484375 51.90625 
Q 46.484375 58.296875 42.84375 61.546875 
Q 39.203125 64.796875 32.078125 64.796875 
z
" id="DejaVuSans-82"/>
     <path d="M 48.6875 27.296875 
Q 48.6875 37.203125 44.609375 42.84375 
Q 40.53125 48.484375 33.40625 48.484375 
Q 26.265625 48.484375 22.1875 42.84375 
Q 18.109375 37.203125 18.109375 27.296875 
Q 18.109375 17.390625 22.1875 11.75 
Q 26.265625 6.109375 33.40625 6.109375 
Q 40.53125 6.109375 44.609375 11.75 
Q 48.6875 17.390625 48.6875 27.296875 
z
M 18.109375 46.390625 
Q 20.953125 51.265625 25.265625 53.625 
Q 29.59375 56 35.59375 56 
Q 45.5625 56 51.78125 48.09375 
Q 58.015625 40.1875 58.015625 27.296875 
Q 58.015625 14.40625 51.78125 6.484375 
Q 45.5625 -1.421875 35.59375 -1.421875 
Q 29.59375 -1.421875 25.265625 0.953125 
Q 20.953125 3.328125 18.109375 8.203125 
L 18.109375 0 
L 9.078125 0 
L 9.078125 75.984375 
L 18.109375 75.984375 
z
" id="DejaVuSans-98"/>
     <path d="M 9.8125 72.90625 
L 51.703125 72.90625 
L 51.703125 64.59375 
L 19.671875 64.59375 
L 19.671875 43.109375 
L 48.578125 43.109375 
L 48.578125 34.8125 
L 19.671875 34.8125 
L 19.671875 0 
L 9.8125 0 
z
" id="DejaVuSans-70"/>
     <path d="M 34.28125 27.484375 
Q 23.390625 27.484375 19.1875 25 
Q 14.984375 22.515625 14.984375 16.5 
Q 14.984375 11.71875 18.140625 8.90625 
Q 21.296875 6.109375 26.703125 6.109375 
Q 34.1875 6.109375 38.703125 11.40625 
Q 43.21875 16.703125 43.21875 25.484375 
L 43.21875 27.484375 
z
M 52.203125 31.203125 
L 52.203125 0 
L 43.21875 0 
L 43.21875 8.296875 
Q 40.140625 3.328125 35.546875 0.953125 
Q 30.953125 -1.421875 24.3125 -1.421875 
Q 15.921875 -1.421875 10.953125 3.296875 
Q 6 8.015625 6 15.921875 
Q 6 25.140625 12.171875 29.828125 
Q 18.359375 34.515625 30.609375 34.515625 
L 43.21875 34.515625 
L 43.21875 35.40625 
Q 43.21875 41.609375 39.140625 45 
Q 35.0625 48.390625 27.6875 48.390625 
Q 23 48.390625 18.546875 47.265625 
Q 14.109375 46.140625 10.015625 43.890625 
L 10.015625 52.203125 
Q 14.9375 54.109375 19.578125 55.046875 
Q 24.21875 56 28.609375 56 
Q 40.484375 56 46.34375 49.84375 
Q 52.203125 43.703125 52.203125 31.203125 
z
" id="DejaVuSans-97"/>
     <path d="M 9.421875 75.984375 
L 18.40625 75.984375 
L 18.40625 0 
L 9.421875 0 
z
" id="DejaVuSans-108"/>
     <path d="M 11.71875 12.40625 
L 22.015625 12.40625 
L 22.015625 0 
L 11.71875 0 
z
M 11.71875 51.703125 
L 22.015625 51.703125 
L 22.015625 39.3125 
L 11.71875 39.3125 
z
" id="DejaVuSans-58"/>
     <path d="M 9.8125 72.90625 
L 19.671875 72.90625 
L 19.671875 0 
L 9.8125 0 
z
" id="DejaVuSans-73"/>
     <path d="M 10.59375 45.40625 
L 73.1875 45.40625 
L 73.1875 37.203125 
L 10.59375 37.203125 
z
M 10.59375 25.484375 
L 73.1875 25.484375 
L 73.1875 17.1875 
L 10.59375 17.1875 
z
" id="DejaVuSans-61"/>
     <path d="M 10.6875 12.40625 
L 21 12.40625 
L 21 0 
L 10.6875 0 
z
" id="DejaVuSans-46"/>
    </defs>
    <g transform="translate(203.847188 89.04)scale(0.12 -0.12)">
     <use xlink:href="#DejaVuSans-65"/>
     <use x="66.658203" xlink:href="#DejaVuSans-99"/>
     <use x="121.638672" xlink:href="#DejaVuSans-116"/>
     <use x="160.847656" xlink:href="#DejaVuSans-105"/>
     <use x="188.630859" xlink:href="#DejaVuSans-118"/>
     <use x="247.810547" xlink:href="#DejaVuSans-101"/>
     <use x="309.333984" xlink:href="#DejaVuSans-32"/>
     <use x="341.121094" xlink:href="#DejaVuSans-82"/>
     <use x="410.603516" xlink:href="#DejaVuSans-105"/>
     <use x="438.386719" xlink:href="#DejaVuSans-98"/>
     <use x="501.863281" xlink:href="#DejaVuSans-111"/>
     <use x="563.044922" xlink:href="#DejaVuSans-115"/>
     <use x="615.144531" xlink:href="#DejaVuSans-111"/>
     <use x="676.326172" xlink:href="#DejaVuSans-109"/>
     <use x="773.738281" xlink:href="#DejaVuSans-101"/>
     <use x="835.261719" xlink:href="#DejaVuSans-115"/>
     <use x="887.361328" xlink:href="#DejaVuSans-32"/>
     <use x="919.148438" xlink:href="#DejaVuSans-70"/>
     <use x="969.417969" xlink:href="#DejaVuSans-105"/>
     <use x="997.201172" xlink:href="#DejaVuSans-110"/>
     <use x="1060.580078" xlink:href="#DejaVuSans-97"/>
     <use x="1121.859375" xlink:href="#DejaVuSans-108"/>
     <use x="1149.642578" xlink:href="#DejaVuSans-58"/>
     <use x="1183.333984" xlink:href="#DejaVuSans-73"/>
     <use x="1212.826172" xlink:href="#DejaVuSans-110"/>
     <use x="1276.205078" xlink:href="#DejaVuSans-105"/>
     <use x="1303.988281" xlink:href="#DejaVuSans-116"/>
     <use x="1343.197266" xlink:href="#DejaVuSans-105"/>
     <use x="1370.980469" xlink:href="#DejaVuSans-97"/>
     <use x="1432.259766" xlink:href="#DejaVuSans-108"/>
     <use x="1460.042969" xlink:href="#DejaVuSans-32"/>
     <use x="1491.830078" xlink:href="#DejaVuSans-61"/>
     <use x="1575.619141" xlink:href="#DejaVuSans-32"/>
     <use x="1607.40625" xlink:href="#DejaVuSans-50"/>
     <use x="1671.029297" xlink:href="#DejaVuSans-46"/>
     <use x="1702.816406" xlink:href="#DejaVuSans-51"/>
     <use x="1766.439453" xlink:href="#DejaVuSans-52"/>
    </g>
   </g>
  </g>
  <g id="text_18">
   <!-- 20210624.0706_wildtype_0_Seed_000000_Gen_generation_000000/0_Githash_b0d1adc431_Desc_manual -->
   <defs>
    <path d="M 33.015625 40.375 
Q 26.375 40.375 22.484375 35.828125 
Q 18.609375 31.296875 18.609375 23.390625 
Q 18.609375 15.53125 22.484375 10.953125 
Q 26.375 6.390625 33.015625 6.390625 
Q 39.65625 6.390625 43.53125 10.953125 
Q 47.40625 15.53125 47.40625 23.390625 
Q 47.40625 31.296875 43.53125 35.828125 
Q 39.65625 40.375 33.015625 40.375 
z
M 52.59375 71.296875 
L 52.59375 62.3125 
Q 48.875 64.0625 45.09375 64.984375 
Q 41.3125 65.921875 37.59375 65.921875 
Q 27.828125 65.921875 22.671875 59.328125 
Q 17.53125 52.734375 16.796875 39.40625 
Q 19.671875 43.65625 24.015625 45.921875 
Q 28.375 48.1875 33.59375 48.1875 
Q 44.578125 48.1875 50.953125 41.515625 
Q 57.328125 34.859375 57.328125 23.390625 
Q 57.328125 12.15625 50.6875 5.359375 
Q 44.046875 -1.421875 33.015625 -1.421875 
Q 20.359375 -1.421875 13.671875 8.265625 
Q 6.984375 17.96875 6.984375 36.375 
Q 6.984375 53.65625 15.1875 63.9375 
Q 23.390625 74.21875 37.203125 74.21875 
Q 40.921875 74.21875 44.703125 73.484375 
Q 48.484375 72.75 52.59375 71.296875 
z
" id="DejaVuSans-54"/>
    <path d="M 50.984375 -16.609375 
L 50.984375 -23.578125 
L -0.984375 -23.578125 
L -0.984375 -16.609375 
z
" id="DejaVuSans-95"/>
    <path d="M 4.203125 54.6875 
L 13.1875 54.6875 
L 24.421875 12.015625 
L 35.59375 54.6875 
L 46.1875 54.6875 
L 57.421875 12.015625 
L 68.609375 54.6875 
L 77.59375 54.6875 
L 63.28125 0 
L 52.6875 0 
L 40.921875 44.828125 
L 29.109375 0 
L 18.5 0 
z
" id="DejaVuSans-119"/>
    <path d="M 45.40625 46.390625 
L 45.40625 75.984375 
L 54.390625 75.984375 
L 54.390625 0 
L 45.40625 0 
L 45.40625 8.203125 
Q 42.578125 3.328125 38.25 0.953125 
Q 33.9375 -1.421875 27.875 -1.421875 
Q 17.96875 -1.421875 11.734375 6.484375 
Q 5.515625 14.40625 5.515625 27.296875 
Q 5.515625 40.1875 11.734375 48.09375 
Q 17.96875 56 27.875 56 
Q 33.9375 56 38.25 53.625 
Q 42.578125 51.265625 45.40625 46.390625 
z
M 14.796875 27.296875 
Q 14.796875 17.390625 18.875 11.75 
Q 22.953125 6.109375 30.078125 6.109375 
Q 37.203125 6.109375 41.296875 11.75 
Q 45.40625 17.390625 45.40625 27.296875 
Q 45.40625 37.203125 41.296875 42.84375 
Q 37.203125 48.484375 30.078125 48.484375 
Q 22.953125 48.484375 18.875 42.84375 
Q 14.796875 37.203125 14.796875 27.296875 
z
" id="DejaVuSans-100"/>
    <path d="M 32.171875 -5.078125 
Q 28.375 -14.84375 24.75 -17.8125 
Q 21.140625 -20.796875 15.09375 -20.796875 
L 7.90625 -20.796875 
L 7.90625 -13.28125 
L 13.1875 -13.28125 
Q 16.890625 -13.28125 18.9375 -11.515625 
Q 21 -9.765625 23.484375 -3.21875 
L 25.09375 0.875 
L 2.984375 54.6875 
L 12.5 54.6875 
L 29.59375 11.921875 
L 46.6875 54.6875 
L 56.203125 54.6875 
z
" id="DejaVuSans-121"/>
    <path d="M 18.109375 8.203125 
L 18.109375 -20.796875 
L 9.078125 -20.796875 
L 9.078125 54.6875 
L 18.109375 54.6875 
L 18.109375 46.390625 
Q 20.953125 51.265625 25.265625 53.625 
Q 29.59375 56 35.59375 56 
Q 45.5625 56 51.78125 48.09375 
Q 58.015625 40.1875 58.015625 27.296875 
Q 58.015625 14.40625 51.78125 6.484375 
Q 45.5625 -1.421875 35.59375 -1.421875 
Q 29.59375 -1.421875 25.265625 0.953125 
Q 20.953125 3.328125 18.109375 8.203125 
z
M 48.6875 27.296875 
Q 48.6875 37.203125 44.609375 42.84375 
Q 40.53125 48.484375 33.40625 48.484375 
Q 26.265625 48.484375 22.1875 42.84375 
Q 18.109375 37.203125 18.109375 27.296875 
Q 18.109375 17.390625 22.1875 11.75 
Q 26.265625 6.109375 33.40625 6.109375 
Q 40.53125 6.109375 44.609375 11.75 
Q 48.6875 17.390625 48.6875 27.296875 
z
" id="DejaVuSans-112"/>
    <path d="M 53.515625 70.515625 
L 53.515625 60.890625 
Q 47.90625 63.578125 42.921875 64.890625 
Q 37.9375 66.21875 33.296875 66.21875 
Q 25.25 66.21875 20.875 63.09375 
Q 16.5 59.96875 16.5 54.203125 
Q 16.5 49.359375 19.40625 46.890625 
Q 22.3125 44.4375 30.421875 42.921875 
L 36.375 41.703125 
Q 47.40625 39.59375 52.65625 34.296875 
Q 57.90625 29 57.90625 20.125 
Q 57.90625 9.515625 50.796875 4.046875 
Q 43.703125 -1.421875 29.984375 -1.421875 
Q 24.8125 -1.421875 18.96875 -0.25 
Q 13.140625 0.921875 6.890625 3.21875 
L 6.890625 13.375 
Q 12.890625 10.015625 18.65625 8.296875 
Q 24.421875 6.59375 29.984375 6.59375 
Q 38.421875 6.59375 43.015625 9.90625 
Q 47.609375 13.234375 47.609375 19.390625 
Q 47.609375 24.75 44.3125 27.78125 
Q 41.015625 30.8125 33.5 32.328125 
L 27.484375 33.5 
Q 16.453125 35.6875 11.515625 40.375 
Q 6.59375 45.0625 6.59375 53.421875 
Q 6.59375 63.09375 13.40625 68.65625 
Q 20.21875 74.21875 32.171875 74.21875 
Q 37.3125 74.21875 42.625 73.28125 
Q 47.953125 72.359375 53.515625 70.515625 
z
" id="DejaVuSans-83"/>
    <path d="M 59.515625 10.40625 
L 59.515625 29.984375 
L 43.40625 29.984375 
L 43.40625 38.09375 
L 69.28125 38.09375 
L 69.28125 6.78125 
Q 63.578125 2.734375 56.6875 0.65625 
Q 49.8125 -1.421875 42 -1.421875 
Q 24.90625 -1.421875 15.25 8.5625 
Q 5.609375 18.5625 5.609375 36.375 
Q 5.609375 54.25 15.25 64.234375 
Q 24.90625 74.21875 42 74.21875 
Q 49.125 74.21875 55.546875 72.453125 
Q 61.96875 70.703125 67.390625 67.28125 
L 67.390625 56.78125 
Q 61.921875 61.421875 55.765625 63.765625 
Q 49.609375 66.109375 42.828125 66.109375 
Q 29.4375 66.109375 22.71875 58.640625 
Q 16.015625 51.171875 16.015625 36.375 
Q 16.015625 21.625 22.71875 14.15625 
Q 29.4375 6.6875 42.828125 6.6875 
Q 48.046875 6.6875 52.140625 7.59375 
Q 56.25 8.5 59.515625 10.40625 
z
" id="DejaVuSans-71"/>
    <path d="M 45.40625 27.984375 
Q 45.40625 37.75 41.375 43.109375 
Q 37.359375 48.484375 30.078125 48.484375 
Q 22.859375 48.484375 18.828125 43.109375 
Q 14.796875 37.75 14.796875 27.984375 
Q 14.796875 18.265625 18.828125 12.890625 
Q 22.859375 7.515625 30.078125 7.515625 
Q 37.359375 7.515625 41.375 12.890625 
Q 45.40625 18.265625 45.40625 27.984375 
z
M 54.390625 6.78125 
Q 54.390625 -7.171875 48.1875 -13.984375 
Q 42 -20.796875 29.203125 -20.796875 
Q 24.46875 -20.796875 20.265625 -20.09375 
Q 16.0625 -19.390625 12.109375 -17.921875 
L 12.109375 -9.1875 
Q 16.0625 -11.328125 19.921875 -12.34375 
Q 23.78125 -13.375 27.78125 -13.375 
Q 36.625 -13.375 41.015625 -8.765625 
Q 45.40625 -4.15625 45.40625 5.171875 
L 45.40625 9.625 
Q 42.625 4.78125 38.28125 2.390625 
Q 33.9375 0 27.875 0 
Q 17.828125 0 11.671875 7.65625 
Q 5.515625 15.328125 5.515625 27.984375 
Q 5.515625 40.671875 11.671875 48.328125 
Q 17.828125 56 27.875 56 
Q 33.9375 56 38.28125 53.609375 
Q 42.625 51.21875 45.40625 46.390625 
L 45.40625 54.6875 
L 54.390625 54.6875 
z
" id="DejaVuSans-103"/>
    <path d="M 41.109375 46.296875 
Q 39.59375 47.171875 37.8125 47.578125 
Q 36.03125 48 33.890625 48 
Q 26.265625 48 22.1875 43.046875 
Q 18.109375 38.09375 18.109375 28.8125 
L 18.109375 0 
L 9.078125 0 
L 9.078125 54.6875 
L 18.109375 54.6875 
L 18.109375 46.1875 
Q 20.953125 51.171875 25.484375 53.578125 
Q 30.03125 56 36.53125 56 
Q 37.453125 56 38.578125 55.875 
Q 39.703125 55.765625 41.0625 55.515625 
z
" id="DejaVuSans-114"/>
    <path d="M 25.390625 72.90625 
L 33.6875 72.90625 
L 8.296875 -9.28125 
L 0 -9.28125 
z
" id="DejaVuSans-47"/>
    <path d="M 54.890625 33.015625 
L 54.890625 0 
L 45.90625 0 
L 45.90625 32.71875 
Q 45.90625 40.484375 42.875 44.328125 
Q 39.84375 48.1875 33.796875 48.1875 
Q 26.515625 48.1875 22.3125 43.546875 
Q 18.109375 38.921875 18.109375 30.90625 
L 18.109375 0 
L 9.078125 0 
L 9.078125 75.984375 
L 18.109375 75.984375 
L 18.109375 46.1875 
Q 21.34375 51.125 25.703125 53.5625 
Q 30.078125 56 35.796875 56 
Q 45.21875 56 50.046875 50.171875 
Q 54.890625 44.34375 54.890625 33.015625 
z
" id="DejaVuSans-104"/>
    <path d="M 19.671875 64.796875 
L 19.671875 8.109375 
L 31.59375 8.109375 
Q 46.6875 8.109375 53.6875 14.9375 
Q 60.6875 21.78125 60.6875 36.53125 
Q 60.6875 51.171875 53.6875 57.984375 
Q 46.6875 64.796875 31.59375 64.796875 
z
M 9.8125 72.90625 
L 30.078125 72.90625 
Q 51.265625 72.90625 61.171875 64.09375 
Q 71.09375 55.28125 71.09375 36.53125 
Q 71.09375 17.671875 61.125 8.828125 
Q 51.171875 0 30.078125 0 
L 9.8125 0 
z
" id="DejaVuSans-68"/>
   </defs>
   <g transform="translate(0 792)scale(0.08 -0.08)">
    <use xlink:href="#DejaVuSans-50"/>
    <use x="63.623047" xlink:href="#DejaVuSans-48"/>
    <use x="127.246094" xlink:href="#DejaVuSans-50"/>
    <use x="190.869141" xlink:href="#DejaVuSans-49"/>
    <use x="254.492188" xlink:href="#DejaVuSans-48"/>
    <use x="318.115234" xlink:href="#DejaVuSans-54"/>
    <use x="381.738281" xlink:href="#DejaVuSans-50"/>
    <use x="445.361328" xlink:href="#DejaVuSans-52"/>
    <use x="508.984375" xlink:href="#DejaVuSans-46"/>
    <use x="540.771484" xlink:href="#DejaVuSans-48"/>
    <use x="604.394531" xlink:href="#DejaVuSans-55"/>
    <use x="668.017578" xlink:href="#DejaVuSans-48"/>
    <use x="731.640625" xlink:href="#DejaVuSans-54"/>
    <use x="795.263672" xlink:href="#DejaVuSans-95"/>
    <use x="845.263672" xlink:href="#DejaVuSans-119"/>
    <use x="927.050781" xlink:href="#DejaVuSans-105"/>
    <use x="954.833984" xlink:href="#DejaVuSans-108"/>
    <use x="982.617188" xlink:href="#DejaVuSans-100"/>
    <use x="1046.09375" xlink:href="#DejaVuSans-116"/>
    <use x="1085.302734" xlink:href="#DejaVuSans-121"/>
    <use x="1144.482422" xlink:href="#DejaVuSans-112"/>
    <use x="1207.958984" xlink:href="#DejaVuSans-101"/>
    <use x="1269.482422" xlink:href="#DejaVuSans-95"/>
    <use x="1319.482422" xlink:href="#DejaVuSans-48"/>
    <use x="1383.105469" xlink:href="#DejaVuSans-95"/>
    <use x="1433.105469" xlink:href="#DejaVuSans-83"/>
    <use x="1496.582031" xlink:href="#DejaVuSans-101"/>
    <use x="1558.105469" xlink:href="#DejaVuSans-101"/>
    <use x="1619.628906" xlink:href="#DejaVuSans-100"/>
    <use x="1683.105469" xlink:href="#DejaVuSans-95"/>
    <use x="1733.105469" xlink:href="#DejaVuSans-48"/>
    <use x="1796.728516" xlink:href="#DejaVuSans-48"/>
    <use x="1860.351562" xlink:href="#DejaVuSans-48"/>
    <use x="1923.974609" xlink:href="#DejaVuSans-48"/>
    <use x="1987.597656" xlink:href="#DejaVuSans-48"/>
    <use x="2051.220703" xlink:href="#DejaVuSans-48"/>
    <use x="2114.84375" xlink:href="#DejaVuSans-95"/>
    <use x="2164.84375" xlink:href="#DejaVuSans-71"/>
    <use x="2242.333984" xlink:href="#DejaVuSans-101"/>
    <use x="2303.857422" xlink:href="#DejaVuSans-110"/>
    <use x="2367.236328" xlink:href="#DejaVuSans-95"/>
    <use x="2417.236328" xlink:href="#DejaVuSans-103"/>
    <use x="2480.712891" xlink:href="#DejaVuSans-101"/>
    <use x="2542.236328" xlink:href="#DejaVuSans-110"/>
    <use x="2605.615234" xlink:href="#DejaVuSans-101"/>
    <use x="2667.138672" xlink:href="#DejaVuSans-114"/>
    <use x="2708.251953" xlink:href="#DejaVuSans-97"/>
    <use x="2769.53125" xlink:href="#DejaVuSans-116"/>
    <use x="2808.740234" xlink:href="#DejaVuSans-105"/>
    <use x="2836.523438" xlink:href="#DejaVuSans-111"/>
    <use x="2897.705078" xlink:href="#DejaVuSans-110"/>
    <use x="2961.083984" xlink:href="#DejaVuSans-95"/>
    <use x="3011.083984" xlink:href="#DejaVuSans-48"/>
    <use x="3074.707031" xlink:href="#DejaVuSans-48"/>
    <use x="3138.330078" xlink:href="#DejaVuSans-48"/>
    <use x="3201.953125" xlink:href="#DejaVuSans-48"/>
    <use x="3265.576172" xlink:href="#DejaVuSans-48"/>
    <use x="3329.199219" xlink:href="#DejaVuSans-48"/>
    <use x="3392.822266" xlink:href="#DejaVuSans-47"/>
    <use x="3426.513672" xlink:href="#DejaVuSans-48"/>
    <use x="3490.136719" xlink:href="#DejaVuSans-95"/>
    <use x="3540.136719" xlink:href="#DejaVuSans-71"/>
    <use x="3617.626953" xlink:href="#DejaVuSans-105"/>
    <use x="3645.410156" xlink:href="#DejaVuSans-116"/>
    <use x="3684.619141" xlink:href="#DejaVuSans-104"/>
    <use x="3747.998047" xlink:href="#DejaVuSans-97"/>
    <use x="3809.277344" xlink:href="#DejaVuSans-115"/>
    <use x="3861.376953" xlink:href="#DejaVuSans-104"/>
    <use x="3924.755859" xlink:href="#DejaVuSans-95"/>
    <use x="3974.755859" xlink:href="#DejaVuSans-98"/>
    <use x="4038.232422" xlink:href="#DejaVuSans-48"/>
    <use x="4101.855469" xlink:href="#DejaVuSans-100"/>
    <use x="4165.332031" xlink:href="#DejaVuSans-49"/>
    <use x="4228.955078" xlink:href="#DejaVuSans-97"/>
    <use x="4290.234375" xlink:href="#DejaVuSans-100"/>
    <use x="4353.710938" xlink:href="#DejaVuSans-99"/>
    <use x="4408.691406" xlink:href="#DejaVuSans-52"/>
    <use x="4472.314453" xlink:href="#DejaVuSans-51"/>
    <use x="4535.9375" xlink:href="#DejaVuSans-49"/>
    <use x="4599.560547" xlink:href="#DejaVuSans-95"/>
    <use x="4649.560547" xlink:href="#DejaVuSans-68"/>
    <use x="4726.5625" xlink:href="#DejaVuSans-101"/>
    <use x="4788.085938" xlink:href="#DejaVuSans-115"/>
    <use x="4840.185547" xlink:href="#DejaVuSans-99"/>
    <use x="4895.166016" xlink:href="#DejaVuSans-95"/>
    <use x="4945.166016" xlink:href="#DejaVuSans-109"/>
    <use x="5042.578125" xlink:href="#DejaVuSans-97"/>
    <use x="5103.857422" xlink:href="#DejaVuSans-110"/>
    <use x="5167.236328" xlink:href="#DejaVuSans-117"/>
    <use x="5230.615234" xlink:href="#DejaVuSans-97"/>
    <use x="5291.894531" xlink:href="#DejaVuSans-108"/>
   </g>
  </g>
 </g>
 <defs>
  <clipPath id="pd99c6907be">
   <rect height="609.84" width="474.3" x="76.5" y="95.04"/>
  </clipPath>
 </defs>
</svg>
