<?xml version="1.0" encoding="UTF-8"?>
<svg id="Layer_1" xmlns="http://www.w3.org/2000/svg" xmlns:xlink="http://www.w3.org/1999/xlink" version="1.1" viewBox="0 0 424.46 279.65">
  <!-- Generator: Adobe Illustrator 30.3.0, SVG Export Plug-In . SVG Version: 2.1.3 Build 182)  -->
  <defs>
    <style>
      .st0, .st1, .st2, .st3 {
        fill: none;
      }

      .st4 {
        fill: #1a1a1a;
      }

      .st4, .st1, .st5, .st3 {
        stroke-linejoin: round;
      }

      .st4, .st3 {
        stroke: #1a1a1a;
      }

      .st6 {
        fill: #fff;
        opacity: .8;
        stroke: #ccc;
      }

      .st6, .st7, .st8 {
        isolation: isolate;
      }

      .st9 {
        clip-path: url(#clippath-17);
      }

      .st10 {
        clip-path: url(#clippath-19);
      }

      .st11 {
        clip-path: url(#clippath-11);
      }

      .st12 {
        clip-path: url(#clippath-16);
      }

      .st13 {
        clip-path: url(#clippath-18);
      }

      .st14 {
        clip-path: url(#clippath-10);
      }

      .st15 {
        clip-path: url(#clippath-15);
      }

      .st16 {
        clip-path: url(#clippath-13);
      }

      .st17 {
        clip-path: url(#clippath-14);
      }

      .st18 {
        clip-path: url(#clippath-12);
      }

      .st19 {
        clip-path: url(#clippath-20);
      }

      .st20 {
        clip-path: url(#clippath-21);
      }

      .st21 {
        clip-path: url(#clippath-22);
      }

      .st22 {
        clip-path: url(#clippath-23);
      }

      .st23 {
        clip-path: url(#clippath-24);
      }

      .st24 {
        clip-path: url(#clippath-1);
      }

      .st25 {
        clip-path: url(#clippath-3);
      }

      .st26 {
        clip-path: url(#clippath-4);
      }

      .st27 {
        clip-path: url(#clippath-2);
      }

      .st28 {
        clip-path: url(#clippath-7);
      }

      .st29 {
        clip-path: url(#clippath-6);
      }

      .st30 {
        clip-path: url(#clippath-9);
      }

      .st31 {
        clip-path: url(#clippath-8);
      }

      .st32 {
        clip-path: url(#clippath-5);
      }

      .st1 {
        stroke-width: .5px;
      }

      .st1, .st5, .st2 {
        stroke: #000;
      }

      .st1, .st2 {
        stroke-linecap: square;
      }

      .st7 {
        fill: #dd8452;
      }

      .st7, .st8 {
        opacity: .85;
      }

      .st5, .st2 {
        stroke-width: .8px;
      }

      .st3 {
        stroke-width: 1.5px;
      }

      .st33 {
        clip-path: url(#clippath);
      }

      .st8 {
        fill: #4c72b0;
      }
    </style>
    <clipPath id="clippath">
      <rect class="st0" x="43.78" y="22.32" width="373.48" height="215.98"/>
    </clipPath>
    <clipPath id="clippath-1">
      <rect class="st0" x="43.78" y="22.32" width="373.48" height="215.98"/>
    </clipPath>
    <clipPath id="clippath-2">
      <rect class="st0" x="43.78" y="22.32" width="373.48" height="215.98"/>
    </clipPath>
    <clipPath id="clippath-3">
      <rect class="st0" x="43.78" y="22.32" width="373.48" height="215.98"/>
    </clipPath>
    <clipPath id="clippath-4">
      <rect class="st0" x="43.78" y="22.32" width="373.48" height="215.98"/>
    </clipPath>
    <clipPath id="clippath-5">
      <rect class="st0" x="43.78" y="22.32" width="373.48" height="215.98"/>
    </clipPath>
    <clipPath id="clippath-6">
      <rect class="st0" x="43.78" y="22.32" width="373.48" height="215.98"/>
    </clipPath>
    <clipPath id="clippath-7">
      <rect class="st0" x="43.78" y="22.32" width="373.48" height="215.98"/>
    </clipPath>
    <clipPath id="clippath-8">
      <rect class="st0" x="43.78" y="22.32" width="373.48" height="215.98"/>
    </clipPath>
    <clipPath id="clippath-9">
      <rect class="st0" x="43.78" y="22.32" width="373.48" height="215.98"/>
    </clipPath>
    <clipPath id="clippath-10">
      <rect class="st0" x="43.78" y="22.32" width="373.48" height="215.98"/>
    </clipPath>
    <clipPath id="clippath-11">
      <rect class="st0" x="43.78" y="22.32" width="373.48" height="215.98"/>
    </clipPath>
    <clipPath id="clippath-12">
      <rect class="st0" x="43.78" y="22.32" width="373.48" height="215.98"/>
    </clipPath>
    <clipPath id="clippath-13">
      <rect class="st0" x="43.78" y="22.32" width="373.48" height="215.98"/>
    </clipPath>
    <clipPath id="clippath-14">
      <rect class="st0" x="43.78" y="22.32" width="373.48" height="215.98"/>
    </clipPath>
    <clipPath id="clippath-15">
      <rect class="st0" x="43.78" y="22.32" width="373.48" height="215.98"/>
    </clipPath>
    <clipPath id="clippath-16">
      <rect class="st0" x="43.78" y="22.32" width="373.48" height="215.98"/>
    </clipPath>
    <clipPath id="clippath-17">
      <rect class="st0" x="43.78" y="22.32" width="373.48" height="215.98"/>
    </clipPath>
    <clipPath id="clippath-18">
      <rect class="st0" x="43.78" y="22.32" width="373.48" height="215.98"/>
    </clipPath>
    <clipPath id="clippath-19">
      <rect class="st0" x="43.78" y="22.32" width="373.48" height="215.98"/>
    </clipPath>
    <clipPath id="clippath-20">
      <rect class="st0" x="43.78" y="22.32" width="373.48" height="215.98"/>
    </clipPath>
    <clipPath id="clippath-21">
      <rect class="st0" x="43.78" y="22.32" width="373.48" height="215.98"/>
    </clipPath>
    <clipPath id="clippath-22">
      <rect class="st0" x="43.78" y="22.32" width="373.48" height="215.98"/>
    </clipPath>
    <clipPath id="clippath-23">
      <rect class="st0" x="43.78" y="22.32" width="373.48" height="215.98"/>
    </clipPath>
    <clipPath id="clippath-24">
      <rect class="st0" x="43.78" y="22.32" width="373.48" height="215.98"/>
    </clipPath>
  </defs>
  <g id="figure_1">
    <g id="axes_1">
      <g id="patch_3">
        <g class="st33">
          <path class="st8" d="M60.76,227.81h25.28v-.03h-25.28v.03Z"/>
        </g>
      </g>
      <g id="patch_4">
        <g class="st24">
          <path class="st8" d="M133,227.81h25.28v-.42h-25.28v.42Z"/>
        </g>
      </g>
      <g id="patch_5">
        <g class="st27">
          <path class="st8" d="M205.24,227.81h25.28v-38.6h-25.28v38.6Z"/>
        </g>
      </g>
      <g id="patch_6">
        <g class="st25">
          <path class="st8" d="M277.48,227.81h25.28v.04h-25.28v-.04Z"/>
        </g>
      </g>
      <g id="patch_7">
        <g class="st26">
          <path class="st8" d="M349.72,227.81h25.28v-55.46h-25.28v55.46Z"/>
        </g>
      </g>
      <g id="patch_8">
        <g class="st32">
          <path class="st7" d="M86.04,227.81h25.28v-.09h-25.28v.09Z"/>
        </g>
      </g>
      <g id="patch_9">
        <g class="st29">
          <path class="st7" d="M158.28,227.81h25.28v-.36h-25.28v.36Z"/>
        </g>
      </g>
      <g id="patch_10">
        <g class="st28">
          <path class="st7" d="M230.52,227.81h25.28V84.75h-25.28v143.07Z"/>
        </g>
      </g>
      <g id="patch_11">
        <g class="st31">
          <path class="st7" d="M302.76,227.81h25.28v-.22h-25.28v.22Z"/>
        </g>
      </g>
      <g id="patch_12">
        <g class="st30">
          <path class="st7" d="M375,227.81h25.28V60.05h-25.28v167.77Z"/>
        </g>
      </g>
      <g id="matplotlib.axis_1">
        <g id="xtick_1">
          <g id="line2d_1">
            <path id="m78796f7bf0" class="st5" d="M86.04,238.3v3.5"/>
          </g>
          <g id="text_1">
            <g>
              <path id="DejaVuSans-3bb" d="M56.23,263.22l5.94,4.08-.78.55-3.58-2.43.78,4.39-.78.55-1.04-5.67-.85-.59c-.36-.25-.68-.27-.97-.07l-.38.27-.44-.63.47-.32c.61-.41,1.15-.45,1.64-.12Z"/>
              <path id="DejaVuSans-5f" d="M67.54,265.56l.4.57-4.26,2.98-.4-.57,4.26-2.98Z"/>
              <path id="DejaVuSans-68" d="M69.11,258.4l1.89,2.7-.74.52-1.88-2.68c-.3-.42-.6-.68-.91-.78-.31-.09-.63-.03-.97.2-.4.28-.62.62-.67,1.04-.05.41.07.84.38,1.28l1.77,2.53-.74.52-4.36-6.22.74-.52,1.71,2.44c-.01-.39.05-.74.2-1.04.15-.3.37-.56.69-.78.51-.36,1.02-.47,1.5-.34.49.13.95.51,1.38,1.13Z"/>
              <path id="DejaVuSans-6f" d="M71.43,254.9c-.39.28-.6.65-.61,1.12s.17.97.54,1.51.78.88,1.23,1.03c.44.15.86.08,1.26-.19s.59-.65.61-1.12c.01-.47-.17-.97-.54-1.51s-.78-.87-1.23-1.02c-.45-.15-.87-.09-1.26.19ZM70.99,254.28c.64-.45,1.29-.59,1.95-.43.66.16,1.24.61,1.76,1.34s.73,1.44.66,2.11c-.07.67-.43,1.23-1.07,1.68s-1.29.59-1.95.43c-.66-.16-1.24-.61-1.75-1.34s-.74-1.44-.66-2.11c.07-.67.43-1.23,1.07-1.68Z"/>
              <path id="DejaVuSans-6d" d="M78.43,250.51c-.05-.46,0-.86.15-1.19s.39-.63.74-.87c.47-.33.94-.42,1.42-.27.48.15.93.52,1.36,1.13l1.89,2.7-.74.52-1.88-2.68c-.3-.43-.6-.69-.9-.79-.3-.1-.6-.04-.91.17-.38.27-.59.6-.64,1.01-.04.41.09.83.39,1.27l1.77,2.53-.74.52-1.88-2.68c-.3-.43-.6-.7-.9-.8s-.6-.04-.92.18c-.38.26-.59.6-.63,1.01-.04.41.09.83.39,1.27l1.77,2.53-.74.52-3.14-4.48.74-.52.49.7c-.02-.39.04-.74.18-1.03s.38-.56.7-.78.66-.34,1-.33c.34,0,.68.13,1.01.37Z"/>
            </g>
          </g>
        </g>
        <g id="xtick_2">
          <g id="line2d_2">
            <path id="m78796f7bf01" data-name="m78796f7bf0" class="st5" d="M158.28,238.3v3.5"/>
          </g>
          <g id="text_2">
            <g>
              <path id="DejaVuSans-3bb1" data-name="DejaVuSans-3bb" d="M132.84,260.16l5.94,4.08-.78.55-3.58-2.43.78,4.39-.78.55-1.04-5.67-.85-.59c-.36-.25-.68-.27-.97-.07l-.38.27-.44-.63.47-.32c.61-.41,1.15-.45,1.64-.12Z"/>
              <path id="DejaVuSans-5f1" data-name="DejaVuSans-5f" d="M144.15,262.5l.4.57-4.26,2.98-.4-.57,4.26-2.98Z"/>
              <path id="DejaVuSans-73" d="M143.7,254.31l.49.7c-.28.04-.55.11-.82.21-.26.1-.51.24-.75.41-.37.26-.6.5-.7.74-.1.24-.08.47.08.7.12.17.28.26.48.26s.53-.09.98-.27l.29-.12c.6-.25,1.08-.36,1.45-.31s.67.26.93.62c.29.42.36.86.2,1.34-.16.47-.53.91-1.1,1.31-.24.17-.51.32-.8.45-.29.14-.62.26-.97.37l-.53-.76c.37-.05.71-.13,1.03-.24.31-.11.6-.26.86-.44.35-.24.57-.49.67-.74.1-.25.08-.48-.07-.7-.14-.2-.31-.31-.52-.32-.21-.01-.58.09-1.1.31l-.3.12c-.52.22-.96.31-1.3.25-.34-.06-.63-.26-.88-.61-.3-.42-.37-.85-.23-1.29.14-.44.48-.85,1.03-1.24.27-.19.54-.35.81-.48.27-.13.53-.22.79-.29Z"/>
              <path id="DejaVuSans-65" d="M150.29,252.56l.25.36-3.38,2.37c.39.48.81.76,1.27.84.46.07.93-.06,1.42-.4.28-.2.53-.42.75-.68s.41-.54.57-.87l.49.7c-.19.3-.4.57-.63.83s-.5.48-.78.68c-.72.5-1.43.69-2.13.57-.71-.12-1.31-.54-1.81-1.25s-.72-1.45-.63-2.16c.09-.71.48-1.3,1.15-1.77.6-.42,1.21-.56,1.84-.42.62.14,1.17.55,1.63,1.21ZM149.4,252.86c-.29-.4-.62-.64-1.01-.73-.39-.09-.76,0-1.13.25-.41.29-.66.63-.74,1.04s0,.83.26,1.28l2.62-1.84Z"/>
              <path id="DejaVuSans-63" d="M153.4,247.57l.48.69c-.29.03-.56.09-.81.18s-.48.21-.69.36c-.48.33-.74.75-.8,1.23-.05.49.11,1,.5,1.55s.81.88,1.29,1c.48.12.95,0,1.43-.33.21-.15.4-.33.57-.53s.32-.44.44-.7l.48.68c-.14.24-.3.46-.49.66-.19.2-.4.39-.65.56-.67.47-1.36.64-2.05.49-.69-.15-1.29-.58-1.8-1.3s-.71-1.45-.6-2.14c.11-.7.51-1.3,1.21-1.78.23-.16.46-.29.71-.39.25-.11.51-.18.77-.23Z"/>
            </g>
          </g>
        </g>
        <g id="xtick_3">
          <g id="line2d_3">
            <path id="m78796f7bf02" data-name="m78796f7bf0" class="st5" d="M230.52,238.3v3.5"/>
          </g>
          <g id="text_3">
            <g>
              <path id="DejaVuSans-3bb2" data-name="DejaVuSans-3bb" d="M208.08,258.06l5.94,4.08-.78.55-3.58-2.43.78,4.39-.78.55-1.04-5.67-.85-.59c-.36-.25-.68-.27-.97-.07l-.38.27-.44-.63.47-.32c.61-.41,1.15-.45,1.64-.12Z"/>
              <path id="DejaVuSans-5f2" data-name="DejaVuSans-5f" d="M219.39,260.4l.4.57-4.26,2.98-.4-.57,4.26-2.98Z"/>
              <path id="DejaVuSans-651" data-name="DejaVuSans-65" d="M221.27,253.45l.25.36-3.38,2.37c.39.48.81.76,1.27.84.46.07.93-.06,1.42-.4.28-.2.53-.42.75-.68s.41-.54.57-.87l.49.7c-.19.3-.4.57-.63.83s-.5.48-.78.68c-.72.5-1.43.69-2.13.57-.71-.12-1.31-.54-1.81-1.25s-.72-1.45-.63-2.16c.09-.71.48-1.3,1.15-1.77.6-.42,1.21-.56,1.84-.42.62.14,1.17.55,1.63,1.21ZM220.38,253.74c-.29-.4-.62-.64-1.01-.73-.39-.09-.76,0-1.13.25-.41.29-.66.63-.74,1.04s0,.83.26,1.28l2.62-1.84Z"/>
              <path id="DejaVuSans-66" d="M222.08,247.21l.43.61-.7.49c-.26.18-.41.37-.44.55-.03.18.06.41.25.68l.28.4,1.21-.85.4.57-1.21.85,2.74,3.91-.74.52-2.74-3.91-.7.49-.4-.57.7-.49-.22-.31c-.35-.5-.49-.94-.41-1.33.07-.39.36-.76.86-1.12l.7-.49Z"/>
              <path id="DejaVuSans-661" data-name="DejaVuSans-66" d="M224.97,245.19l.43.61-.7.49c-.26.18-.41.37-.44.55-.03.18.06.41.25.68l.28.4,1.21-.85.4.57-1.21.85,2.74,3.91-.74.52-2.74-3.91-.7.49-.4-.57.7-.49-.22-.31c-.35-.5-.49-.94-.41-1.33.07-.39.36-.76.86-1.12l.7-.49Z"/>
            </g>
          </g>
        </g>
        <g id="xtick_4">
          <g id="line2d_4">
            <path id="m78796f7bf03" data-name="m78796f7bf0" class="st5" d="M302.76,238.3v3.5"/>
          </g>
          <g id="text_4">
            <g>
              <path id="DejaVuSans-3bb3" data-name="DejaVuSans-3bb" d="M278.92,259.04l5.94,4.08-.78.55-3.58-2.43.78,4.39-.78.55-1.04-5.67-.85-.59c-.36-.25-.68-.27-.97-.07l-.38.27-.44-.63.47-.32c.61-.41,1.15-.45,1.64-.12Z"/>
              <path id="DejaVuSans-5f3" data-name="DejaVuSans-5f" d="M290.23,261.38l.4.57-4.26,2.98-.4-.57,4.26-2.98Z"/>
              <path id="DejaVuSans-6b" d="M285.58,253.33l.74-.52,2.57,3.68.84-3.47.94-.66-.91,3.76,4.15.65-.96.67-3.81-.59,1.53,2.19-.74.52-4.36-6.22Z"/>
              <path id="DejaVuSans-69" d="M291.58,251.73l.74-.52,3.14,4.48-.74.52-3.14-4.48ZM290.35,249.99l.74-.52.65.93-.74.52-.65-.93Z"/>
              <path id="DejaVuSans-6e" d="M298.82,249.31l1.89,2.7-.74.52-1.88-2.68c-.3-.42-.6-.68-.91-.78-.31-.09-.63-.03-.97.2-.4.28-.62.62-.67,1.04-.05.41.07.84.38,1.28l1.77,2.53-.74.52-3.14-4.48.74-.52.49.7c-.01-.39.05-.74.2-1.04.15-.3.37-.56.69-.78.51-.36,1.02-.47,1.5-.34.49.13.95.51,1.38,1.13Z"/>
            </g>
          </g>
        </g>
        <g id="xtick_5">
          <g id="line2d_5">
            <path id="m78796f7bf04" data-name="m78796f7bf0" class="st5" d="M375,238.3v3.5"/>
          </g>
          <g id="text_5">
            <g>
              <path id="DejaVuSans-3bb4" data-name="DejaVuSans-3bb" d="M351.05,259.12l5.94,4.08-.78.55-3.58-2.43.78,4.39-.78.55-1.04-5.67-.85-.59c-.36-.25-.68-.27-.97-.07l-.38.27-.44-.63.47-.32c.61-.41,1.15-.45,1.64-.12Z"/>
              <path id="DejaVuSans-5f4" data-name="DejaVuSans-5f" d="M362.36,261.46l.4.57-4.26,2.98-.4-.57,4.26-2.98Z"/>
              <path id="DejaVuSans-64" d="M362.38,253.75l-1.7-2.42.74-.52,4.36,6.22-.74.52-.47-.67c.03.37-.02.71-.17,1-.14.29-.38.56-.71.79-.54.38-1.13.47-1.78.28-.64-.19-1.21-.64-1.7-1.35s-.72-1.39-.68-2.06c.04-.67.33-1.19.87-1.57.33-.23.66-.37.99-.4.33-.04.66.02,1,.18ZM360.97,257.07c.38.54.79.89,1.23,1.04.44.15.85.09,1.24-.18s.59-.64.6-1.11c0-.47-.18-.97-.56-1.51s-.79-.89-1.23-1.04c-.44-.15-.85-.09-1.24.18s-.59.64-.59,1.1.18.97.56,1.51Z"/>
              <path id="DejaVuSans-691" data-name="DejaVuSans-69" d="M364.16,251.49l.74-.52,3.14,4.48-.74.52-3.14-4.48ZM362.94,249.75l.74-.52.65.93-.74.52-.65-.93Z"/>
              <path id="DejaVuSans-76" d="M365.91,250.27l.78-.55,4.03,2.78-1.23-4.74.78-.55,1.46,5.66-1,.7-4.82-3.3Z"/>
            </g>
          </g>
        </g>
      </g>
      <g id="matplotlib.axis_2">
        <g id="ytick_1">
          <g id="line2d_6">
            <path id="maea3dd294e" class="st5" d="M43.78,227.81h-3.5"/>
          </g>
          <g id="text_6">
            <g>
              <path id="DejaVuSans-30" d="M24.06,224.97c-.51,0-.89.25-1.15.75-.26.5-.38,1.25-.38,2.25s.13,1.75.38,2.25c.26.5.64.75,1.15.75s.89-.25,1.15-.75c.26-.5.38-1.25.38-2.25s-.13-1.75-.38-2.25c-.26-.5-.64-.75-1.15-.75ZM24.06,224.19c.82,0,1.44.32,1.87.97.43.65.65,1.58.65,2.81s-.22,2.16-.65,2.81c-.43.65-1.06.97-1.87.97s-1.44-.32-1.87-.97c-.43-.65-.65-1.58-.65-2.81s.22-2.17.65-2.81c.43-.65,1.06-.97,1.87-.97Z"/>
              <path id="DejaVuSans-2e" d="M28.31,230.37h1.03v1.24h-1.03v-1.24Z"/>
              <path id="DejaVuSans-301" data-name="DejaVuSans-30" d="M33.6,224.97c-.51,0-.89.25-1.15.75-.26.5-.38,1.25-.38,2.25s.13,1.75.38,2.25c.26.5.64.75,1.15.75s.89-.25,1.15-.75c.26-.5.38-1.25.38-2.25s-.13-1.75-.38-2.25c-.26-.5-.64-.75-1.15-.75ZM33.6,224.19c.82,0,1.44.32,1.87.97.43.65.65,1.58.65,2.81s-.22,2.16-.65,2.81c-.43.65-1.06.97-1.87.97s-1.44-.32-1.87-.97c-.43-.65-.65-1.58-.65-2.81s.22-2.17.65-2.81c.43-.65,1.06-.97,1.87-.97Z"/>
            </g>
          </g>
        </g>
        <g id="ytick_2">
          <g id="line2d_7">
            <path id="maea3dd294e1" data-name="maea3dd294e" class="st5" d="M43.78,187.37h-3.5"/>
          </g>
          <g id="text_7">
            <g>
              <path id="DejaVuSans-302" data-name="DejaVuSans-30" d="M24.06,184.52c-.51,0-.89.25-1.15.75-.26.5-.38,1.25-.38,2.25s.13,1.75.38,2.25c.26.5.64.75,1.15.75s.89-.25,1.15-.75c.26-.5.38-1.25.38-2.25s-.13-1.75-.38-2.25c-.26-.5-.64-.75-1.15-.75ZM24.06,183.74c.82,0,1.44.32,1.87.97.43.65.65,1.58.65,2.81s-.22,2.16-.65,2.81c-.43.65-1.06.97-1.87.97s-1.44-.32-1.87-.97c-.43-.65-.65-1.58-.65-2.81s.22-2.17.65-2.81c.43-.65,1.06-.97,1.87-.97Z"/>
              <path id="DejaVuSans-2e1" data-name="DejaVuSans-2e" d="M28.31,189.92h1.03v1.24h-1.03v-1.24Z"/>
              <path id="DejaVuSans-32" d="M32.34,190.34h3.44v.83h-4.63v-.83c.37-.39.88-.91,1.53-1.56.65-.65,1.05-1.07,1.22-1.26.32-.35.54-.65.66-.9.13-.25.19-.49.19-.73,0-.39-.14-.7-.41-.95-.27-.24-.63-.37-1.06-.37-.31,0-.64.05-.98.16-.34.11-.71.27-1.1.49v-1c.4-.16.77-.28,1.11-.36.35-.08.66-.12.95-.12.76,0,1.36.19,1.81.57.45.38.67.88.67,1.51,0,.3-.06.58-.17.85-.11.27-.32.58-.61.95-.08.09-.34.37-.78.82-.44.45-1.05,1.08-1.85,1.89Z"/>
            </g>
          </g>
        </g>
        <g id="ytick_3">
          <g id="line2d_8">
            <path id="maea3dd294e2" data-name="maea3dd294e" class="st5" d="M43.78,146.92h-3.5"/>
          </g>
          <g id="text_8">
            <g>
              <path id="DejaVuSans-303" data-name="DejaVuSans-30" d="M24.06,144.08c-.51,0-.89.25-1.15.75-.26.5-.38,1.25-.38,2.25s.13,1.75.38,2.25c.26.5.64.75,1.15.75s.89-.25,1.15-.75c.26-.5.38-1.25.38-2.25s-.13-1.75-.38-2.25c-.26-.5-.64-.75-1.15-.75ZM24.06,143.3c.82,0,1.44.32,1.87.97.43.65.65,1.58.65,2.81s-.22,2.16-.65,2.81c-.43.65-1.06.97-1.87.97s-1.44-.32-1.87-.97c-.43-.65-.65-1.58-.65-2.81s.22-2.17.65-2.81c.43-.65,1.06-.97,1.87-.97Z"/>
              <path id="DejaVuSans-2e2" data-name="DejaVuSans-2e" d="M28.31,149.48h1.03v1.24h-1.03v-1.24Z"/>
              <path id="DejaVuSans-34" d="M34.2,144.29l-2.49,3.89h2.49v-3.89ZM33.94,143.43h1.24v4.75h1.04v.82h-1.04v1.72h-.98v-1.72h-3.29v-.95l3.03-4.62Z"/>
            </g>
          </g>
        </g>
        <g id="ytick_4">
          <g id="line2d_9">
            <path id="maea3dd294e3" data-name="maea3dd294e" class="st5" d="M43.78,106.47h-3.5"/>
          </g>
          <g id="text_9">
            <g>
              <path id="DejaVuSans-304" data-name="DejaVuSans-30" d="M24.06,103.63c-.51,0-.89.25-1.15.75-.26.5-.38,1.25-.38,2.25s.13,1.75.38,2.25c.26.5.64.75,1.15.75s.89-.25,1.15-.75c.26-.5.38-1.25.38-2.25s-.13-1.75-.38-2.25c-.26-.5-.64-.75-1.15-.75ZM24.06,102.85c.82,0,1.44.32,1.87.97.43.65.65,1.58.65,2.81s-.22,2.16-.65,2.81c-.43.65-1.06.97-1.87.97s-1.44-.32-1.87-.97c-.43-.65-.65-1.58-.65-2.81s.22-2.17.65-2.81c.43-.65,1.06-.97,1.87-.97Z"/>
              <path id="DejaVuSans-2e3" data-name="DejaVuSans-2e" d="M28.31,109.03h1.03v1.24h-1.03v-1.24Z"/>
              <path id="DejaVuSans-36" d="M33.72,106.23c-.44,0-.79.15-1.05.45-.26.3-.39.72-.39,1.24s.13.94.39,1.24c.26.3.61.46,1.05.46s.79-.15,1.05-.46c.26-.31.39-.72.39-1.24s-.13-.94-.39-1.24c-.26-.3-.61-.45-1.05-.45ZM35.68,103.14v.9c-.25-.12-.5-.21-.75-.27-.25-.06-.5-.09-.75-.09-.65,0-1.15.22-1.49.66-.34.44-.54,1.1-.59,1.99.19-.28.43-.5.72-.65.29-.15.61-.23.96-.23.73,0,1.31.22,1.74.67.43.44.64,1.05.64,1.81s-.22,1.35-.66,1.8c-.44.45-1.03.68-1.77.68-.84,0-1.49-.32-1.93-.97-.45-.65-.67-1.58-.67-2.81,0-1.15.27-2.07.82-2.76.55-.69,1.28-1.03,2.2-1.03.25,0,.5.02.75.07s.52.12.79.22Z"/>
            </g>
          </g>
        </g>
        <g id="ytick_5">
          <g id="line2d_10">
            <path id="maea3dd294e4" data-name="maea3dd294e" class="st5" d="M43.78,66.02h-3.5"/>
          </g>
          <g id="text_10">
            <g>
              <path id="DejaVuSans-305" data-name="DejaVuSans-30" d="M24.06,63.18c-.51,0-.89.25-1.15.75-.26.5-.38,1.25-.38,2.25s.13,1.75.38,2.25c.26.5.64.75,1.15.75s.89-.25,1.15-.75c.26-.5.38-1.25.38-2.25s-.13-1.75-.38-2.25c-.26-.5-.64-.75-1.15-.75ZM24.06,62.4c.82,0,1.44.32,1.87.97.43.65.65,1.58.65,2.81s-.22,2.16-.65,2.81c-.43.65-1.06.97-1.87.97s-1.44-.32-1.87-.97c-.43-.65-.65-1.58-.65-2.81s.22-2.17.65-2.81c.43-.65,1.06-.97,1.87-.97Z"/>
              <path id="DejaVuSans-2e4" data-name="DejaVuSans-2e" d="M28.31,68.58h1.03v1.24h-1.03v-1.24Z"/>
              <path id="DejaVuSans-38" d="M33.6,66.36c-.47,0-.84.13-1.11.38-.27.25-.4.6-.4,1.03s.13.78.4,1.04c.27.25.64.38,1.11.38s.84-.13,1.11-.38c.27-.25.41-.6.41-1.03s-.13-.78-.4-1.03c-.27-.25-.64-.38-1.11-.38ZM32.61,65.94c-.42-.1-.75-.3-.99-.59-.24-.29-.35-.64-.35-1.06,0-.58.21-1.04.62-1.38.42-.34.98-.51,1.71-.51s1.3.17,1.71.51.62.8.62,1.38c0,.42-.12.77-.35,1.06-.24.29-.56.49-.98.59.48.11.84.33,1.11.65.27.32.4.72.4,1.18,0,.71-.22,1.25-.65,1.63-.43.38-1.05.57-1.85.57s-1.42-.19-1.85-.57c-.43-.38-.65-.92-.65-1.63,0-.46.13-.86.4-1.18.27-.32.64-.54,1.11-.65ZM32.25,64.38c0,.38.12.67.35.88.24.21.57.32.99.32s.76-.11.99-.32c.24-.21.36-.51.36-.88s-.12-.67-.36-.88c-.24-.21-.57-.32-.99-.32s-.76.11-.99.32c-.24.21-.35.51-.35.88Z"/>
            </g>
          </g>
        </g>
        <g id="ytick_6">
          <g id="line2d_11">
            <path id="maea3dd294e5" data-name="maea3dd294e" class="st5" d="M43.78,25.58h-3.5"/>
          </g>
          <g id="text_11">
            <g>
              <path id="DejaVuSans-31" d="M22.12,28.54h1.61v-5.56l-1.75.35v-.9l1.74-.35h.99v6.46h1.61v.83h-4.2v-.83Z"/>
              <path id="DejaVuSans-2e5" data-name="DejaVuSans-2e" d="M28.31,28.13h1.03v1.24h-1.03v-1.24Z"/>
              <path id="DejaVuSans-306" data-name="DejaVuSans-30" d="M33.6,22.73c-.51,0-.89.25-1.15.75-.26.5-.38,1.25-.38,2.25s.13,1.75.38,2.25c.26.5.64.75,1.15.75s.89-.25,1.15-.75c.26-.5.38-1.25.38-2.25s-.13-1.75-.38-2.25c-.26-.5-.64-.75-1.15-.75ZM33.6,21.95c.82,0,1.44.32,1.87.97.43.65.65,1.58.65,2.81s-.22,2.16-.65,2.81c-.43.65-1.06.97-1.87.97s-1.44-.32-1.87-.97c-.43-.65-.65-1.58-.65-2.81s.22-2.17.65-2.81c.43-.65,1.06-.97,1.87-.97Z"/>
            </g>
          </g>
        </g>
        <g id="text_12">
          <g>
            <path id="DejaVuSans-53" d="M7.75,154.17h.96c-.18.37-.31.73-.4,1.06-.09.33-.13.65-.13.96,0,.54.1.95.31,1.24.21.29.5.44.89.44.32,0,.57-.1.73-.29.16-.19.3-.56.4-1.1l.12-.6c.14-.74.39-1.28.74-1.63s.83-.53,1.42-.53c.71,0,1.24.24,1.61.71.36.47.55,1.17.55,2.08,0,.34-.04.71-.12,1.1-.08.39-.19.79-.35,1.21h-1.02c.22-.4.39-.79.51-1.18.11-.38.17-.76.17-1.13,0-.56-.11-1-.33-1.3-.22-.31-.54-.46-.95-.46-.36,0-.64.11-.84.33s-.35.58-.45,1.08l-.12.6c-.15.74-.38,1.27-.69,1.6-.31.33-.75.49-1.3.49-.64,0-1.15-.23-1.52-.68-.37-.45-.56-1.08-.56-1.88,0-.34.03-.69.09-1.05.06-.36.15-.72.28-1.09Z"/>
            <path id="DejaVuSans-6f1" data-name="DejaVuSans-6f" d="M9.96,150.11c0,.48.19.86.56,1.14s.89.42,1.55.42,1.17-.14,1.55-.42c.38-.28.56-.66.56-1.15s-.19-.86-.57-1.14c-.38-.28-.89-.42-1.54-.42s-1.16.14-1.54.42c-.38.28-.57.66-.57,1.14ZM9.2,150.11c0-.78.25-1.39.76-1.84.51-.45,1.21-.67,2.11-.67s1.6.22,2.11.67c.51.45.76,1.06.76,1.84s-.25,1.4-.76,1.84c-.51.44-1.21.67-2.11.67s-1.6-.22-2.11-.67c-.51-.44-.76-1.06-.76-1.84Z"/>
            <path id="DejaVuSans-62" d="M12.07,142.19c-.66,0-1.18.14-1.55.41s-.56.65-.56,1.12.19.85.56,1.12.89.41,1.55.41,1.18-.14,1.55-.41c.38-.27.56-.65.56-1.12s-.19-.85-.56-1.12c-.38-.27-.89-.41-1.55-.41ZM10.16,145.24c-.33-.19-.57-.43-.72-.72-.16-.29-.24-.63-.24-1.03,0-.66.26-1.2.79-1.62.53-.42,1.22-.62,2.08-.62s1.55.21,2.08.62c.53.41.79.95.79,1.62,0,.4-.08.74-.24,1.03-.16.29-.4.53-.73.72h.82v.9h-7.6v-.9h2.96Z"/>
            <path id="DejaVuSans-6f2" data-name="DejaVuSans-6f" d="M9.96,137.65c0,.48.19.86.56,1.14s.89.42,1.55.42,1.17-.14,1.55-.42c.38-.28.56-.66.56-1.15s-.19-.86-.57-1.14c-.38-.28-.89-.42-1.54-.42s-1.16.14-1.54.42c-.38.28-.57.66-.57,1.14ZM9.2,137.65c0-.78.25-1.39.76-1.84.51-.45,1.21-.67,2.11-.67s1.6.22,2.11.67c.51.45.76,1.06.76,1.84s-.25,1.4-.76,1.84c-.51.44-1.21.67-2.11.67s-1.6-.22-2.11-.67c-.51-.44-.76-1.06-.76-1.84Z"/>
            <path id="DejaVuSans-6c" d="M7.2,133.65v-.9h7.6v.9h-7.6Z"/>
            <path id="DejaVuSans-20" d="M14.8,131.81"/>
            <path id="DejaVuSans-49" d="M7.51,127.65v-.99h7.29v.99h-7.29Z"/>
            <path id="DejaVuSans-6e1" data-name="DejaVuSans-6e" d="M11.5,120.19h3.3v.9h-3.27c-.52,0-.9.1-1.16.3-.26.2-.39.5-.39.91,0,.49.15.87.46,1.15.31.28.73.42,1.26.42h3.09v.9h-5.47v-.9h.85c-.33-.22-.58-.47-.74-.76-.16-.29-.24-.63-.24-1.01,0-.63.19-1.1.58-1.43.39-.32.96-.48,1.72-.48Z"/>
            <path id="DejaVuSans-641" data-name="DejaVuSans-64" d="M10.16,114.81h-2.96v-.9h7.6v.9h-.82c.33.19.57.43.73.72.16.29.24.63.24,1.04,0,.66-.26,1.2-.79,1.61-.53.41-1.22.62-2.08.62s-1.55-.21-2.08-.62c-.53-.42-.79-.95-.79-1.61,0-.4.08-.75.24-1.04.16-.29.4-.53.72-.72ZM12.07,117.87c.66,0,1.18-.14,1.55-.41.38-.27.56-.65.56-1.12s-.19-.85-.56-1.12c-.38-.27-.89-.41-1.55-.41s-1.18.14-1.55.41c-.38.27-.56.65-.56,1.12s.19.85.56,1.12.89.41,1.55.41Z"/>
            <path id="DejaVuSans-652" data-name="DejaVuSans-65" d="M11.84,107.38h.44v4.13c.62-.04,1.09-.23,1.41-.56.32-.33.49-.8.49-1.39,0-.34-.04-.68-.13-1s-.21-.65-.38-.97h.85c.14.32.24.65.31.99s.11.68.11,1.03c0,.87-.25,1.56-.76,2.07-.51.51-1.2.76-2.06.76s-1.6-.24-2.13-.73c-.53-.48-.79-1.14-.79-1.96,0-.74.24-1.32.71-1.75.47-.43,1.12-.64,1.93-.64ZM11.58,108.28c-.49,0-.88.14-1.18.41-.29.27-.44.62-.44,1.07,0,.5.14.9.43,1.2s.68.47,1.2.52v-3.2Z"/>
            <path id="DejaVuSans-78" d="M9.33,101.53l2.66,1.98,2.81-2.08v1.06l-2.15,1.59,2.15,1.59v1.06l-2.86-2.13-2.61,1.94v-1.06l1.95-1.45-1.95-1.45v-1.06Z"/>
          </g>
        </g>
      </g>
      <g id="LineCollection_1">
        <g class="st14">
          <path class="st3" d="M73.4,228.06v-.57"/>
        </g>
        <g class="st11">
          <path class="st3" d="M145.64,228.2v-1.63"/>
        </g>
        <g class="st18">
          <path class="st3" d="M217.88,207.54v-36.64"/>
        </g>
        <g class="st16">
          <path class="st3" d="M290.12,228.48v-1.27"/>
        </g>
        <g class="st17">
          <path class="st3" d="M362.36,189.18v-33.66"/>
        </g>
      </g>
      <g id="line2d_12">
        <g class="st15">
          <g>
            <path id="m8e40d8b62a" class="st4" d="M77.4,228.06h-8"/>
            <path id="m8e40d8b62a1" data-name="m8e40d8b62a" class="st4" d="M149.64,228.2h-8"/>
            <path id="m8e40d8b62a2" data-name="m8e40d8b62a" class="st4" d="M221.88,207.54h-8"/>
            <path id="m8e40d8b62a3" data-name="m8e40d8b62a" class="st4" d="M294.12,228.48h-8"/>
            <path id="m8e40d8b62a4" data-name="m8e40d8b62a" class="st4" d="M366.36,189.18h-8"/>
          </g>
        </g>
      </g>
      <g id="line2d_13">
        <g class="st12">
          <g>
            <path id="m8e40d8b62a5" data-name="m8e40d8b62a" class="st4" d="M77.4,227.49h-8"/>
            <path id="m8e40d8b62a6" data-name="m8e40d8b62a" class="st4" d="M149.64,226.57h-8"/>
            <path id="m8e40d8b62a7" data-name="m8e40d8b62a" class="st4" d="M221.88,170.89h-8"/>
            <path id="m8e40d8b62a8" data-name="m8e40d8b62a" class="st4" d="M294.12,227.22h-8"/>
            <path id="m8e40d8b62a9" data-name="m8e40d8b62a" class="st4" d="M366.36,155.52h-8"/>
          </g>
        </g>
      </g>
      <g id="LineCollection_2">
        <g class="st9">
          <path class="st3" d="M98.68,227.74v-.04"/>
        </g>
        <g class="st13">
          <path class="st3" d="M170.92,227.55v-.2"/>
        </g>
        <g class="st10">
          <path class="st3" d="M243.16,110.21v-50.93"/>
        </g>
        <g class="st19">
          <path class="st3" d="M315.4,227.64v-.09"/>
        </g>
        <g class="st20">
          <path class="st3" d="M387.64,87.96v-55.83"/>
        </g>
      </g>
      <g id="line2d_14">
        <g class="st21">
          <g>
            <path id="m8e40d8b62a10" data-name="m8e40d8b62a" class="st4" d="M102.68,227.74h-8"/>
            <path id="m8e40d8b62a11" data-name="m8e40d8b62a" class="st4" d="M174.92,227.55h-8"/>
            <path id="m8e40d8b62a12" data-name="m8e40d8b62a" class="st4" d="M247.16,110.21h-8"/>
            <path id="m8e40d8b62a13" data-name="m8e40d8b62a" class="st4" d="M319.4,227.64h-8"/>
            <path id="m8e40d8b62a14" data-name="m8e40d8b62a" class="st4" d="M391.64,87.96h-8"/>
          </g>
        </g>
      </g>
      <g id="line2d_15">
        <g class="st22">
          <g>
            <path id="m8e40d8b62a15" data-name="m8e40d8b62a" class="st4" d="M102.68,227.7h-8"/>
            <path id="m8e40d8b62a16" data-name="m8e40d8b62a" class="st4" d="M174.92,227.35h-8"/>
            <path id="m8e40d8b62a17" data-name="m8e40d8b62a" class="st4" d="M247.16,59.28h-8"/>
            <path id="m8e40d8b62a18" data-name="m8e40d8b62a" class="st4" d="M319.4,227.55h-8"/>
            <path id="m8e40d8b62a19" data-name="m8e40d8b62a" class="st4" d="M391.64,32.14h-8"/>
          </g>
        </g>
      </g>
      <g id="line2d_16">
        <g class="st23">
          <path class="st1" d="M43.78,227.81h373.48"/>
        </g>
      </g>
      <g id="patch_13">
        <path class="st2" d="M43.78,238.3V22.32"/>
      </g>
      <g id="patch_14">
        <path class="st2" d="M417.26,238.3V22.32"/>
      </g>
      <g id="patch_15">
        <path class="st2" d="M43.78,238.3h373.48"/>
      </g>
      <g id="patch_16">
        <path class="st2" d="M43.78,22.32h373.48"/>
      </g>
      <g id="text_13">
        <g>
          <path id="DejaVuSans-531" data-name="DejaVuSans-53" d="M156.18,7.86v1.15c-.45-.22-.87-.37-1.27-.48-.4-.11-.78-.16-1.15-.16-.64,0-1.14.12-1.49.37-.35.25-.52.61-.52,1.07,0,.39.12.68.35.88.23.2.67.35,1.32.48l.71.15c.88.17,1.53.46,1.95.89s.63.99.63,1.7c0,.85-.28,1.49-.85,1.93-.57.44-1.4.66-2.5.66-.41,0-.85-.05-1.32-.14-.47-.09-.95-.23-1.45-.42v-1.22c.48.27.95.47,1.41.61.46.14.91.2,1.36.2.67,0,1.2-.13,1.56-.4.37-.27.55-.65.55-1.14,0-.43-.13-.76-.4-1.01s-.7-.42-1.3-.55l-.72-.14c-.88-.17-1.52-.45-1.92-.82-.39-.37-.59-.9-.59-1.57,0-.77.27-1.38.82-1.83.54-.45,1.3-.67,2.25-.67.41,0,.83.04,1.25.11.43.07.86.18,1.31.33Z"/>
          <path id="DejaVuSans-6f3" data-name="DejaVuSans-6f" d="M161.05,10.51c-.58,0-1.03.23-1.37.68s-.5,1.07-.5,1.85.17,1.4.5,1.85c.33.45.79.68,1.37.68s1.03-.23,1.36-.68c.34-.45.5-1.07.5-1.85s-.17-1.39-.5-1.85c-.34-.46-.79-.68-1.36-.68ZM161.05,9.6c.94,0,1.67.31,2.21.91.54.61.8,1.45.8,2.53s-.27,1.92-.8,2.53c-.53.61-1.27.92-2.21.92s-1.68-.31-2.21-.92c-.53-.61-.8-1.46-.8-2.53s.27-1.92.8-2.53c.53-.61,1.27-.91,2.21-.91Z"/>
          <path id="DejaVuSans-621" data-name="DejaVuSans-62" d="M170.56,13.04c0-.79-.16-1.41-.49-1.87s-.77-.68-1.34-.68-1.02.23-1.35.68-.49,1.07-.49,1.87.16,1.41.49,1.87c.33.45.78.68,1.35.68s1.02-.23,1.34-.68c.33-.45.49-1.07.49-1.87ZM166.89,10.75c.23-.39.51-.68.86-.87.35-.19.76-.28,1.24-.28.8,0,1.45.32,1.94.95.5.63.75,1.46.75,2.5s-.25,1.86-.75,2.5c-.5.63-1.15.95-1.94.95-.48,0-.89-.1-1.24-.28-.34-.19-.63-.48-.86-.87v.98h-1.08V7.2h1.08v3.55Z"/>
          <path id="DejaVuSans-6f4" data-name="DejaVuSans-6f" d="M176.01,10.51c-.58,0-1.03.23-1.37.68s-.5,1.07-.5,1.85.17,1.4.5,1.85c.33.45.79.68,1.37.68s1.03-.23,1.36-.68c.34-.45.5-1.07.5-1.85s-.17-1.39-.5-1.85c-.34-.46-.79-.68-1.36-.68ZM176.01,9.6c.94,0,1.67.31,2.21.91.54.61.8,1.45.8,2.53s-.27,1.92-.8,2.53c-.53.61-1.27.92-2.21.92s-1.68-.31-2.21-.92c-.53-.61-.8-1.46-.8-2.53s.27-1.92.8-2.53c.53-.61,1.27-.91,2.21-.91Z"/>
          <path id="DejaVuSans-6c1" data-name="DejaVuSans-6c" d="M180.81,7.2h1.08v9.12h-1.08V7.2Z"/>
          <path id="DejaVuSans-201" data-name="DejaVuSans-20" d="M183.01,16.32"/>
          <path id="DejaVuSans-532" data-name="DejaVuSans-53" d="M193.25,7.86v1.15c-.45-.22-.87-.37-1.27-.48-.4-.11-.78-.16-1.15-.16-.64,0-1.14.12-1.49.37-.35.25-.52.61-.52,1.07,0,.39.12.68.35.88.23.2.67.35,1.32.48l.71.15c.88.17,1.53.46,1.95.89s.63.99.63,1.7c0,.85-.28,1.49-.85,1.93-.57.44-1.4.66-2.5.66-.41,0-.85-.05-1.32-.14-.47-.09-.95-.23-1.45-.42v-1.22c.48.27.95.47,1.41.61.46.14.91.2,1.36.2.67,0,1.2-.13,1.56-.4.37-.27.55-.65.55-1.14,0-.43-.13-.76-.4-1.01s-.7-.42-1.3-.55l-.72-.14c-.88-.17-1.52-.45-1.92-.82-.39-.37-.59-.9-.59-1.57,0-.77.27-1.38.82-1.83.54-.45,1.3-.67,2.25-.67.41,0,.83.04,1.25.11.43.07.86.18,1.31.33Z"/>
          <path id="DejaVuSans-653" data-name="DejaVuSans-65" d="M201.19,12.77v.53h-4.96c.05.74.27,1.31.67,1.7.4.39.96.58,1.67.58.41,0,.82-.05,1.2-.15s.77-.25,1.16-.46v1.02c-.39.16-.78.29-1.19.37s-.82.13-1.24.13c-1.05,0-1.88-.3-2.49-.91-.61-.61-.92-1.44-.92-2.47s.29-1.93.87-2.56c.58-.63,1.36-.95,2.35-.95.88,0,1.58.28,2.09.85.51.57.77,1.34.77,2.32ZM200.11,12.45c0-.59-.17-1.06-.49-1.41-.32-.35-.75-.53-1.28-.53-.6,0-1.08.17-1.44.51s-.57.82-.62,1.44h3.84Z"/>
          <path id="DejaVuSans-6e2" data-name="DejaVuSans-6e" d="M208.42,12.36v3.96h-1.08v-3.93c0-.62-.12-1.09-.36-1.39-.24-.31-.61-.46-1.09-.46-.58,0-1.04.19-1.38.56-.34.37-.5.88-.5,1.52v3.71h-1.08v-6.56h1.08v1.02c.26-.4.56-.69.91-.88.35-.19.75-.29,1.21-.29.75,0,1.32.23,1.71.7.39.47.58,1.15.58,2.06Z"/>
          <path id="DejaVuSans-731" data-name="DejaVuSans-73" d="M214.75,9.95v1.02c-.3-.16-.62-.27-.95-.35-.33-.08-.67-.12-1.02-.12-.54,0-.94.08-1.2.25-.27.16-.4.41-.4.74,0,.25.1.45.29.59s.58.28,1.15.41l.37.08c.76.16,1.31.39,1.63.69s.48.72.48,1.25c0,.61-.24,1.09-.72,1.45-.48.35-1.15.53-1.99.53-.35,0-.72-.03-1.1-.1-.38-.07-.78-.17-1.2-.31v-1.11c.4.21.79.36,1.18.47.39.1.77.15,1.15.15.51,0,.9-.09,1.17-.26.27-.17.41-.42.41-.73,0-.29-.1-.52-.3-.67-.2-.16-.63-.31-1.3-.45l-.37-.09c-.67-.14-1.15-.36-1.45-.65-.3-.29-.44-.69-.44-1.2,0-.62.22-1.09.66-1.43.44-.34,1.06-.5,1.86-.5.4,0,.77.03,1.12.09.35.06.68.14.97.26Z"/>
          <path id="DejaVuSans-692" data-name="DejaVuSans-69" d="M216.82,9.76h1.08v6.56h-1.08v-6.56ZM216.82,7.2h1.08v1.37h-1.08v-1.37Z"/>
          <path id="DejaVuSans-74" d="M221.22,7.89v1.86h2.22v.84h-2.22v3.56c0,.53.07.88.22,1.03s.44.23.89.23h1.11v.9h-1.11c-.83,0-1.41-.15-1.72-.46-.32-.31-.47-.88-.47-1.7v-3.56h-.79v-.84h.79v-1.86h1.08Z"/>
          <path id="DejaVuSans-693" data-name="DejaVuSans-69" d="M224.86,9.76h1.08v6.56h-1.08v-6.56ZM224.86,7.2h1.08v1.37h-1.08v-1.37Z"/>
          <path id="DejaVuSans-761" data-name="DejaVuSans-76" d="M227.42,9.76h1.14l2.05,5.51,2.05-5.51h1.14l-2.46,6.56h-1.46l-2.46-6.56Z"/>
          <path id="DejaVuSans-694" data-name="DejaVuSans-69" d="M235.29,9.76h1.08v6.56h-1.08v-6.56ZM235.29,7.2h1.08v1.37h-1.08v-1.37Z"/>
          <path id="DejaVuSans-741" data-name="DejaVuSans-74" d="M239.69,7.89v1.86h2.22v.84h-2.22v3.56c0,.53.07.88.22,1.03s.44.23.89.23h1.11v.9h-1.11c-.83,0-1.41-.15-1.72-.46-.32-.31-.47-.88-.47-1.7v-3.56h-.79v-.84h.79v-1.86h1.08Z"/>
          <path id="DejaVuSans-79" d="M246.06,16.93c-.3.78-.6,1.29-.89,1.53-.29.24-.67.36-1.16.36h-.86v-.9h.63c.3,0,.53-.07.69-.21.16-.14.35-.47.55-1l.19-.49-2.65-6.46h1.14l2.05,5.13,2.05-5.13h1.14l-2.88,7.17Z"/>
          <path id="DejaVuSans-202" data-name="DejaVuSans-20" d="M249.3,16.32"/>
          <path id="DejaVuSans-2014" d="M253.7,12.61h10.83v.84h-10.83v-.84Z"/>
          <path id="DejaVuSans-203" data-name="DejaVuSans-20" d="M265.12,16.32"/>
          <path id="DejaVuSans-6f5" data-name="DejaVuSans-6f" d="M272.6,10.51c-.58,0-1.03.23-1.37.68s-.5,1.07-.5,1.85.17,1.4.5,1.85c.33.45.79.68,1.37.68s1.03-.23,1.36-.68c.34-.45.5-1.07.5-1.85s-.17-1.39-.5-1.85c-.34-.46-.79-.68-1.36-.68ZM272.6,9.6c.94,0,1.67.31,2.21.91.54.61.8,1.45.8,2.53s-.27,1.92-.8,2.53c-.53.61-1.27.92-2.21.92s-1.68-.31-2.21-.92c-.53-.61-.8-1.46-.8-2.53s.27-1.92.8-2.53c.53-.61,1.27-.91,2.21-.91Z"/>
          <path id="DejaVuSans-622" data-name="DejaVuSans-62" d="M282.11,13.04c0-.79-.16-1.41-.49-1.87s-.77-.68-1.34-.68-1.02.23-1.35.68-.49,1.07-.49,1.87.16,1.41.49,1.87c.33.45.78.68,1.35.68s1.02-.23,1.34-.68c.33-.45.49-1.07.49-1.87ZM278.45,10.75c.23-.39.51-.68.86-.87.35-.19.76-.28,1.24-.28.8,0,1.45.32,1.94.95.5.63.75,1.46.75,2.5s-.25,1.86-.75,2.5c-.5.63-1.15.95-1.94.95-.48,0-.89-.1-1.24-.28-.34-.19-.63-.48-.86-.87v.98h-1.08V7.2h1.08v3.55Z"/>
          <path id="DejaVuSans-6a" d="M285.02,9.76h1.08v6.68c0,.84-.16,1.44-.48,1.81-.32.37-.83.56-1.54.56h-.41v-.91h.29c.41,0,.69-.1.84-.28.15-.19.22-.58.22-1.18v-6.68ZM285.02,7.2h1.08v1.37h-1.08v-1.37Z"/>
          <path id="DejaVuSans-5f5" data-name="DejaVuSans-5f" d="M293.34,18.31v.84h-6.24v-.84h6.24Z"/>
          <path id="DejaVuSans-642" data-name="DejaVuSans-64" d="M298.67,10.75v-3.55h1.08v9.12h-1.08v-.98c-.23.39-.51.68-.86.87-.34.19-.76.28-1.24.28-.79,0-1.44-.32-1.94-.95-.5-.63-.75-1.47-.75-2.5s.25-1.86.75-2.5c.5-.63,1.14-.95,1.94-.95.48,0,.9.1,1.24.28.35.19.63.48.86.87ZM295,13.04c0,.79.16,1.41.49,1.87.33.45.77.68,1.34.68s1.02-.23,1.35-.68c.33-.45.49-1.07.49-1.87s-.16-1.41-.49-1.87c-.33-.45-.78-.68-1.35-.68s-1.02.23-1.34.68-.49,1.07-.49,1.87Z"/>
          <path id="DejaVuSans-695" data-name="DejaVuSans-69" d="M301.97,9.76h1.08v6.56h-1.08v-6.56ZM301.97,7.2h1.08v1.37h-1.08v-1.37Z"/>
          <path id="DejaVuSans-762" data-name="DejaVuSans-76" d="M304.53,9.76h1.14l2.05,5.51,2.05-5.51h1.14l-2.46,6.56h-1.46l-2.46-6.56Z"/>
        </g>
      </g>
      <g id="legend_1">
        <g id="patch_17">
          <path class="st6" d="M50.78,59.67h108.77c1.33,0,2-.67,2-2v-28.36c0-1.33-.67-2-2-2H50.78c-1.33,0-2,.67-2,2v28.36c0,1.33.67,2,2,2Z"/>
        </g>
        <g id="patch_18">
          <path class="st8" d="M52.78,38.92h20v-7h-20v7Z"/>
        </g>
        <g id="text_14">
          <g>
            <path id="DejaVuSans-533" data-name="DejaVuSans-53" d="M86.13,31.87v.96c-.37-.18-.73-.31-1.06-.4-.33-.09-.65-.13-.96-.13-.54,0-.95.1-1.24.31-.29.21-.44.5-.44.89,0,.32.1.57.29.73.19.16.56.3,1.1.4l.6.12c.74.14,1.28.39,1.63.74s.53.83.53,1.42c0,.71-.24,1.24-.71,1.61-.47.36-1.17.55-2.08.55-.34,0-.71-.04-1.1-.12-.39-.08-.79-.19-1.21-.35v-1.02c.4.22.79.39,1.18.51.38.11.76.17,1.13.17.56,0,1-.11,1.3-.33.31-.22.46-.54.46-.95,0-.36-.11-.64-.33-.84s-.58-.35-1.08-.45l-.6-.12c-.74-.15-1.27-.38-1.6-.69-.33-.31-.49-.75-.49-1.3,0-.64.23-1.15.68-1.52.45-.37,1.08-.56,1.88-.56.34,0,.69.03,1.05.09.36.06.72.15,1.09.28Z"/>
            <path id="DejaVuSans-311" data-name="DejaVuSans-31" d="M88.37,38.09h1.61v-5.56l-1.75.35v-.9l1.74-.35h.99v6.46h1.61v.83h-4.2v-.83Z"/>
            <path id="DejaVuSans-204" data-name="DejaVuSans-20" d="M93.49,38.92"/>
            <path id="DejaVuSans-28" d="M99.77,31.33c-.44.75-.76,1.49-.97,2.22-.21.73-.32,1.47-.32,2.23s.11,1.5.32,2.23.54,1.48.97,2.23h-.78c-.49-.77-.85-1.52-1.1-2.26-.24-.74-.36-1.47-.36-2.2s.12-1.46.36-2.19c.24-.74.61-1.49,1.1-2.26h.78Z"/>
            <path id="DejaVuSans-662" data-name="DejaVuSans-66" d="M104.28,31.32v.75h-.86c-.32,0-.55.07-.67.2-.13.13-.19.36-.19.7v.48h1.48v.7h-1.48v4.77h-.9v-4.77h-.86v-.7h.86v-.38c0-.61.14-1.05.43-1.33.28-.28.73-.42,1.35-.42h.85Z"/>
            <path id="DejaVuSans-696" data-name="DejaVuSans-69" d="M105.03,33.45h.9v5.47h-.9v-5.47ZM105.03,31.32h.9v1.14h-.9v-1.14Z"/>
            <path id="DejaVuSans-72" d="M110.98,34.29c-.1-.06-.21-.1-.33-.13-.12-.03-.25-.04-.39-.04-.51,0-.9.17-1.17.5s-.41.8-.41,1.42v2.88h-.9v-5.47h.9v.85c.19-.33.44-.58.74-.74.3-.16.67-.24,1.1-.24.06,0,.13,0,.2.01.08,0,.16.02.25.04v.92Z"/>
            <path id="DejaVuSans-732" data-name="DejaVuSans-73" d="M115.41,33.61v.85c-.25-.13-.52-.23-.79-.29-.27-.07-.56-.1-.85-.1-.45,0-.78.07-1,.2-.22.14-.33.34-.33.62,0,.21.08.37.24.49s.48.23.96.34l.31.07c.64.14,1.09.33,1.36.58s.4.6.4,1.04c0,.51-.2.91-.6,1.21-.4.3-.95.44-1.66.44-.29,0-.6-.03-.92-.09-.32-.06-.65-.14-1-.26v-.93c.33.17.66.3.98.39.32.09.64.13.96.13.42,0,.75-.07.98-.22.23-.14.34-.35.34-.61,0-.24-.08-.43-.25-.56-.16-.13-.52-.26-1.08-.38l-.31-.07c-.56-.12-.96-.3-1.21-.54-.25-.24-.37-.58-.37-1,0-.51.18-.91.55-1.19.36-.28.88-.42,1.55-.42.33,0,.64.02.94.07.29.05.56.12.81.22Z"/>
            <path id="DejaVuSans-742" data-name="DejaVuSans-74" d="M118.02,31.89v1.55h1.85v.7h-1.85v2.97c0,.45.06.73.18.86s.37.19.75.19h.92v.75h-.92c-.69,0-1.17-.13-1.44-.39-.26-.26-.4-.73-.4-1.41v-2.97h-.66v-.7h.66v-1.55h.9Z"/>
            <path id="DejaVuSans-2d" d="M120.6,35.78h2.63v.8h-2.63v-.8Z"/>
            <path id="DejaVuSans-6f6" data-name="DejaVuSans-6f" d="M126.97,34.08c-.48,0-.86.19-1.14.56s-.42.89-.42,1.55.14,1.17.42,1.55c.28.38.66.56,1.15.56s.86-.19,1.14-.57c.28-.38.42-.89.42-1.54s-.14-1.16-.42-1.54c-.28-.38-.66-.57-1.14-.57ZM126.97,33.32c.78,0,1.39.25,1.84.76.45.51.67,1.21.67,2.11s-.22,1.6-.67,2.11c-.45.51-1.06.76-1.84.76s-1.4-.25-1.84-.76c-.44-.51-.67-1.21-.67-2.11s.22-1.6.67-2.11c.44-.51,1.06-.76,1.84-.76Z"/>
            <path id="DejaVuSans-721" data-name="DejaVuSans-72" d="M134.14,34.29c-.1-.06-.21-.1-.33-.13-.12-.03-.25-.04-.39-.04-.51,0-.9.17-1.17.5s-.41.8-.41,1.42v2.88h-.9v-5.47h.9v.85c.19-.33.44-.58.74-.74.3-.16.67-.24,1.1-.24.06,0,.13,0,.2.01.08,0,.16.02.25.04v.92Z"/>
            <path id="DejaVuSans-643" data-name="DejaVuSans-64" d="M138.5,34.28v-2.96h.9v7.6h-.9v-.82c-.19.33-.43.57-.72.73-.29.16-.63.24-1.04.24-.66,0-1.2-.26-1.61-.79-.41-.53-.62-1.22-.62-2.08s.21-1.55.62-2.08c.42-.53.95-.79,1.61-.79.4,0,.75.08,1.04.24.29.16.53.4.72.72ZM135.44,36.19c0,.66.14,1.18.41,1.55.27.38.65.56,1.12.56s.85-.19,1.12-.56c.27-.38.41-.89.41-1.55s-.14-1.18-.41-1.55c-.27-.38-.65-.56-1.12-.56s-.85.19-1.12.56-.41.89-.41,1.55Z"/>
            <path id="DejaVuSans-654" data-name="DejaVuSans-65" d="M145.93,35.96v.44h-4.13c.04.62.23,1.09.56,1.41.33.32.8.49,1.39.49.34,0,.68-.04,1-.13s.65-.21.97-.38v.85c-.32.14-.65.24-.99.31s-.68.11-1.03.11c-.87,0-1.56-.25-2.07-.76-.51-.51-.76-1.2-.76-2.06s.24-1.6.73-2.13c.48-.53,1.14-.79,1.96-.79.74,0,1.32.24,1.75.71.43.47.64,1.12.64,1.93ZM145.03,35.69c0-.49-.14-.88-.41-1.18-.27-.29-.62-.44-1.07-.44-.5,0-.9.14-1.2.43s-.47.68-.52,1.2h3.2Z"/>
            <path id="DejaVuSans-722" data-name="DejaVuSans-72" d="M150.57,34.29c-.1-.06-.21-.1-.33-.13-.12-.03-.25-.04-.39-.04-.51,0-.9.17-1.17.5s-.41.8-.41,1.42v2.88h-.9v-5.47h.9v.85c.19-.33.44-.58.74-.74.3-.16.67-.24,1.1-.24.06,0,.13,0,.2.01.08,0,.16.02.25.04v.92Z"/>
            <path id="DejaVuSans-29" d="M151.38,31.33h.78c.49.77.85,1.52,1.1,2.26.24.74.36,1.47.36,2.19s-.12,1.46-.36,2.2c-.24.74-.61,1.49-1.1,2.26h-.78c.43-.75.76-1.49.97-2.23.21-.74.32-1.48.32-2.23s-.11-1.49-.32-2.23c-.21-.73-.54-1.47-.97-2.22Z"/>
          </g>
        </g>
        <g id="patch_19">
          <path class="st7" d="M52.78,53.59h20v-7h-20v7Z"/>
        </g>
        <g id="text_15">
          <g>
            <path id="DejaVuSans-534" data-name="DejaVuSans-53" d="M86.13,46.54v.96c-.37-.18-.73-.31-1.06-.4-.33-.09-.65-.13-.96-.13-.54,0-.95.1-1.24.31-.29.21-.44.5-.44.89,0,.32.1.57.29.73.19.16.56.3,1.1.4l.6.12c.74.14,1.28.39,1.63.74s.53.83.53,1.42c0,.71-.24,1.24-.71,1.61-.47.36-1.17.55-2.08.55-.34,0-.71-.04-1.1-.12-.39-.08-.79-.19-1.21-.35v-1.02c.4.22.79.39,1.18.51.38.11.76.17,1.13.17.56,0,1-.11,1.3-.33.31-.22.46-.54.46-.95,0-.36-.11-.64-.33-.84s-.58-.35-1.08-.45l-.6-.12c-.74-.15-1.27-.38-1.6-.69-.33-.31-.49-.75-.49-1.3,0-.64.23-1.15.68-1.52.45-.37,1.08-.56,1.88-.56.34,0,.69.03,1.05.09.36.06.72.15,1.09.28Z"/>
            <path id="DejaVuSans-54" d="M87.1,46.3h6.17v.83h-2.59v6.46h-.99v-6.46h-2.59v-.83Z"/>
            <path id="DejaVuSans-205" data-name="DejaVuSans-20" d="M93.24,53.59"/>
            <path id="DejaVuSans-281" data-name="DejaVuSans-28" d="M99.52,46.01c-.44.75-.76,1.49-.97,2.22-.21.73-.32,1.47-.32,2.23s.11,1.5.32,2.23.54,1.48.97,2.23h-.78c-.49-.77-.85-1.52-1.1-2.26-.24-.74-.36-1.47-.36-2.2s.12-1.46.36-2.19c.24-.74.61-1.49,1.1-2.26h.78Z"/>
            <path id="DejaVuSans-743" data-name="DejaVuSans-74" d="M102.15,46.57v1.55h1.85v.7h-1.85v2.97c0,.45.06.73.18.86s.37.19.75.19h.92v.75h-.92c-.69,0-1.17-.13-1.44-.39-.26-.26-.4-.73-.4-1.41v-2.97h-.66v-.7h.66v-1.55h.9Z"/>
            <path id="DejaVuSans-6f7" data-name="DejaVuSans-6f" d="M107.3,48.76c-.48,0-.86.19-1.14.56s-.42.89-.42,1.55.14,1.17.42,1.55c.28.38.66.56,1.15.56s.86-.19,1.14-.57c.28-.38.42-.89.42-1.54s-.14-1.16-.42-1.54c-.28-.38-.66-.57-1.14-.57ZM107.3,47.99c.78,0,1.39.25,1.84.76.45.51.67,1.21.67,2.11s-.22,1.6-.67,2.11c-.45.51-1.06.76-1.84.76s-1.4-.25-1.84-.76c-.44-.51-.67-1.21-.67-2.11s.22-1.6.67-2.11c.44-.51,1.06-.76,1.84-.76Z"/>
            <path id="DejaVuSans-744" data-name="DejaVuSans-74" d="M112.19,46.57v1.55h1.85v.7h-1.85v2.97c0,.45.06.73.18.86s.37.19.75.19h.92v.75h-.92c-.69,0-1.17-.13-1.44-.39-.26-.26-.4-.73-.4-1.41v-2.97h-.66v-.7h.66v-1.55h.9Z"/>
            <path id="DejaVuSans-61" d="M117.71,50.85c-.73,0-1.23.08-1.51.25s-.42.45-.42.85c0,.32.11.57.32.76.21.19.5.28.86.28.5,0,.9-.18,1.2-.53s.45-.82.45-1.41v-.2h-.89ZM119.5,50.47v3.12h-.9v-.83c-.21.33-.46.58-.77.73-.31.16-.68.24-1.12.24-.56,0-1-.16-1.34-.47-.33-.31-.5-.74-.5-1.26,0-.61.21-1.08.62-1.39.41-.31,1.03-.47,1.84-.47h1.26v-.09c0-.41-.14-.73-.41-.96s-.65-.34-1.15-.34c-.31,0-.62.04-.91.11-.3.08-.58.19-.85.34v-.83c.33-.13.65-.22.96-.28.31-.06.61-.1.9-.1.79,0,1.38.21,1.77.62.39.41.59,1.03.59,1.86Z"/>
            <path id="DejaVuSans-6c2" data-name="DejaVuSans-6c" d="M121.35,46h.9v7.6h-.9v-7.6Z"/>
            <path id="DejaVuSans-2d1" data-name="DejaVuSans-2d" d="M123.67,50.46h2.63v.8h-2.63v-.8Z"/>
            <path id="DejaVuSans-6f8" data-name="DejaVuSans-6f" d="M130.04,48.76c-.48,0-.86.19-1.14.56s-.42.89-.42,1.55.14,1.17.42,1.55c.28.38.66.56,1.15.56s.86-.19,1.14-.57c.28-.38.42-.89.42-1.54s-.14-1.16-.42-1.54c-.28-.38-.66-.57-1.14-.57ZM130.04,47.99c.78,0,1.39.25,1.84.76.45.51.67,1.21.67,2.11s-.22,1.6-.67,2.11c-.45.51-1.06.76-1.84.76s-1.4-.25-1.84-.76c-.44-.51-.67-1.21-.67-2.11s.22-1.6.67-2.11c.44-.51,1.06-.76,1.84-.76Z"/>
            <path id="DejaVuSans-723" data-name="DejaVuSans-72" d="M137.21,48.96c-.1-.06-.21-.1-.33-.13-.12-.03-.25-.04-.39-.04-.51,0-.9.17-1.17.5s-.41.8-.41,1.42v2.88h-.9v-5.47h.9v.85c.19-.33.44-.58.74-.74.3-.16.67-.24,1.1-.24.06,0,.13,0,.2.01.08,0,.16.02.25.04v.92Z"/>
            <path id="DejaVuSans-644" data-name="DejaVuSans-64" d="M141.57,48.96v-2.96h.9v7.6h-.9v-.82c-.19.33-.43.57-.72.73-.29.16-.63.24-1.04.24-.66,0-1.2-.26-1.61-.79-.41-.53-.62-1.22-.62-2.08s.21-1.55.62-2.08c.42-.53.95-.79,1.61-.79.4,0,.75.08,1.04.24.29.16.53.4.72.72ZM138.51,50.86c0,.66.14,1.18.41,1.55.27.38.65.56,1.12.56s.85-.19,1.12-.56c.27-.38.41-.89.41-1.55s-.14-1.18-.41-1.55c-.27-.38-.65-.56-1.12-.56s-.85.19-1.12.56-.41.89-.41,1.55Z"/>
            <path id="DejaVuSans-655" data-name="DejaVuSans-65" d="M149,50.64v.44h-4.13c.04.62.23,1.09.56,1.41.33.32.8.49,1.39.49.34,0,.68-.04,1-.13s.65-.21.97-.38v.85c-.32.14-.65.24-.99.31s-.68.11-1.03.11c-.87,0-1.56-.25-2.07-.76-.51-.51-.76-1.2-.76-2.06s.24-1.6.73-2.13c.48-.53,1.14-.79,1.96-.79.74,0,1.32.24,1.75.71.43.47.64,1.12.64,1.93ZM148.1,50.37c0-.49-.14-.88-.41-1.18-.27-.29-.62-.44-1.07-.44-.5,0-.9.14-1.2.43s-.47.68-.52,1.2h3.2Z"/>
            <path id="DejaVuSans-724" data-name="DejaVuSans-72" d="M153.64,48.96c-.1-.06-.21-.1-.33-.13-.12-.03-.25-.04-.39-.04-.51,0-.9.17-1.17.5s-.41.8-.41,1.42v2.88h-.9v-5.47h.9v.85c.19-.33.44-.58.74-.74.3-.16.67-.24,1.1-.24.06,0,.13,0,.2.01.08,0,.16.02.25.04v.92Z"/>
            <path id="DejaVuSans-291" data-name="DejaVuSans-29" d="M154.45,46.01h.78c.49.77.85,1.52,1.1,2.26.24.74.36,1.47.36,2.19s-.12,1.46-.36,2.2c-.24.74-.61,1.49-1.1,2.26h-.78c.43-.75.76-1.49.97-2.23.21-.74.32-1.48.32-2.23s-.11-1.49-.32-2.23c-.21-.73-.54-1.47-.97-2.22Z"/>
          </g>
        </g>
      </g>
    </g>
  </g>
</svg>