<svg xmlns="http://www.w3.org/2000/svg" xmlns:xlink="http://www.w3.org/1999/xlink" version="1.1" class="marks" width="719" height="544" viewBox="0 0 719 544"><rect width="719" height="544" fill="white"/><g fill="none" stroke-miterlimit="10" transform="translate(45,27)"><g class="mark-group role-frame root" role="graphics-object" aria-roledescription="group mark container"><g transform="translate(0,0)"><path class="background" aria-hidden="true" d="M0.5,0.5h600v480h-600Z" stroke="#ddd"/><g><g class="mark-group role-axis" aria-hidden="true"><g transform="translate(0.5,480.5)"><path class="background" aria-hidden="true" d="M0,0h0v0h0Z" pointer-events="none"/><g><g class="mark-rule role-axis-grid" pointer-events="none"><line transform="translate(0,-480)" x2="0" y2="480" stroke="#f3f6fa" stroke-width="1" opacity="1"/><line transform="translate(50,-480)" x2="0" y2="480" stroke="#f3f6fa" stroke-width="1" opacity="1"/><line transform="translate(100,-480)" x2="0" y2="480" stroke="#f3f6fa" stroke-width="1" opacity="1"/><line transform="translate(150,-480)" x2="0" y2="480" stroke="#f3f6fa" stroke-width="1" opacity="1"/><line transform="translate(200,-480)" x2="0" y2="480" stroke="#f3f6fa" stroke-width="1" opacity="1"/><line transform="translate(250,-480)" x2="0" y2="480" stroke="#f3f6fa" stroke-width="1" opacity="1"/><line transform="translate(300,-480)" x2="0" y2="480" stroke="#f3f6fa" stroke-width="1" opacity="1"/><line transform="translate(350,-480)" x2="0" y2="480" stroke="#f3f6fa" stroke-width="1" opacity="1"/><line transform="translate(400,-480)" x2="0" y2="480" stroke="#f3f6fa" stroke-width="1" opacity="1"/><line transform="translate(450,-480)" x2="0" y2="480" stroke="#f3f6fa" stroke-width="1" opacity="1"/><line transform="translate(500,-480)" x2="0" y2="480" stroke="#f3f6fa" stroke-width="1" opacity="1"/><line transform="translate(550,-480)" x2="0" y2="480" stroke="#f3f6fa" stroke-width="1" opacity="1"/><line transform="translate(600,-480)" x2="0" y2="480" stroke="#f3f6fa" stroke-width="1" opacity="1"/></g></g><path class="foreground" aria-hidden="true" d="" pointer-events="none" display="none"/></g></g><g class="mark-group role-axis" aria-hidden="true"><g transform="translate(0.5,0.5)"><path class="background" aria-hidden="true" d="M0,0h0v0h0Z" pointer-events="none"/><g><g class="mark-rule role-axis-grid" pointer-events="none"><line transform="translate(0,480)" x2="600" y2="0" stroke="#f3f6fa" stroke-width="1" opacity="1"/><line transform="translate(0,440)" x2="600" y2="0" stroke="#f3f6fa" stroke-width="1" opacity="1"/><line transform="translate(0,400)" x2="600" y2="0" stroke="#f3f6fa" stroke-width="1" opacity="1"/><line transform="translate(0,360)" x2="600" y2="0" stroke="#f3f6fa" stroke-width="1" opacity="1"/><line transform="translate(0,320)" x2="600" y2="0" stroke="#f3f6fa" stroke-width="1" opacity="1"/><line transform="translate(0,280)" x2="600" y2="0" stroke="#f3f6fa" stroke-width="1" opacity="1"/><line transform="translate(0,240)" x2="600" y2="0" stroke="#f3f6fa" stroke-width="1" opacity="1"/><line transform="translate(0,200)" x2="600" y2="0" stroke="#f3f6fa" stroke-width="1" opacity="1"/><line transform="translate(0,160)" x2="600" y2="0" stroke="#f3f6fa" stroke-width="1" opacity="1"/><line transform="translate(0,120)" x2="600" y2="0" stroke="#f3f6fa" stroke-width="1" opacity="1"/><line transform="translate(0,80)" x2="600" y2="0" stroke="#f3f6fa" stroke-width="1" opacity="1"/><line transform="translate(0,40)" x2="600" y2="0" stroke="#f3f6fa" stroke-width="1" opacity="1"/><line transform="translate(0,0)" x2="600" y2="0" stroke="#f3f6fa" stroke-width="1" opacity="1"/></g></g><path class="foreground" aria-hidden="true" d="" pointer-events="none" display="none"/></g></g><g class="mark-group role-axis" role="graphics-symbol" aria-roledescription="axis" aria-label="X-axis titled 'Modeled Buffered [Metal] [µmol/L]' for a log scale with values from 0.000001 to 1,000,000"><g transform="translate(0.5,480.5)"><path class="background" aria-hidden="true" d="M0,0h0v0h0Z" pointer-events="none"/><g><g class="mark-rule role-axis-tick" pointer-events="none"><line transform="translate(0,0)" x2="0" y2="5" stroke="#888" stroke-width="1" opacity="1"/><line transform="translate(50,0)" x2="0" y2="5" stroke="#888" stroke-width="1" opacity="1"/><line transform="translate(100,0)" x2="0" y2="5" stroke="#888" stroke-width="1" opacity="1"/><line transform="translate(150,0)" x2="0" y2="5" stroke="#888" stroke-width="1" opacity="1"/><line transform="translate(200,0)" x2="0" y2="5" stroke="#888" stroke-width="1" opacity="1"/><line transform="translate(250,0)" x2="0" y2="5" stroke="#888" stroke-width="1" opacity="1"/><line transform="translate(300,0)" x2="0" y2="5" stroke="#888" stroke-width="1" opacity="1"/><line transform="translate(350,0)" x2="0" y2="5" stroke="#888" stroke-width="1" opacity="1"/><line transform="translate(400,0)" x2="0" y2="5" stroke="#888" stroke-width="1" opacity="1"/><line transform="translate(450,0)" x2="0" y2="5" stroke="#888" stroke-width="1" opacity="1"/><line transform="translate(500,0)" x2="0" y2="5" stroke="#888" stroke-width="1" opacity="1"/><line transform="translate(550,0)" x2="0" y2="5" stroke="#888" stroke-width="1" opacity="1"/><line transform="translate(600,0)" x2="0" y2="5" stroke="#888" stroke-width="1" opacity="1"/></g><g class="mark-text role-axis-label" pointer-events="none"><text text-anchor="start" transform="translate(0,15)" font-family="sans-serif" font-size="10px" fill="#000" opacity="1">10⁻⁶</text><text text-anchor="middle" transform="translate(49.999999999999986,15)" font-family="sans-serif" font-size="10px" fill="#000" opacity="1">10⁻⁵</text><text text-anchor="middle" transform="translate(100.00000000000001,15)" font-family="sans-serif" font-size="10px" fill="#000" opacity="1">10⁻⁴</text><text text-anchor="middle" transform="translate(150,15)" font-family="sans-serif" font-size="10px" fill="#000" opacity="1">10⁻³</text><text text-anchor="middle" transform="translate(200.00000000000003,15)" font-family="sans-serif" font-size="10px" fill="#000" opacity="1">10⁻²</text><text text-anchor="middle" transform="translate(250,15)" font-family="sans-serif" font-size="10px" fill="#000" opacity="1">10⁻¹</text><text text-anchor="middle" transform="translate(300,15)" font-family="sans-serif" font-size="10px" fill="#000" opacity="1">10⁰</text><text text-anchor="middle" transform="translate(350,15)" font-family="sans-serif" font-size="10px" fill="#000" opacity="1">10¹</text><text text-anchor="middle" transform="translate(400.00000000000006,15)" font-family="sans-serif" font-size="10px" fill="#000" opacity="1">10²</text><text text-anchor="middle" transform="translate(450,15)" font-family="sans-serif" font-size="10px" fill="#000" opacity="1">10³</text><text text-anchor="middle" transform="translate(500,15)" font-family="sans-serif" font-size="10px" fill="#000" opacity="1">10⁴</text><text text-anchor="middle" transform="translate(550,15)" font-family="sans-serif" font-size="10px" fill="#000" opacity="1">10⁵</text><text text-anchor="end" transform="translate(600,15)" font-family="sans-serif" font-size="10px" fill="#000" opacity="1">10⁶</text></g><g class="mark-rule role-axis-domain" pointer-events="none"><line transform="translate(0,0)" x2="600" y2="0" stroke="#888" stroke-width="1" opacity="1"/></g><g class="mark-text role-axis-title" pointer-events="none"><text text-anchor="middle" transform="translate(300,30)" font-family="sans-serif" font-size="11px" font-weight="bold" fill="#000" opacity="1">Modeled Buffered [Metal] [µmol/L]</text></g></g><path class="foreground" aria-hidden="true" d="" pointer-events="none" display="none"/></g></g><g class="mark-group role-axis" role="graphics-symbol" aria-roledescription="axis" aria-label="Y-axis titled 'Estimated Deficit [µmol/L]' for a log scale with values from 0.000001 to 1,000,000"><g transform="translate(0.5,0.5)"><path class="background" aria-hidden="true" d="M0,0h0v0h0Z" pointer-events="none"/><g><g class="mark-rule role-axis-tick" pointer-events="none"><line transform="translate(0,480)" x2="-5" y2="0" stroke="#888" stroke-width="1" opacity="1"/><line transform="translate(0,440)" x2="-5" y2="0" stroke="#888" stroke-width="1" opacity="1"/><line transform="translate(0,400)" x2="-5" y2="0" stroke="#888" stroke-width="1" opacity="1"/><line transform="translate(0,360)" x2="-5" y2="0" stroke="#888" stroke-width="1" opacity="1"/><line transform="translate(0,320)" x2="-5" y2="0" stroke="#888" stroke-width="1" opacity="1"/><line transform="translate(0,280)" x2="-5" y2="0" stroke="#888" stroke-width="1" opacity="1"/><line transform="translate(0,240)" x2="-5" y2="0" stroke="#888" stroke-width="1" opacity="1"/><line transform="translate(0,200)" x2="-5" y2="0" stroke="#888" stroke-width="1" opacity="1"/><line transform="translate(0,160)" x2="-5" y2="0" stroke="#888" stroke-width="1" opacity="1"/><line transform="translate(0,120)" x2="-5" y2="0" stroke="#888" stroke-width="1" opacity="1"/><line transform="translate(0,80)" x2="-5" y2="0" stroke="#888" stroke-width="1" opacity="1"/><line transform="translate(0,40)" x2="-5" y2="0" stroke="#888" stroke-width="1" opacity="1"/><line transform="translate(0,0)" x2="-5" y2="0" stroke="#888" stroke-width="1" opacity="1"/></g><g class="mark-text role-axis-label" pointer-events="none"><text text-anchor="end" transform="translate(-7,483)" font-family="sans-serif" font-size="10px" fill="#000" opacity="1">10⁻⁶</text><text text-anchor="end" transform="translate(-7,443.00000000000006)" font-family="sans-serif" font-size="10px" fill="#000" opacity="1">10⁻⁵</text><text text-anchor="end" transform="translate(-7,402.99999999999994)" font-family="sans-serif" font-size="10px" fill="#000" opacity="1">10⁻⁴</text><text text-anchor="end" transform="translate(-7,363)" font-family="sans-serif" font-size="10px" fill="#000" opacity="1">10⁻³</text><text text-anchor="end" transform="translate(-7,323)" font-family="sans-serif" font-size="10px" fill="#000" opacity="1">10⁻²</text><text text-anchor="end" transform="translate(-7,282.99999999999994)" font-family="sans-serif" font-size="10px" fill="#000" opacity="1">10⁻¹</text><text text-anchor="end" transform="translate(-7,243)" font-family="sans-serif" font-size="10px" fill="#000" opacity="1">10⁰</text><text text-anchor="end" transform="translate(-7,202.99999999999997)" font-family="sans-serif" font-size="10px" fill="#000" opacity="1">10¹</text><text text-anchor="end" transform="translate(-7,162.99999999999997)" font-family="sans-serif" font-size="10px" fill="#000" opacity="1">10²</text><text text-anchor="end" transform="translate(-7,123)" font-family="sans-serif" font-size="10px" fill="#000" opacity="1">10³</text><text text-anchor="end" transform="translate(-7,82.99999999999999)" font-family="sans-serif" font-size="10px" fill="#000" opacity="1">10⁴</text><text text-anchor="end" transform="translate(-7,42.999999999999964)" font-family="sans-serif" font-size="10px" fill="#000" opacity="1">10⁵</text><text text-anchor="end" transform="translate(-7,3)" font-family="sans-serif" font-size="10px" fill="#000" opacity="1">10⁶</text></g><g class="mark-rule role-axis-domain" pointer-events="none"><line transform="translate(0,480)" x2="0" y2="-480" stroke="#888" stroke-width="1" opacity="1"/></g><g class="mark-text role-axis-title" pointer-events="none"><text text-anchor="middle" transform="translate(-28.529296875,240) rotate(-90) translate(0,-2)" font-family="sans-serif" font-size="11px" font-weight="bold" fill="#000" opacity="1">Estimated Deficit [µmol/L]</text></g></g><path class="foreground" aria-hidden="true" d="" pointer-events="none" display="none"/></g></g><g class="mark-line role-mark layer_0_marks" role="graphics-object" aria-roledescription="line mark container"><path aria-label="v: 0.000001" role="graphics-symbol" aria-roledescription="line mark" d="M0,480L600,0" stroke="gray" stroke-width="2" stroke-dasharray="4,4"/></g><g class="mark-rect role-mark layer_1_layer_0_marks" aria-hidden="true"><path d="M276.06093235419246,241.50005310805892h1v15h-1Z" fill="steelblue" opacity="0.7"/><path d="M328.8399413512318,210.51070992676424h1v15h-1Z" fill="steelblue" opacity="0.7"/><path d="M447.95055420755295,161.15426134318528h1v15h-1Z" fill="tomato" opacity="0.7"/><path d="M269.2447528559805,257.31597861856034h1v15h-1Z" fill="tomato" opacity="0.7"/><path d="M273.0600879747164,231.54436200299534h1v15h-1Z" fill="tomato" opacity="0.7"/><path d="M101.11363543415956,168.81274735285788h1v15h-1Z" fill="tomato" opacity="0.7"/><path d="M318.14160175301356,178.10317496582888h1v15h-1Z" fill="tomato" opacity="0.7"/></g><g class="mark-rect role-mark layer_1_layer_1_marks" aria-hidden="true"><path d="M376.04561656507195,241.50005310805892h1v15h-1Z" fill="steelblue" opacity="0.7"/><path d="M428.8399271007092,210.51070992676424h1v15h-1Z" fill="steelblue" opacity="0.7"/><path d="M547.9066434367461,161.15426134318528h1v15h-1Z" fill="tomato" opacity="0.7"/><path d="M369.2386903369217,257.31597861856034h1v15h-1Z" fill="tomato" opacity="0.7"/><path d="M373.0600785312553,231.54436200299534h1v15h-1Z" fill="tomato" opacity="0.7"/><path d="M201.1136354251786,168.81274735285788h1v15h-1Z" fill="tomato" opacity="0.7"/><path d="M418.14151611113493,178.10317496582888h1v15h-1Z" fill="tomato" opacity="0.7"/></g><g class="mark-rule role-mark layer_1_layer_2_marks" role="graphics-object" aria-roledescription="rule mark container"><line aria-label="lower_x_lb_uM: 0.339796301177; y_uM: 0.595660322506; upper_x_lb_uM: 33.9556721177; Medium: Minimal; x_ub_uM: 33.9556721177; x_lb_uM: 0.339796301177" role="graphics-symbol" aria-roledescription="errorbar" transform="translate(276.56093235419246,249.00005310805892)" x2="99.9846842108795" y2="0" stroke="steelblue"/><line aria-label="lower_x_lb_uM: 3.86188046402; y_uM: 3.54594709603; upper_x_lb_uM: 386.187792962; Medium: Minimal; x_ub_uM: 386.187792962; x_lb_uM: 3.86188046402" role="graphics-symbol" aria-roledescription="errorbar" transform="translate(329.3399413512318,218.01070992676424)" x2="99.99998574947739" y2="0" stroke="steelblue"/><line aria-label="lower_x_lb_uM: 931.131639693; y_uM: 60.7635958387; upper_x_lb_uM: 92925.0639693; Medium: Rich; x_ub_uM: 92925.0639693; x_lb_uM: 931.131639693" role="graphics-symbol" aria-roledescription="errorbar" transform="translate(448.45055420755295,168.65426134318528)" x2="99.95608922919314" y2="0" stroke="tomato"/><line aria-label="lower_x_lb_uM: 0.248253315372; y_uM: 0.239662747921; upper_x_lb_uM: 24.8184015372; Medium: Rich; x_ub_uM: 24.8184015372; x_lb_uM: 0.248253315372" role="graphics-symbol" aria-roledescription="errorbar" transform="translate(269.7447528559805,264.81597861856034)" x2="99.99393748094121" y2="0" stroke="tomato"/><line aria-label="lower_x_lb_uM: 0.295938698494; y_uM: 1.05655217874; upper_x_lb_uM: 29.5938569794; Medium: Rich; x_ub_uM: 29.5938569794; x_lb_uM: 0.295938698494" role="graphics-symbol" aria-roledescription="errorbar" transform="translate(273.5600879747164,239.04436200299534)" x2="99.99999055653888" y2="0" stroke="tomato"/><line aria-label="lower_x_lb_uM: 0.000107714137603; y_uM: 39.1004104343; upper_x_lb_uM: 0.0107714137558; Medium: Rich; x_ub_uM: 0.0107714137558; x_lb_uM: 0.000107714137603" role="graphics-symbol" aria-roledescription="errorbar" transform="translate(101.61363543415956,176.31274735285788)" x2="99.99999999101902" y2="0" stroke="tomato"/><line aria-label="lower_x_lb_uM: 2.35956548632; y_uM: 22.9044899894; upper_x_lb_uM: 235.955618032; Medium: Rich; x_ub_uM: 235.955618032; x_lb_uM: 2.35956548632" role="graphics-symbol" aria-roledescription="errorbar" transform="translate(318.64160175301356,185.60317496582888)" x2="99.99991435812137" y2="0" stroke="tomato"/></g><g class="mark-rect role-mark layer_2_layer_0_marks" clip-path="url(#clip16)" aria-hidden="true"><path d="M354.21033716544184,519.5000000000001h15v1h-15Z" fill="steelblue" opacity="0.7"/><path d="M407.00449614773663,224.35249341741263h15v1h-15Z" fill="steelblue" opacity="0.7"/><path d="M526.0716475383002,519.5000000000001h15v1h-15Z" fill="tomato" opacity="0.7"/><path d="M347.4033192760928,268.7539822962746h15v1h-15Z" fill="tomato" opacity="0.7"/><path d="M351.22464753068795,251.2703582266317h15v1h-15Z" fill="tomato" opacity="0.7"/><path d="M179.27820433120056,184.86410851996487h15v1h-15Z" fill="tomato" opacity="0.7"/><path d="M396.3060858650091,519.5000000000001h15v1h-15Z" fill="tomato" opacity="0.7"/></g><g class="mark-rect role-mark layer_2_layer_1_marks" clip-path="url(#clip17)" aria-hidden="true"><path d="M354.21033716544184,229.8681094260772h15v1h-15Z" fill="steelblue" opacity="0.7"/><path d="M407.00449614773663,212.61498043233487h15v1h-15Z" fill="steelblue" opacity="0.7"/><path d="M526.0716475383002,154.63007195878131h15v1h-15Z" fill="tomato" opacity="0.7"/><path d="M347.4033192760928,260.78416614382115h15v1h-15Z" fill="tomato" opacity="0.7"/><path d="M351.22464753068795,231.2783164098005h15v1h-15Z" fill="tomato" opacity="0.7"/><path d="M179.27820433120056,169.89214371983246h15v1h-15Z" fill="tomato" opacity="0.7"/><path d="M396.3060858650091,165.18851419389748h15v1h-15Z" fill="tomato" opacity="0.7"/></g><g class="mark-rule role-mark layer_2_layer_2_marks" clip-path="url(#clip18)" role="graphics-object" aria-roledescription="rule mark container"><line aria-label="x_uM: 17.1477342094; lower_y_lo_uM: 1e-7; upper_y_lo_uM: 1.74099395967; Medium: Minimal; y_hi_uM: 1.74099395967; y_lo_uM: 1e-7" role="graphics-symbol" aria-roledescription="errorbar" transform="translate(361.71033716544184,520.0000000000001)" x2="0" y2="-289.6318905739229" stroke="steelblue"/><line aria-label="x_uM: 195.024836713; lower_y_lo_uM: 2.39159515296; upper_y_lo_uM: 4.70029903911; Medium: Minimal; y_hi_uM: 4.70029903911; y_lo_uM: 2.39159515296" role="graphics-symbol" aria-roledescription="errorbar" transform="translate(414.50449614773663,224.85249341741263)" x2="0" y2="-11.737512985077757" stroke="steelblue"/><line aria-label="x_uM: 46928.0978045; lower_y_lo_uM: 1e-7; upper_y_lo_uM: 132.357391968; Medium: Rich; y_hi_uM: 132.357391968; y_lo_uM: 1e-7" role="graphics-symbol" aria-roledescription="errorbar" transform="translate(533.5716475383002,520.0000000000001)" x2="0" y2="-364.8699280412188" stroke="tomato"/><line aria-label="x_uM: 12.5333274263; lower_y_lo_uM: 0.185630973652; upper_y_lo_uM: 0.29369452219; Medium: Rich; y_hi_uM: 0.29369452219; y_lo_uM: 0.185630973652" role="graphics-symbol" aria-roledescription="errorbar" transform="translate(354.9033192760928,269.2539822962746)" x2="0" y2="-7.969816152453461" stroke="tomato"/><line aria-label="x_uM: 14.9448978389; lower_y_lo_uM: 0.507856533939; upper_y_lo_uM: 1.60524782354; Medium: Rich; y_hi_uM: 1.60524782354; y_lo_uM: 0.507856533939" role="graphics-symbol" aria-roledescription="errorbar" transform="translate(358.72464753068795,251.7703582266317)" x2="0" y2="-19.992041816831204" stroke="tomato"/><line aria-label="x_uM: 0.00543956394672; lower_y_lo_uM: 23.2218752147; upper_y_lo_uM: 54.9789456538; Medium: Rich; y_hi_uM: 54.9789456538; y_lo_uM: 23.2218752147" role="graphics-symbol" aria-roledescription="errorbar" transform="translate(186.77820433120056,185.36410851996487)" x2="0" y2="-14.971964800132412" stroke="tomato"/><line aria-label="x_uM: 119.157591759; lower_y_lo_uM: 1e-7; upper_y_lo_uM: 72.0754139178; Medium: Rich; y_hi_uM: 72.0754139178; y_lo_uM: 1e-7" role="graphics-symbol" aria-roledescription="errorbar" transform="translate(403.8060858650091,520.0000000000001)" x2="0" y2="-354.3114858061026" stroke="tomato"/></g><g class="mark-symbol role-mark layer_3_marks" role="graphics-object" aria-roledescription="symbol mark container"><path aria-label="x_uM: 17.1477342094; y_uM: 0.595660322506; Medium: Minimal" role="graphics-symbol" aria-roledescription="point" transform="translate(361.71033716544184,249.00005310805892)" d="M6.124,0A6.124,6.124,0,1,1,-6.124,0A6.124,6.124,0,1,1,6.124,0" fill="steelblue" stroke="black" stroke-width="1" opacity="0.7"/><path aria-label="x_uM: 195.024836713; y_uM: 3.54594709603; Medium: Minimal" role="graphics-symbol" aria-roledescription="point" transform="translate(414.50449614773663,218.01070992676424)" d="M6.124,0A6.124,6.124,0,1,1,-6.124,0A6.124,6.124,0,1,1,6.124,0" fill="steelblue" stroke="black" stroke-width="1" opacity="0.7"/><path aria-label="x_uM: 46928.0978045; y_uM: 60.7635958387; Medium: Rich" role="graphics-symbol" aria-roledescription="point" transform="translate(533.5716475383002,168.65426134318528)" d="M-6.124,0L0,-6.124L6.124,0L0,6.124Z" fill="tomato" stroke="black" stroke-width="1" opacity="0.7"/><path aria-label="x_uM: 12.5333274263; y_uM: 0.239662747921; Medium: Rich" role="graphics-symbol" aria-roledescription="point" transform="translate(354.9033192760928,264.81597861856034)" d="M-6.124,0L0,-6.124L6.124,0L0,6.124Z" fill="tomato" stroke="black" stroke-width="1" opacity="0.7"/><path aria-label="x_uM: 14.9448978389; y_uM: 1.05655217874; Medium: Rich" role="graphics-symbol" aria-roledescription="point" transform="translate(358.72464753068795,239.04436200299534)" d="M-6.124,0L0,-6.124L6.124,0L0,6.124Z" fill="tomato" stroke="black" stroke-width="1" opacity="0.7"/><path aria-label="x_uM: 0.00543956394672; y_uM: 39.1004104343; Medium: Rich" role="graphics-symbol" aria-roledescription="point" transform="translate(186.77820433120056,176.31274735285788)" d="M-6.124,0L0,-6.124L6.124,0L0,6.124Z" fill="tomato" stroke="black" stroke-width="1" opacity="0.7"/><path aria-label="x_uM: 119.157591759; y_uM: 22.9044899894; Medium: Rich" role="graphics-symbol" aria-roledescription="point" transform="translate(403.8060858650091,185.60317496582888)" d="M-6.124,0L0,-6.124L6.124,0L0,6.124Z" fill="tomato" stroke="black" stroke-width="1" opacity="0.7"/></g><g class="mark-text role-mark layer_4_marks" role="graphics-object" aria-roledescription="text mark container"><text aria-label="x_uM: 17.1477342094; y_uM: 0.595660322506; Element: CO" role="graphics-symbol" aria-roledescription="text mark" text-anchor="middle" transform="translate(376.71033716544184,238.00005310805892)" font-family="sans-serif" font-size="12px" fill="black">CO</text><text aria-label="x_uM: 195.024836713; y_uM: 3.54594709603; Element: NI" role="graphics-symbol" aria-roledescription="text mark" text-anchor="middle" transform="translate(429.50449614773663,207.01070992676424)" font-family="sans-serif" font-size="12px" fill="black">NI</text><text aria-label="x_uM: 46928.0978045; y_uM: 60.7635958387; Element: FE" role="graphics-symbol" aria-roledescription="text mark" text-anchor="middle" transform="translate(548.5716475383002,157.65426134318528)" font-family="sans-serif" font-size="12px" fill="black">FE</text><text aria-label="x_uM: 12.5333274263; y_uM: 0.239662747921; Element: CO" role="graphics-symbol" aria-roledescription="text mark" text-anchor="middle" transform="translate(369.9033192760928,253.81597861856034)" font-family="sans-serif" font-size="12px" fill="black">CO</text><text aria-label="x_uM: 14.9448978389; y_uM: 1.05655217874; Element: NI" role="graphics-symbol" aria-roledescription="text mark" text-anchor="middle" transform="translate(373.72464753068795,228.04436200299534)" font-family="sans-serif" font-size="12px" fill="black">NI</text><text aria-label="x_uM: 0.00543956394672; y_uM: 39.1004104343; Element: CU" role="graphics-symbol" aria-roledescription="text mark" text-anchor="middle" transform="translate(201.77820433120056,165.31274735285788)" font-family="sans-serif" font-size="12px" fill="black">CU</text><text aria-label="x_uM: 119.157591759; y_uM: 22.9044899894; Element: ZN" role="graphics-symbol" aria-roledescription="text mark" text-anchor="middle" transform="translate(418.8060858650091,174.60317496582888)" font-family="sans-serif" font-size="12px" fill="black">ZN</text></g><g class="mark-group role-legend" role="graphics-symbol" aria-roledescription="legend" aria-label="Symbol legend titled 'Medium' for shape, fill color and stroke color with 2 values: Minimal, Rich"><g transform="translate(618,0)"><path class="background" aria-hidden="true" d="M0,0h51v45h-51Z" pointer-events="none"/><g><g class="mark-group role-legend-entry"><g transform="translate(0,16)"><path class="background" aria-hidden="true" d="M0,0h0v0h0Z" pointer-events="none"/><g><g class="mark-group role-scope" role="graphics-object" aria-roledescription="group mark container"><g transform="translate(0,0)"><path class="background" aria-hidden="true" d="M0,0h50.4482421875v12.5h-50.4482421875Z" pointer-events="none" opacity="1"/><g><g class="mark-symbol role-legend-symbol" pointer-events="none"><path transform="translate(6,6)" d="M5,0A5,5,0,1,1,-5,0A5,5,0,1,1,5,0" fill="steelblue" stroke="steelblue" stroke-width="1.5" opacity="0.7"/></g><g class="mark-text role-legend-label" pointer-events="none"><text text-anchor="start" transform="translate(16,9)" font-family="sans-serif" font-size="10px" fill="#000" opacity="1">Minimal</text></g></g><path class="foreground" aria-hidden="true" d="" pointer-events="none" display="none"/></g><g transform="translate(0,16)"><path class="background" aria-hidden="true" d="M0,0h50.4482421875v12.5h-50.4482421875Z" pointer-events="none" opacity="1"/><g><g class="mark-symbol role-legend-symbol" pointer-events="none"><path transform="translate(6,6)" d="M-5,0L0,-5L5,0L0,5Z" fill="tomato" stroke="tomato" stroke-width="1.5" opacity="0.7"/></g><g class="mark-text role-legend-label" pointer-events="none"><text text-anchor="start" transform="translate(16,9)" font-family="sans-serif" font-size="10px" fill="#000" opacity="1">Rich</text></g></g><path class="foreground" aria-hidden="true" d="" pointer-events="none" display="none"/></g></g></g><path class="foreground" aria-hidden="true" d="" pointer-events="none" display="none"/></g></g><g class="mark-text role-legend-title" pointer-events="none"><text text-anchor="start" transform="translate(0,9)" font-family="sans-serif" font-size="11px" font-weight="bold" fill="#000" opacity="1">Medium</text></g></g><path class="foreground" aria-hidden="true" d="" pointer-events="none" display="none"/></g></g><g class="mark-group role-title"><g transform="translate(300,-22)"><path class="background" aria-hidden="true" d="M0,0h0v0h0Z" pointer-events="none"/><g><g class="mark-text role-title-text" role="graphics-symbol" aria-roledescription="title" aria-label="Title text 'Buffered Metal Concentration vs. Deficit Fig1C – Simplified Model'" pointer-events="none"><text text-anchor="middle" transform="translate(0,10)" font-family="sans-serif" font-size="13px" font-weight="bold" fill="#000" opacity="1">Buffered Metal Concentration vs. Deficit Fig1C – Simplified Model</text></g></g><path class="foreground" aria-hidden="true" d="" pointer-events="none" display="none"/></g></g></g><path class="foreground" aria-hidden="true" d="" display="none"/></g></g></g><defs><clipPath id="clip16"><rect x="0" y="0" width="600" height="480"/></clipPath><clipPath id="clip17"><rect x="0" y="0" width="600" height="480"/></clipPath><clipPath id="clip18"><rect x="0" y="0" width="600" height="480"/></clipPath></defs></svg>