<svg xmlns="http://www.w3.org/2000/svg" xmlns:xlink="http://www.w3.org/1999/xlink" version="1.1" class="marks" width="719" height="544" viewBox="0 0 719 544"><rect width="719" height="544" fill="white"/><g fill="none" stroke-miterlimit="10" transform="translate(45,27)"><g class="mark-group role-frame root" role="graphics-object" aria-roledescription="group mark container"><g transform="translate(0,0)"><path class="background" aria-hidden="true" d="M0.5,0.5h600v480h-600Z" stroke="#ddd"/><g><g class="mark-group role-axis" aria-hidden="true"><g transform="translate(0.5,480.5)"><path class="background" aria-hidden="true" d="M0,0h0v0h0Z" pointer-events="none"/><g><g class="mark-rule role-axis-grid" pointer-events="none"><line transform="translate(0,-480)" x2="0" y2="480" stroke="#f3f6fa" stroke-width="1" opacity="1"/><line transform="translate(50,-480)" x2="0" y2="480" stroke="#f3f6fa" stroke-width="1" opacity="1"/><line transform="translate(100,-480)" x2="0" y2="480" stroke="#f3f6fa" stroke-width="1" opacity="1"/><line transform="translate(150,-480)" x2="0" y2="480" stroke="#f3f6fa" stroke-width="1" opacity="1"/><line transform="translate(200,-480)" x2="0" y2="480" stroke="#f3f6fa" stroke-width="1" opacity="1"/><line transform="translate(250,-480)" x2="0" y2="480" stroke="#f3f6fa" stroke-width="1" opacity="1"/><line transform="translate(300,-480)" x2="0" y2="480" stroke="#f3f6fa" stroke-width="1" opacity="1"/><line transform="translate(350,-480)" x2="0" y2="480" stroke="#f3f6fa" stroke-width="1" opacity="1"/><line transform="translate(400,-480)" x2="0" y2="480" stroke="#f3f6fa" stroke-width="1" opacity="1"/><line transform="translate(450,-480)" x2="0" y2="480" stroke="#f3f6fa" stroke-width="1" opacity="1"/><line transform="translate(500,-480)" x2="0" y2="480" stroke="#f3f6fa" stroke-width="1" opacity="1"/><line transform="translate(550,-480)" x2="0" y2="480" stroke="#f3f6fa" stroke-width="1" opacity="1"/><line transform="translate(600,-480)" x2="0" y2="480" stroke="#f3f6fa" stroke-width="1" opacity="1"/></g></g><path class="foreground" aria-hidden="true" d="" pointer-events="none" display="none"/></g></g><g class="mark-group role-axis" aria-hidden="true"><g transform="translate(0.5,0.5)"><path class="background" aria-hidden="true" d="M0,0h0v0h0Z" pointer-events="none"/><g><g class="mark-rule role-axis-grid" pointer-events="none"><line transform="translate(0,480)" x2="600" y2="0" stroke="#f3f6fa" stroke-width="1" opacity="1"/><line transform="translate(0,440)" x2="600" y2="0" stroke="#f3f6fa" stroke-width="1" opacity="1"/><line transform="translate(0,400)" x2="600" y2="0" stroke="#f3f6fa" stroke-width="1" opacity="1"/><line transform="translate(0,360)" x2="600" y2="0" stroke="#f3f6fa" stroke-width="1" opacity="1"/><line transform="translate(0,320)" x2="600" y2="0" stroke="#f3f6fa" stroke-width="1" opacity="1"/><line transform="translate(0,280)" x2="600" y2="0" stroke="#f3f6fa" stroke-width="1" opacity="1"/><line transform="translate(0,240)" x2="600" y2="0" stroke="#f3f6fa" stroke-width="1" opacity="1"/><line transform="translate(0,200)" x2="600" y2="0" stroke="#f3f6fa" stroke-width="1" opacity="1"/><line transform="translate(0,160)" x2="600" y2="0" stroke="#f3f6fa" stroke-width="1" opacity="1"/><line transform="translate(0,120)" x2="600" y2="0" stroke="#f3f6fa" stroke-width="1" opacity="1"/><line transform="translate(0,80)" x2="600" y2="0" stroke="#f3f6fa" stroke-width="1" opacity="1"/><line transform="translate(0,40)" x2="600" y2="0" stroke="#f3f6fa" stroke-width="1" opacity="1"/><line transform="translate(0,0)" x2="600" y2="0" stroke="#f3f6fa" stroke-width="1" opacity="1"/></g></g><path class="foreground" aria-hidden="true" d="" pointer-events="none" display="none"/></g></g><g class="mark-group role-axis" role="graphics-symbol" aria-roledescription="axis" aria-label="X-axis titled 'Modeled Buffered [Metal] [µmol/L]' for a log scale with values from 0.000001 to 1,000,000"><g transform="translate(0.5,480.5)"><path class="background" aria-hidden="true" d="M0,0h0v0h0Z" pointer-events="none"/><g><g class="mark-rule role-axis-tick" pointer-events="none"><line transform="translate(0,0)" x2="0" y2="5" stroke="#888" stroke-width="1" opacity="1"/><line transform="translate(50,0)" x2="0" y2="5" stroke="#888" stroke-width="1" opacity="1"/><line transform="translate(100,0)" x2="0" y2="5" stroke="#888" stroke-width="1" opacity="1"/><line transform="translate(150,0)" x2="0" y2="5" stroke="#888" stroke-width="1" opacity="1"/><line transform="translate(200,0)" x2="0" y2="5" stroke="#888" stroke-width="1" opacity="1"/><line transform="translate(250,0)" x2="0" y2="5" stroke="#888" stroke-width="1" opacity="1"/><line transform="translate(300,0)" x2="0" y2="5" stroke="#888" stroke-width="1" opacity="1"/><line transform="translate(350,0)" x2="0" y2="5" stroke="#888" stroke-width="1" opacity="1"/><line transform="translate(400,0)" x2="0" y2="5" stroke="#888" stroke-width="1" opacity="1"/><line transform="translate(450,0)" x2="0" y2="5" stroke="#888" stroke-width="1" opacity="1"/><line transform="translate(500,0)" x2="0" y2="5" stroke="#888" stroke-width="1" opacity="1"/><line transform="translate(550,0)" x2="0" y2="5" stroke="#888" stroke-width="1" opacity="1"/><line transform="translate(600,0)" x2="0" y2="5" stroke="#888" stroke-width="1" opacity="1"/></g><g class="mark-text role-axis-label" pointer-events="none"><text text-anchor="start" transform="translate(0,15)" font-family="sans-serif" font-size="10px" fill="#000" opacity="1">10⁻⁶</text><text text-anchor="middle" transform="translate(49.999999999999986,15)" font-family="sans-serif" font-size="10px" fill="#000" opacity="1">10⁻⁵</text><text text-anchor="middle" transform="translate(100.00000000000001,15)" font-family="sans-serif" font-size="10px" fill="#000" opacity="1">10⁻⁴</text><text text-anchor="middle" transform="translate(150,15)" font-family="sans-serif" font-size="10px" fill="#000" opacity="1">10⁻³</text><text text-anchor="middle" transform="translate(200.00000000000003,15)" font-family="sans-serif" font-size="10px" fill="#000" opacity="1">10⁻²</text><text text-anchor="middle" transform="translate(250,15)" font-family="sans-serif" font-size="10px" fill="#000" opacity="1">10⁻¹</text><text text-anchor="middle" transform="translate(300,15)" font-family="sans-serif" font-size="10px" fill="#000" opacity="1">10⁰</text><text text-anchor="middle" transform="translate(350,15)" font-family="sans-serif" font-size="10px" fill="#000" opacity="1">10¹</text><text text-anchor="middle" transform="translate(400.00000000000006,15)" font-family="sans-serif" font-size="10px" fill="#000" opacity="1">10²</text><text text-anchor="middle" transform="translate(450,15)" font-family="sans-serif" font-size="10px" fill="#000" opacity="1">10³</text><text text-anchor="middle" transform="translate(500,15)" font-family="sans-serif" font-size="10px" fill="#000" opacity="1">10⁴</text><text text-anchor="middle" transform="translate(550,15)" font-family="sans-serif" font-size="10px" fill="#000" opacity="1">10⁵</text><text text-anchor="end" transform="translate(600,15)" font-family="sans-serif" font-size="10px" fill="#000" opacity="1">10⁶</text></g><g class="mark-rule role-axis-domain" pointer-events="none"><line transform="translate(0,0)" x2="600" y2="0" stroke="#888" stroke-width="1" opacity="1"/></g><g class="mark-text role-axis-title" pointer-events="none"><text text-anchor="middle" transform="translate(300,30)" font-family="sans-serif" font-size="11px" font-weight="bold" fill="#000" opacity="1">Modeled Buffered [Metal] [µmol/L]</text></g></g><path class="foreground" aria-hidden="true" d="" pointer-events="none" display="none"/></g></g><g class="mark-group role-axis" role="graphics-symbol" aria-roledescription="axis" aria-label="Y-axis titled 'Estimated Deficit [µmol/L]' for a log scale with values from 0.000001 to 1,000,000"><g transform="translate(0.5,0.5)"><path class="background" aria-hidden="true" d="M0,0h0v0h0Z" pointer-events="none"/><g><g class="mark-rule role-axis-tick" pointer-events="none"><line transform="translate(0,480)" x2="-5" y2="0" stroke="#888" stroke-width="1" opacity="1"/><line transform="translate(0,440)" x2="-5" y2="0" stroke="#888" stroke-width="1" opacity="1"/><line transform="translate(0,400)" x2="-5" y2="0" stroke="#888" stroke-width="1" opacity="1"/><line transform="translate(0,360)" x2="-5" y2="0" stroke="#888" stroke-width="1" opacity="1"/><line transform="translate(0,320)" x2="-5" y2="0" stroke="#888" stroke-width="1" opacity="1"/><line transform="translate(0,280)" x2="-5" y2="0" stroke="#888" stroke-width="1" opacity="1"/><line transform="translate(0,240)" x2="-5" y2="0" stroke="#888" stroke-width="1" opacity="1"/><line transform="translate(0,200)" x2="-5" y2="0" stroke="#888" stroke-width="1" opacity="1"/><line transform="translate(0,160)" x2="-5" y2="0" stroke="#888" stroke-width="1" opacity="1"/><line transform="translate(0,120)" x2="-5" y2="0" stroke="#888" stroke-width="1" opacity="1"/><line transform="translate(0,80)" x2="-5" y2="0" stroke="#888" stroke-width="1" opacity="1"/><line transform="translate(0,40)" x2="-5" y2="0" stroke="#888" stroke-width="1" opacity="1"/><line transform="translate(0,0)" x2="-5" y2="0" stroke="#888" stroke-width="1" opacity="1"/></g><g class="mark-text role-axis-label" pointer-events="none"><text text-anchor="end" transform="translate(-7,483)" font-family="sans-serif" font-size="10px" fill="#000" opacity="1">10⁻⁶</text><text text-anchor="end" transform="translate(-7,443.00000000000006)" font-family="sans-serif" font-size="10px" fill="#000" opacity="1">10⁻⁵</text><text text-anchor="end" transform="translate(-7,402.99999999999994)" font-family="sans-serif" font-size="10px" fill="#000" opacity="1">10⁻⁴</text><text text-anchor="end" transform="translate(-7,363)" font-family="sans-serif" font-size="10px" fill="#000" opacity="1">10⁻³</text><text text-anchor="end" transform="translate(-7,323)" font-family="sans-serif" font-size="10px" fill="#000" opacity="1">10⁻²</text><text text-anchor="end" transform="translate(-7,282.99999999999994)" font-family="sans-serif" font-size="10px" fill="#000" opacity="1">10⁻¹</text><text text-anchor="end" transform="translate(-7,243)" font-family="sans-serif" font-size="10px" fill="#000" opacity="1">10⁰</text><text text-anchor="end" transform="translate(-7,202.99999999999997)" font-family="sans-serif" font-size="10px" fill="#000" opacity="1">10¹</text><text text-anchor="end" transform="translate(-7,162.99999999999997)" font-family="sans-serif" font-size="10px" fill="#000" opacity="1">10²</text><text text-anchor="end" transform="translate(-7,123)" font-family="sans-serif" font-size="10px" fill="#000" opacity="1">10³</text><text text-anchor="end" transform="translate(-7,82.99999999999999)" font-family="sans-serif" font-size="10px" fill="#000" opacity="1">10⁴</text><text text-anchor="end" transform="translate(-7,42.999999999999964)" font-family="sans-serif" font-size="10px" fill="#000" opacity="1">10⁵</text><text text-anchor="end" transform="translate(-7,3)" font-family="sans-serif" font-size="10px" fill="#000" opacity="1">10⁶</text></g><g class="mark-rule role-axis-domain" pointer-events="none"><line transform="translate(0,480)" x2="0" y2="-480" stroke="#888" stroke-width="1" opacity="1"/></g><g class="mark-text role-axis-title" pointer-events="none"><text text-anchor="middle" transform="translate(-28.529296875,240) rotate(-90) translate(0,-2)" font-family="sans-serif" font-size="11px" font-weight="bold" fill="#000" opacity="1">Estimated Deficit [µmol/L]</text></g></g><path class="foreground" aria-hidden="true" d="" pointer-events="none" display="none"/></g></g><g class="mark-line role-mark layer_0_marks" role="graphics-object" aria-roledescription="line mark container"><path aria-label="v: 0.000001" role="graphics-symbol" aria-roledescription="line mark" d="M0,480L600,0" stroke="gray" stroke-width="2" stroke-dasharray="4,4"/></g><g class="mark-rect role-mark layer_1_layer_0_marks" aria-hidden="true"><path d="M325.99854796112146,210.51070992676424h1v15h-1Z" fill="steelblue" opacity="0.7"/><path d="M270.58754533819047,231.54436200299534h1v15h-1Z" fill="tomato" opacity="0.7"/></g><g class="mark-rect role-mark layer_1_layer_1_marks" aria-hidden="true"><path d="M379.6783506469254,210.51070992676424h1v15h-1Z" fill="steelblue" opacity="0.7"/><path d="M322.78643482474115,231.54436200299534h1v15h-1Z" fill="tomato" opacity="0.7"/></g><g class="mark-rule role-mark layer_1_layer_2_marks" role="graphics-object" aria-roledescription="rule mark container"><line aria-label="lower_x_lb_uM: 3.38821498774; y_uM: 3.54594709603; upper_x_lb_uM: 40.1390429229; Medium: Minimal; x_ub_uM: 40.1390429229; x_lb_uM: 3.38821498774" role="graphics-symbol" aria-roledescription="errorbar" transform="translate(326.49854796112146,218.01070992676424)" x2="53.67980268580396" y2="0" stroke="steelblue"/><line aria-label="lower_x_lb_uM: 0.264089361621; y_uM: 1.05655217874; upper_x_lb_uM: 2.92232623204; Medium: Rich; x_ub_uM: 2.92232623204; x_lb_uM: 0.264089361621" role="graphics-symbol" aria-roledescription="errorbar" transform="translate(271.08754533819047,239.04436200299534)" x2="52.198889486550684" y2="0" stroke="tomato"/></g><g class="mark-rect role-mark layer_2_layer_0_marks" clip-path="url(#clip19)" aria-hidden="true"><path d="M359.3865656539515,224.35249341741263h15v1h-15Z" fill="steelblue" opacity="0.7"/><path d="M302.61362115452886,251.2703582266317h15v1h-15Z" fill="tomato" opacity="0.7"/></g><g class="mark-rect role-mark layer_2_layer_1_marks" clip-path="url(#clip20)" aria-hidden="true"><path d="M359.3865656539515,212.61498043233487h15v1h-15Z" fill="steelblue" opacity="0.7"/><path d="M302.61362115452886,231.2783164098005h15v1h-15Z" fill="tomato" opacity="0.7"/></g><g class="mark-rule role-mark layer_2_layer_2_marks" clip-path="url(#clip21)" role="graphics-object" aria-roledescription="rule mark container"><line aria-label="x_uM: 21.7636289553; lower_y_lo_uM: 2.39159515296; upper_y_lo_uM: 4.70029903911; Medium: Minimal; y_hi_uM: 4.70029903911; y_lo_uM: 2.39159515296" role="graphics-symbol" aria-roledescription="errorbar" transform="translate(366.8865656539515,224.85249341741263)" x2="0" y2="-11.737512985077757" stroke="steelblue"/><line aria-label="x_uM: 1.59320779683; lower_y_lo_uM: 0.507856533939; upper_y_lo_uM: 1.60524782354; Medium: Rich; y_hi_uM: 1.60524782354; y_lo_uM: 0.507856533939" role="graphics-symbol" aria-roledescription="errorbar" transform="translate(310.11362115452886,251.7703582266317)" x2="0" y2="-19.992041816831204" stroke="tomato"/></g><g class="mark-symbol role-mark layer_3_marks" role="graphics-object" aria-roledescription="symbol mark container"><path aria-label="x_uM: 21.7636289553; y_uM: 3.54594709603; Medium: Minimal" role="graphics-symbol" aria-roledescription="point" transform="translate(366.8865656539515,218.01070992676424)" d="M5.477,0A5.477,5.477,0,1,1,-5.477,0A5.477,5.477,0,1,1,5.477,0" fill="steelblue" stroke="black" stroke-width="1" opacity="0.7"/><path aria-label="x_uM: 1.59320779683; y_uM: 1.05655217874; Medium: Rich" role="graphics-symbol" aria-roledescription="point" transform="translate(310.11362115452886,239.04436200299534)" d="M-5.477,0L0,-5.477L5.477,0L0,5.477Z" fill="tomato" stroke="black" stroke-width="1" opacity="0.7"/></g><g class="mark-text role-mark layer_4_marks" role="graphics-object" aria-roledescription="text mark container"><text aria-label="x_uM: 21.7636289553; y_uM: 3.54594709603; Element: NI" role="graphics-symbol" aria-roledescription="text mark" text-anchor="middle" transform="translate(381.8865656539515,207.01070992676424)" font-family="sans-serif" font-size="12px" fill="black">NI</text><text aria-label="x_uM: 1.59320779683; y_uM: 1.05655217874; Element: NI" role="graphics-symbol" aria-roledescription="text mark" text-anchor="middle" transform="translate(325.11362115452886,228.04436200299534)" font-family="sans-serif" font-size="12px" fill="black">NI</text></g><g class="mark-group role-legend" role="graphics-symbol" aria-roledescription="legend" aria-label="Symbol legend titled 'Medium' for shape, fill color and stroke color with 2 values: Minimal, Rich"><g transform="translate(618,0)"><path class="background" aria-hidden="true" d="M0,0h51v45h-51Z" pointer-events="none"/><g><g class="mark-group role-legend-entry"><g transform="translate(0,16)"><path class="background" aria-hidden="true" d="M0,0h0v0h0Z" pointer-events="none"/><g><g class="mark-group role-scope" role="graphics-object" aria-roledescription="group mark container"><g transform="translate(0,0)"><path class="background" aria-hidden="true" d="M0,0h50.4482421875v12.5h-50.4482421875Z" pointer-events="none" opacity="1"/><g><g class="mark-symbol role-legend-symbol" pointer-events="none"><path transform="translate(6,6)" d="M5,0A5,5,0,1,1,-5,0A5,5,0,1,1,5,0" fill="steelblue" stroke="steelblue" stroke-width="1.5" opacity="0.7"/></g><g class="mark-text role-legend-label" pointer-events="none"><text text-anchor="start" transform="translate(16,9)" font-family="sans-serif" font-size="10px" fill="#000" opacity="1">Minimal</text></g></g><path class="foreground" aria-hidden="true" d="" pointer-events="none" display="none"/></g><g transform="translate(0,16)"><path class="background" aria-hidden="true" d="M0,0h50.4482421875v12.5h-50.4482421875Z" pointer-events="none" opacity="1"/><g><g class="mark-symbol role-legend-symbol" pointer-events="none"><path transform="translate(6,6)" d="M-5,0L0,-5L5,0L0,5Z" fill="tomato" stroke="tomato" stroke-width="1.5" opacity="0.7"/></g><g class="mark-text role-legend-label" pointer-events="none"><text text-anchor="start" transform="translate(16,9)" font-family="sans-serif" font-size="10px" fill="#000" opacity="1">Rich</text></g></g><path class="foreground" aria-hidden="true" d="" pointer-events="none" display="none"/></g></g></g><path class="foreground" aria-hidden="true" d="" pointer-events="none" display="none"/></g></g><g class="mark-text role-legend-title" pointer-events="none"><text text-anchor="start" transform="translate(0,9)" font-family="sans-serif" font-size="11px" font-weight="bold" fill="#000" opacity="1">Medium</text></g></g><path class="foreground" aria-hidden="true" d="" pointer-events="none" display="none"/></g></g><g class="mark-group role-title"><g transform="translate(300,-22)"><path class="background" aria-hidden="true" d="M0,0h0v0h0Z" pointer-events="none"/><g><g class="mark-text role-title-text" role="graphics-symbol" aria-roledescription="title" aria-label="Title text 'Buffered Metal Concentration vs. Deficit Fig1C – Competition Model'" pointer-events="none"><text text-anchor="middle" transform="translate(0,10)" font-family="sans-serif" font-size="13px" font-weight="bold" fill="#000" opacity="1">Buffered Metal Concentration vs. Deficit Fig1C – Competition Model</text></g></g><path class="foreground" aria-hidden="true" d="" pointer-events="none" display="none"/></g></g></g><path class="foreground" aria-hidden="true" d="" display="none"/></g></g></g><defs><clipPath id="clip19"><rect x="0" y="0" width="600" height="480"/></clipPath><clipPath id="clip20"><rect x="0" y="0" width="600" height="480"/></clipPath><clipPath id="clip21"><rect x="0" y="0" width="600" height="480"/></clipPath></defs></svg>