<svg xmlns="http://www.w3.org/2000/svg" xmlns:xlink="http://www.w3.org/1999/xlink" version="1.1" class="marks" width="780" height="544" viewBox="0 0 780 544"><rect width="780" height="544" fill="white"/><g fill="none" stroke-miterlimit="10" transform="translate(45,27)"><g class="mark-group role-frame root" role="graphics-object" aria-roledescription="group mark container"><g transform="translate(0,0)"><path class="background" aria-hidden="true" d="M0.5,0.5h600v480h-600Z" stroke="#ddd"/><g><g class="mark-group role-axis" aria-hidden="true"><g transform="translate(0.5,480.5)"><path class="background" aria-hidden="true" d="M0,0h0v0h0Z" pointer-events="none"/><g><g class="mark-rule role-axis-grid" pointer-events="none"><line transform="translate(0,-480)" x2="0" y2="480" stroke="#f3f6fa" stroke-width="1" opacity="1"/><line transform="translate(50,-480)" x2="0" y2="480" stroke="#f3f6fa" stroke-width="1" opacity="1"/><line transform="translate(100,-480)" x2="0" y2="480" stroke="#f3f6fa" stroke-width="1" opacity="1"/><line transform="translate(150,-480)" x2="0" y2="480" stroke="#f3f6fa" stroke-width="1" opacity="1"/><line transform="translate(200,-480)" x2="0" y2="480" stroke="#f3f6fa" stroke-width="1" opacity="1"/><line transform="translate(250,-480)" x2="0" y2="480" stroke="#f3f6fa" stroke-width="1" opacity="1"/><line transform="translate(300,-480)" x2="0" y2="480" stroke="#f3f6fa" stroke-width="1" opacity="1"/><line transform="translate(350,-480)" x2="0" y2="480" stroke="#f3f6fa" stroke-width="1" opacity="1"/><line transform="translate(400,-480)" x2="0" y2="480" stroke="#f3f6fa" stroke-width="1" opacity="1"/><line transform="translate(450,-480)" x2="0" y2="480" stroke="#f3f6fa" stroke-width="1" opacity="1"/><line transform="translate(500,-480)" x2="0" y2="480" stroke="#f3f6fa" stroke-width="1" opacity="1"/><line transform="translate(550,-480)" x2="0" y2="480" stroke="#f3f6fa" stroke-width="1" opacity="1"/><line transform="translate(600,-480)" x2="0" y2="480" stroke="#f3f6fa" stroke-width="1" opacity="1"/></g></g><path class="foreground" aria-hidden="true" d="" pointer-events="none" display="none"/></g></g><g class="mark-group role-axis" aria-hidden="true"><g transform="translate(0.5,0.5)"><path class="background" aria-hidden="true" d="M0,0h0v0h0Z" pointer-events="none"/><g><g class="mark-rule role-axis-grid" pointer-events="none"><line transform="translate(0,480)" x2="600" y2="0" stroke="#f3f6fa" stroke-width="1" opacity="1"/><line transform="translate(0,440)" x2="600" y2="0" stroke="#f3f6fa" stroke-width="1" opacity="1"/><line transform="translate(0,400)" x2="600" y2="0" stroke="#f3f6fa" stroke-width="1" opacity="1"/><line transform="translate(0,360)" x2="600" y2="0" stroke="#f3f6fa" stroke-width="1" opacity="1"/><line transform="translate(0,320)" x2="600" y2="0" stroke="#f3f6fa" stroke-width="1" opacity="1"/><line transform="translate(0,280)" x2="600" y2="0" stroke="#f3f6fa" stroke-width="1" opacity="1"/><line transform="translate(0,240)" x2="600" y2="0" stroke="#f3f6fa" stroke-width="1" opacity="1"/><line transform="translate(0,200)" x2="600" y2="0" stroke="#f3f6fa" stroke-width="1" opacity="1"/><line transform="translate(0,160)" x2="600" y2="0" stroke="#f3f6fa" stroke-width="1" opacity="1"/><line transform="translate(0,120)" x2="600" y2="0" stroke="#f3f6fa" stroke-width="1" opacity="1"/><line transform="translate(0,80)" x2="600" y2="0" stroke="#f3f6fa" stroke-width="1" opacity="1"/><line transform="translate(0,40)" x2="600" y2="0" stroke="#f3f6fa" stroke-width="1" opacity="1"/><line transform="translate(0,0)" x2="600" y2="0" stroke="#f3f6fa" stroke-width="1" opacity="1"/></g></g><path class="foreground" aria-hidden="true" d="" pointer-events="none" display="none"/></g></g><g class="mark-group role-axis" role="graphics-symbol" aria-roledescription="axis" aria-label="X-axis titled 'Modeled Buffered [Metal] [µmol/L]' for a log scale with values from 0.000001 to 1,000,000"><g transform="translate(0.5,480.5)"><path class="background" aria-hidden="true" d="M0,0h0v0h0Z" pointer-events="none"/><g><g class="mark-rule role-axis-tick" pointer-events="none"><line transform="translate(0,0)" x2="0" y2="5" stroke="#888" stroke-width="1" opacity="1"/><line transform="translate(50,0)" x2="0" y2="5" stroke="#888" stroke-width="1" opacity="1"/><line transform="translate(100,0)" x2="0" y2="5" stroke="#888" stroke-width="1" opacity="1"/><line transform="translate(150,0)" x2="0" y2="5" stroke="#888" stroke-width="1" opacity="1"/><line transform="translate(200,0)" x2="0" y2="5" stroke="#888" stroke-width="1" opacity="1"/><line transform="translate(250,0)" x2="0" y2="5" stroke="#888" stroke-width="1" opacity="1"/><line transform="translate(300,0)" x2="0" y2="5" stroke="#888" stroke-width="1" opacity="1"/><line transform="translate(350,0)" x2="0" y2="5" stroke="#888" stroke-width="1" opacity="1"/><line transform="translate(400,0)" x2="0" y2="5" stroke="#888" stroke-width="1" opacity="1"/><line transform="translate(450,0)" x2="0" y2="5" stroke="#888" stroke-width="1" opacity="1"/><line transform="translate(500,0)" x2="0" y2="5" stroke="#888" stroke-width="1" opacity="1"/><line transform="translate(550,0)" x2="0" y2="5" stroke="#888" stroke-width="1" opacity="1"/><line transform="translate(600,0)" x2="0" y2="5" stroke="#888" stroke-width="1" opacity="1"/></g><g class="mark-text role-axis-label" pointer-events="none"><text text-anchor="start" transform="translate(0,15)" font-family="sans-serif" font-size="10px" fill="#000" opacity="1">10⁻⁶</text><text text-anchor="middle" transform="translate(49.999999999999986,15)" font-family="sans-serif" font-size="10px" fill="#000" opacity="1">10⁻⁵</text><text text-anchor="middle" transform="translate(100.00000000000001,15)" font-family="sans-serif" font-size="10px" fill="#000" opacity="1">10⁻⁴</text><text text-anchor="middle" transform="translate(150,15)" font-family="sans-serif" font-size="10px" fill="#000" opacity="1">10⁻³</text><text text-anchor="middle" transform="translate(200.00000000000003,15)" font-family="sans-serif" font-size="10px" fill="#000" opacity="1">10⁻²</text><text text-anchor="middle" transform="translate(250,15)" font-family="sans-serif" font-size="10px" fill="#000" opacity="1">10⁻¹</text><text text-anchor="middle" transform="translate(300,15)" font-family="sans-serif" font-size="10px" fill="#000" opacity="1">10⁰</text><text text-anchor="middle" transform="translate(350,15)" font-family="sans-serif" font-size="10px" fill="#000" opacity="1">10¹</text><text text-anchor="middle" transform="translate(400.00000000000006,15)" font-family="sans-serif" font-size="10px" fill="#000" opacity="1">10²</text><text text-anchor="middle" transform="translate(450,15)" font-family="sans-serif" font-size="10px" fill="#000" opacity="1">10³</text><text text-anchor="middle" transform="translate(500,15)" font-family="sans-serif" font-size="10px" fill="#000" opacity="1">10⁴</text><text text-anchor="middle" transform="translate(550,15)" font-family="sans-serif" font-size="10px" fill="#000" opacity="1">10⁵</text><text text-anchor="end" transform="translate(600,15)" font-family="sans-serif" font-size="10px" fill="#000" opacity="1">10⁶</text></g><g class="mark-rule role-axis-domain" pointer-events="none"><line transform="translate(0,0)" x2="600" y2="0" stroke="#888" stroke-width="1" opacity="1"/></g><g class="mark-text role-axis-title" pointer-events="none"><text text-anchor="middle" transform="translate(300,30)" font-family="sans-serif" font-size="11px" font-weight="bold" fill="#000" opacity="1">Modeled Buffered [Metal] [µmol/L]</text></g></g><path class="foreground" aria-hidden="true" d="" pointer-events="none" display="none"/></g></g><g class="mark-group role-axis" role="graphics-symbol" aria-roledescription="axis" aria-label="Y-axis titled 'Estimated Deficit [µmol/L]' for a log scale with values from 0.000001 to 1,000,000"><g transform="translate(0.5,0.5)"><path class="background" aria-hidden="true" d="M0,0h0v0h0Z" pointer-events="none"/><g><g class="mark-rule role-axis-tick" pointer-events="none"><line transform="translate(0,480)" x2="-5" y2="0" stroke="#888" stroke-width="1" opacity="1"/><line transform="translate(0,440)" x2="-5" y2="0" stroke="#888" stroke-width="1" opacity="1"/><line transform="translate(0,400)" x2="-5" y2="0" stroke="#888" stroke-width="1" opacity="1"/><line transform="translate(0,360)" x2="-5" y2="0" stroke="#888" stroke-width="1" opacity="1"/><line transform="translate(0,320)" x2="-5" y2="0" stroke="#888" stroke-width="1" opacity="1"/><line transform="translate(0,280)" x2="-5" y2="0" stroke="#888" stroke-width="1" opacity="1"/><line transform="translate(0,240)" x2="-5" y2="0" stroke="#888" stroke-width="1" opacity="1"/><line transform="translate(0,200)" x2="-5" y2="0" stroke="#888" stroke-width="1" opacity="1"/><line transform="translate(0,160)" x2="-5" y2="0" stroke="#888" stroke-width="1" opacity="1"/><line transform="translate(0,120)" x2="-5" y2="0" stroke="#888" stroke-width="1" opacity="1"/><line transform="translate(0,80)" x2="-5" y2="0" stroke="#888" stroke-width="1" opacity="1"/><line transform="translate(0,40)" x2="-5" y2="0" stroke="#888" stroke-width="1" opacity="1"/><line transform="translate(0,0)" x2="-5" y2="0" stroke="#888" stroke-width="1" opacity="1"/></g><g class="mark-text role-axis-label" pointer-events="none"><text text-anchor="end" transform="translate(-7,483)" font-family="sans-serif" font-size="10px" fill="#000" opacity="1">10⁻⁶</text><text text-anchor="end" transform="translate(-7,443.00000000000006)" font-family="sans-serif" font-size="10px" fill="#000" opacity="1">10⁻⁵</text><text text-anchor="end" transform="translate(-7,402.99999999999994)" font-family="sans-serif" font-size="10px" fill="#000" opacity="1">10⁻⁴</text><text text-anchor="end" transform="translate(-7,363)" font-family="sans-serif" font-size="10px" fill="#000" opacity="1">10⁻³</text><text text-anchor="end" transform="translate(-7,323)" font-family="sans-serif" font-size="10px" fill="#000" opacity="1">10⁻²</text><text text-anchor="end" transform="translate(-7,282.99999999999994)" font-family="sans-serif" font-size="10px" fill="#000" opacity="1">10⁻¹</text><text text-anchor="end" transform="translate(-7,243)" font-family="sans-serif" font-size="10px" fill="#000" opacity="1">10⁰</text><text text-anchor="end" transform="translate(-7,202.99999999999997)" font-family="sans-serif" font-size="10px" fill="#000" opacity="1">10¹</text><text text-anchor="end" transform="translate(-7,162.99999999999997)" font-family="sans-serif" font-size="10px" fill="#000" opacity="1">10²</text><text text-anchor="end" transform="translate(-7,123)" font-family="sans-serif" font-size="10px" fill="#000" opacity="1">10³</text><text text-anchor="end" transform="translate(-7,82.99999999999999)" font-family="sans-serif" font-size="10px" fill="#000" opacity="1">10⁴</text><text text-anchor="end" transform="translate(-7,42.999999999999964)" font-family="sans-serif" font-size="10px" fill="#000" opacity="1">10⁵</text><text text-anchor="end" transform="translate(-7,3)" font-family="sans-serif" font-size="10px" fill="#000" opacity="1">10⁶</text></g><g class="mark-rule role-axis-domain" pointer-events="none"><line transform="translate(0,480)" x2="0" y2="-480" stroke="#888" stroke-width="1" opacity="1"/></g><g class="mark-text role-axis-title" pointer-events="none"><text text-anchor="middle" transform="translate(-28.529296875,240) rotate(-90) translate(0,-2)" font-family="sans-serif" font-size="11px" font-weight="bold" fill="#000" opacity="1">Estimated Deficit [µmol/L]</text></g></g><path class="foreground" aria-hidden="true" d="" pointer-events="none" display="none"/></g></g><g class="mark-line role-mark layer_0_marks" role="graphics-object" aria-roledescription="line mark container"><path aria-label="v: 0.000001" role="graphics-symbol" aria-roledescription="line mark" d="M0,480L600,0" stroke="gray" stroke-width="2" stroke-dasharray="4,4"/></g><g class="mark-symbol role-mark layer_1_marks" role="graphics-object" aria-roledescription="symbol mark container"><path aria-label="Modeled Buffered [Metal] [µmol/L]: 17.1477342094; Estimated Deficit [µmol/L]: 0.595660322506; medium_model: Minimal (simplified)" role="graphics-symbol" aria-roledescription="point" transform="translate(361.71033716544184,249.00005310805892)" d="M6.124,0A6.124,6.124,0,1,1,-6.124,0A6.124,6.124,0,1,1,6.124,0" fill="steelblue" stroke="black" stroke-width="1" opacity="0.45"/><path aria-label="Modeled Buffered [Metal] [µmol/L]: 195.024836713; Estimated Deficit [µmol/L]: 3.54594709603; medium_model: Minimal (simplified)" role="graphics-symbol" aria-roledescription="point" transform="translate(414.50449614773663,218.01070992676424)" d="M6.124,0A6.124,6.124,0,1,1,-6.124,0A6.124,6.124,0,1,1,6.124,0" fill="steelblue" stroke="black" stroke-width="1" opacity="0.45"/><path aria-label="Modeled Buffered [Metal] [µmol/L]: 46928.0978045; Estimated Deficit [µmol/L]: 60.7635958387; medium_model: Rich (simplified)" role="graphics-symbol" aria-roledescription="point" transform="translate(533.5716475383002,168.65426134318528)" d="M-6.124,0L0,-6.124L6.124,0L0,6.124Z" fill="tomato" stroke="black" stroke-width="1" opacity="0.45"/><path aria-label="Modeled Buffered [Metal] [µmol/L]: 12.5333274263; Estimated Deficit [µmol/L]: 0.239662747921; medium_model: Rich (simplified)" role="graphics-symbol" aria-roledescription="point" transform="translate(354.9033192760928,264.81597861856034)" d="M-6.124,0L0,-6.124L6.124,0L0,6.124Z" fill="tomato" stroke="black" stroke-width="1" opacity="0.45"/><path aria-label="Modeled Buffered [Metal] [µmol/L]: 14.9448978389; Estimated Deficit [µmol/L]: 1.05655217874; medium_model: Rich (simplified)" role="graphics-symbol" aria-roledescription="point" transform="translate(358.72464753068795,239.04436200299534)" d="M-6.124,0L0,-6.124L6.124,0L0,6.124Z" fill="tomato" stroke="black" stroke-width="1" opacity="0.45"/><path aria-label="Modeled Buffered [Metal] [µmol/L]: 0.00543956394672; Estimated Deficit [µmol/L]: 39.1004104343; medium_model: Rich (simplified)" role="graphics-symbol" aria-roledescription="point" transform="translate(186.77820433120056,176.31274735285788)" d="M-6.124,0L0,-6.124L6.124,0L0,6.124Z" fill="tomato" stroke="black" stroke-width="1" opacity="0.45"/><path aria-label="Modeled Buffered [Metal] [µmol/L]: 119.157591759; Estimated Deficit [µmol/L]: 22.9044899894; medium_model: Rich (simplified)" role="graphics-symbol" aria-roledescription="point" transform="translate(403.8060858650091,185.60317496582888)" d="M-6.124,0L0,-6.124L6.124,0L0,6.124Z" fill="tomato" stroke="black" stroke-width="1" opacity="0.45"/></g><g class="mark-symbol role-mark layer_2_marks" role="graphics-object" aria-roledescription="symbol mark container"><path aria-label="x_uM: 12.3522459536; y_uM: 0.595660322506; medium_model: Minimal (competition)" role="graphics-symbol" aria-roledescription="point" transform="translate(354.58729652981805,249.00005310805892)" d="M6.124,0A6.124,6.124,0,1,1,-6.124,0A6.124,6.124,0,1,1,6.124,0" fill="steelblue" stroke="black" stroke-width="1" opacity="1"/><path aria-label="x_uM: 21.7636289553; y_uM: 3.54594709603; medium_model: Minimal (competition)" role="graphics-symbol" aria-roledescription="point" transform="translate(366.8865656539515,218.01070992676424)" d="M6.124,0A6.124,6.124,0,1,1,-6.124,0A6.124,6.124,0,1,1,6.124,0" fill="steelblue" stroke="black" stroke-width="1" opacity="1"/><path aria-label="x_uM: 6114.36481581; y_uM: 60.7635958387; medium_model: Rich (competition)" role="graphics-symbol" aria-roledescription="point" transform="translate(489.3175673751133,168.65426134318528)" d="M-6.124,0L0,-6.124L6.124,0L0,6.124Z" fill="tomato" stroke="black" stroke-width="1" opacity="1"/><path aria-label="x_uM: 5.981026853; y_uM: 0.239662747921; medium_model: Rich (competition)" role="graphics-symbol" aria-roledescription="point" transform="translate(338.83878761335586,264.81597861856034)" d="M-6.124,0L0,-6.124L6.124,0L0,6.124Z" fill="tomato" stroke="black" stroke-width="1" opacity="1"/><path aria-label="x_uM: 1.59320779683; y_uM: 1.05655217874; medium_model: Rich (competition)" role="graphics-symbol" aria-roledescription="point" transform="translate(310.11362115452886,239.04436200299534)" d="M-6.124,0L0,-6.124L6.124,0L0,6.124Z" fill="tomato" stroke="black" stroke-width="1" opacity="1"/><path aria-label="x_uM: 0.00191822939801; y_uM: 39.1004104343; medium_model: Rich (competition)" role="graphics-symbol" aria-roledescription="point" transform="translate(164.14502712646018,176.31274735285788)" d="M-6.124,0L0,-6.124L6.124,0L0,6.124Z" fill="tomato" stroke="black" stroke-width="1" opacity="1"/><path aria-label="x_uM: 22.3187293204; y_uM: 22.9044899894; medium_model: Rich (competition)" role="graphics-symbol" aria-roledescription="point" transform="translate(367.4334732569303,185.60317496582888)" d="M-6.124,0L0,-6.124L6.124,0L0,6.124Z" fill="tomato" stroke="black" stroke-width="1" opacity="1"/></g><g class="mark-rule role-mark layer_3_marks" role="graphics-object" aria-roledescription="rule mark container"><line aria-label="x_uM: 17.1477342094; y_uM: 0.595660322506; x_uM_comp: 12.3522459536; y_uM_comp: 0.595660322506" role="graphics-symbol" aria-roledescription="rule mark" transform="translate(361.71033716544184,249.00005310805892)" x2="-7.123040635623795" y2="0" stroke="gray" stroke-width="1.2" opacity="0.6"/><line aria-label="x_uM: 195.024836713; y_uM: 3.54594709603; x_uM_comp: 21.7636289553; y_uM_comp: 3.54594709603" role="graphics-symbol" aria-roledescription="rule mark" transform="translate(414.50449614773663,218.01070992676424)" x2="-47.61793049378514" y2="0" stroke="gray" stroke-width="1.2" opacity="0.6"/><line aria-label="x_uM: 46928.0978045; y_uM: 60.7635958387; x_uM_comp: 6114.36481581; y_uM_comp: 60.7635958387" role="graphics-symbol" aria-roledescription="rule mark" transform="translate(533.5716475383002,168.65426134318528)" x2="-44.25408016318693" y2="0" stroke="gray" stroke-width="1.2" opacity="0.6"/><line aria-label="x_uM: 12.5333274263; y_uM: 0.239662747921; x_uM_comp: 5.981026853; y_uM_comp: 0.239662747921" role="graphics-symbol" aria-roledescription="rule mark" transform="translate(354.9033192760928,264.81597861856034)" x2="-16.064531662736954" y2="0" stroke="gray" stroke-width="1.2" opacity="0.6"/><line aria-label="x_uM: 14.9448978389; y_uM: 1.05655217874; x_uM_comp: 1.59320779683; y_uM_comp: 1.05655217874" role="graphics-symbol" aria-roledescription="rule mark" transform="translate(358.72464753068795,239.04436200299534)" x2="-48.61102637615909" y2="0" stroke="gray" stroke-width="1.2" opacity="0.6"/><line aria-label="x_uM: 0.00543956394672; y_uM: 39.1004104343; x_uM_comp: 0.00191822939801; y_uM_comp: 39.1004104343" role="graphics-symbol" aria-roledescription="rule mark" transform="translate(186.77820433120056,176.31274735285788)" x2="-22.633177204740377" y2="0" stroke="gray" stroke-width="1.2" opacity="0.6"/><line aria-label="x_uM: 119.157591759; y_uM: 22.9044899894; x_uM_comp: 22.3187293204; y_uM_comp: 22.9044899894" role="graphics-symbol" aria-roledescription="rule mark" transform="translate(403.8060858650091,185.60317496582888)" x2="-36.37261260807878" y2="0" stroke="gray" stroke-width="1.2" opacity="0.6"/></g><g class="mark-symbol role-mark layer_4_marks" role="graphics-object" aria-roledescription="symbol mark container"><path aria-label="x_uM_comp: 12.3522459536; y_uM_comp: 0.595660322506; arrow_angle_deg: −90" role="graphics-symbol" aria-roledescription="point" transform="translate(354.58729652981805,249.00005310805892) rotate(-90)" d="M0,-2.582L-2.236,1.291L2.236,1.291Z" fill="darkgray" stroke-width="2" opacity="0.8"/><path aria-label="x_uM_comp: 21.7636289553; y_uM_comp: 3.54594709603; arrow_angle_deg: −90" role="graphics-symbol" aria-roledescription="point" transform="translate(366.8865656539515,218.01070992676424) rotate(-90)" d="M0,-2.582L-2.236,1.291L2.236,1.291Z" fill="darkgray" stroke-width="2" opacity="0.8"/><path aria-label="x_uM_comp: 6114.36481581; y_uM_comp: 60.7635958387; arrow_angle_deg: −90" role="graphics-symbol" aria-roledescription="point" transform="translate(489.3175673751133,168.65426134318528) rotate(-90)" d="M0,-2.582L-2.236,1.291L2.236,1.291Z" fill="darkgray" stroke-width="2" opacity="0.8"/><path aria-label="x_uM_comp: 5.981026853; y_uM_comp: 0.239662747921; arrow_angle_deg: −90" role="graphics-symbol" aria-roledescription="point" transform="translate(338.83878761335586,264.81597861856034) rotate(-90)" d="M0,-2.582L-2.236,1.291L2.236,1.291Z" fill="darkgray" stroke-width="2" opacity="0.8"/><path aria-label="x_uM_comp: 1.59320779683; y_uM_comp: 1.05655217874; arrow_angle_deg: −90" role="graphics-symbol" aria-roledescription="point" transform="translate(310.11362115452886,239.04436200299534) rotate(-90)" d="M0,-2.582L-2.236,1.291L2.236,1.291Z" fill="darkgray" stroke-width="2" opacity="0.8"/><path aria-label="x_uM_comp: 0.00191822939801; y_uM_comp: 39.1004104343; arrow_angle_deg: −90" role="graphics-symbol" aria-roledescription="point" transform="translate(164.14502712646018,176.31274735285788) rotate(-90)" d="M0,-2.582L-2.236,1.291L2.236,1.291Z" fill="darkgray" stroke-width="2" opacity="0.8"/><path aria-label="x_uM_comp: 22.3187293204; y_uM_comp: 22.9044899894; arrow_angle_deg: −90" role="graphics-symbol" aria-roledescription="point" transform="translate(367.4334732569303,185.60317496582888) rotate(-90)" d="M0,-2.582L-2.236,1.291L2.236,1.291Z" fill="darkgray" stroke-width="2" opacity="0.8"/></g><g class="mark-text role-mark layer_5_marks" role="graphics-object" aria-roledescription="text mark container"><text aria-label="x_uM: 12.3522459536; y_uM: 0.595660322506; Element: CO" role="graphics-symbol" aria-roledescription="text mark" text-anchor="middle" transform="translate(362.58729652981805,244.00005310805892)" font-family="sans-serif" font-size="11px" fill="black">CO</text><text aria-label="x_uM: 21.7636289553; y_uM: 3.54594709603; Element: NI" role="graphics-symbol" aria-roledescription="text mark" text-anchor="middle" transform="translate(374.8865656539515,213.01070992676424)" font-family="sans-serif" font-size="11px" fill="black">NI</text><text aria-label="x_uM: 6114.36481581; y_uM: 60.7635958387; Element: FE" role="graphics-symbol" aria-roledescription="text mark" text-anchor="middle" transform="translate(497.3175673751133,163.65426134318528)" font-family="sans-serif" font-size="11px" fill="black">FE</text><text aria-label="x_uM: 5.981026853; y_uM: 0.239662747921; Element: CO" role="graphics-symbol" aria-roledescription="text mark" text-anchor="middle" transform="translate(346.83878761335586,259.81597861856034)" font-family="sans-serif" font-size="11px" fill="black">CO</text><text aria-label="x_uM: 1.59320779683; y_uM: 1.05655217874; Element: NI" role="graphics-symbol" aria-roledescription="text mark" text-anchor="middle" transform="translate(318.11362115452886,234.04436200299534)" font-family="sans-serif" font-size="11px" fill="black">NI</text><text aria-label="x_uM: 0.00191822939801; y_uM: 39.1004104343; Element: CU" role="graphics-symbol" aria-roledescription="text mark" text-anchor="middle" transform="translate(172.14502712646018,171.31274735285788)" font-family="sans-serif" font-size="11px" fill="black">CU</text><text aria-label="x_uM: 22.3187293204; y_uM: 22.9044899894; Element: ZN" role="graphics-symbol" aria-roledescription="text mark" text-anchor="middle" transform="translate(375.4334732569303,180.60317496582888)" font-family="sans-serif" font-size="11px" fill="black">ZN</text></g><g class="mark-group role-legend" role="graphics-symbol" aria-roledescription="legend" aria-label="Symbol legend titled 'Medium / Model' for shape and fill color with 4 values: Minimal (simplified), Minimal (competition), Rich (simplified), Rich (competition)"><g transform="translate(618,0)"><path class="background" aria-hidden="true" d="M0,0h112v77h-112Z" pointer-events="none"/><g><g class="mark-group role-legend-entry"><g transform="translate(0,16)"><path class="background" aria-hidden="true" d="M0,0h0v0h0Z" pointer-events="none"/><g><g class="mark-group role-scope" role="graphics-object" aria-roledescription="group mark container"><g transform="translate(0,0)"><path class="background" aria-hidden="true" d="M0,0h111.0244140625v12.5h-111.0244140625Z" pointer-events="none" opacity="1"/><g><g class="mark-symbol role-legend-symbol" pointer-events="none"><path transform="translate(6,6)" d="M5,0A5,5,0,1,1,-5,0A5,5,0,1,1,5,0" fill="steelblue" stroke="black" stroke-width="1.5" opacity="0.45"/></g><g class="mark-text role-legend-label" pointer-events="none"><text text-anchor="start" transform="translate(16,9)" font-family="sans-serif" font-size="10px" fill="#000" opacity="1">Minimal (simplified)</text></g></g><path class="foreground" aria-hidden="true" d="" pointer-events="none" display="none"/></g><g transform="translate(0,16)"><path class="background" aria-hidden="true" d="M0,0h111.0244140625v12.5h-111.0244140625Z" pointer-events="none" opacity="1"/><g><g class="mark-symbol role-legend-symbol" pointer-events="none"><path transform="translate(6,6)" d="M5,0A5,5,0,1,1,-5,0A5,5,0,1,1,5,0" fill="steelblue" stroke="black" stroke-width="1.5" opacity="0.45"/></g><g class="mark-text role-legend-label" pointer-events="none"><text text-anchor="start" transform="translate(16,9)" font-family="sans-serif" font-size="10px" fill="#000" opacity="1">Minimal (competition)</text></g></g><path class="foreground" aria-hidden="true" d="" pointer-events="none" display="none"/></g><g transform="translate(0,32)"><path class="background" aria-hidden="true" d="M0,0h111.0244140625v12.5h-111.0244140625Z" pointer-events="none" opacity="1"/><g><g class="mark-symbol role-legend-symbol" pointer-events="none"><path transform="translate(6,6)" d="M-5,0L0,-5L5,0L0,5Z" fill="tomato" stroke="black" stroke-width="1.5" opacity="0.45"/></g><g class="mark-text role-legend-label" pointer-events="none"><text text-anchor="start" transform="translate(16,9)" font-family="sans-serif" font-size="10px" fill="#000" opacity="1">Rich (simplified)</text></g></g><path class="foreground" aria-hidden="true" d="" pointer-events="none" display="none"/></g><g transform="translate(0,48)"><path class="background" aria-hidden="true" d="M0,0h111.0244140625v12.5h-111.0244140625Z" pointer-events="none" opacity="1"/><g><g class="mark-symbol role-legend-symbol" pointer-events="none"><path transform="translate(6,6)" d="M-5,0L0,-5L5,0L0,5Z" fill="tomato" stroke="black" stroke-width="1.5" opacity="0.45"/></g><g class="mark-text role-legend-label" pointer-events="none"><text text-anchor="start" transform="translate(16,9)" font-family="sans-serif" font-size="10px" fill="#000" opacity="1">Rich (competition)</text></g></g><path class="foreground" aria-hidden="true" d="" pointer-events="none" display="none"/></g></g></g><path class="foreground" aria-hidden="true" d="" pointer-events="none" display="none"/></g></g><g class="mark-text role-legend-title" pointer-events="none"><text text-anchor="start" transform="translate(0,9)" font-family="sans-serif" font-size="11px" font-weight="bold" fill="#000" opacity="1">Medium / Model</text></g></g><path class="foreground" aria-hidden="true" d="" pointer-events="none" display="none"/></g></g><g class="mark-group role-title"><g transform="translate(300,-22)"><path class="background" aria-hidden="true" d="M0,0h0v0h0Z" pointer-events="none"/><g><g class="mark-text role-title-text" role="graphics-symbol" aria-roledescription="title" aria-label="Title text 'Overlay: Competition vs. Simplified Buffering Models'" pointer-events="none"><text text-anchor="middle" transform="translate(0,10)" font-family="sans-serif" font-size="13px" font-weight="bold" fill="#000" opacity="1">Overlay: Competition vs. Simplified Buffering Models</text></g></g><path class="foreground" aria-hidden="true" d="" pointer-events="none" display="none"/></g></g></g><path class="foreground" aria-hidden="true" d="" display="none"/></g></g></g></svg>