<?xml version="1.0" encoding="utf-8" standalone="no"?>
<!DOCTYPE svg PUBLIC "-//W3C//DTD SVG 1.1//EN"
  "http://www.w3.org/Graphics/SVG/1.1/DTD/svg11.dtd">
<svg xmlns:xlink="http://www.w3.org/1999/xlink" width="792pt" height="432pt" viewBox="0 0 792 432" xmlns="http://www.w3.org/2000/svg" version="1.1">
 <metadata>
  <rdf:RDF xmlns:dc="http://purl.org/dc/elements/1.1/" xmlns:cc="http://creativecommons.org/ns#" xmlns:rdf="http://www.w3.org/1999/02/22-rdf-syntax-ns#">
   <cc:Work>
    <dc:type rdf:resource="http://purl.org/dc/dcmitype/StillImage"/>
    <dc:date>2026-05-18T16:45:25.364059</dc:date>
    <dc:format>image/svg+xml</dc:format>
    <dc:creator>
     <cc:Agent>
      <dc:title>Matplotlib v3.10.3, https://matplotlib.org/</dc:title>
     </cc:Agent>
    </dc:creator>
   </cc:Work>
  </rdf:RDF>
 </metadata>
 <defs>
  <style type="text/css">*{stroke-linejoin: round; stroke-linecap: butt}</style>
 </defs>
 <g id="figure_1">
  <g id="patch_1">
   <path d="M 0 432 
L 792 432 
L 792 0 
L 0 0 
z
" style="fill: #ffffff"/>
  </g>
  <g id="axes_1">
   <g id="patch_2">
    <path d="M 355.7 387.52 
L 671.544 387.52 
L 671.544 26.52 
L 355.7 26.52 
z
" style="fill: #ffffff"/>
   </g>
   <g id="patch_3">
    <path d="M 355.7 379.999167 
L 506.101905 379.999167 
L 506.101905 364.9575 
L 355.7 364.9575 
z
" clip-path="url(#p4e2e1f1722)" style="fill: #1f77b4"/>
   </g>
   <g id="patch_4">
    <path d="M 355.7 349.915833 
L 455.967937 349.915833 
L 455.967937 334.874167 
L 355.7 334.874167 
z
" clip-path="url(#p4e2e1f1722)" style="fill: #1f77b4"/>
   </g>
   <g id="patch_5">
    <path d="M 355.7 319.8325 
L 522.813228 319.8325 
L 522.813228 304.790833 
L 355.7 304.790833 
z
" clip-path="url(#p4e2e1f1722)" style="fill: #1f77b4"/>
   </g>
   <g id="patch_6">
    <path d="M 355.7 289.749167 
L 422.545291 289.749167 
L 422.545291 274.7075 
L 355.7 274.7075 
z
" clip-path="url(#p4e2e1f1722)" style="fill: #1f77b4"/>
   </g>
   <g id="patch_7">
    <path d="M 355.7 259.665833 
L 455.967937 259.665833 
L 455.967937 244.624167 
L 355.7 244.624167 
z
" clip-path="url(#p4e2e1f1722)" style="fill: #1f77b4"/>
   </g>
   <g id="patch_8">
    <path d="M 355.7 229.5825 
L 439.256614 229.5825 
L 439.256614 214.540833 
L 355.7 214.540833 
z
" clip-path="url(#p4e2e1f1722)" style="fill: #1f77b4"/>
   </g>
   <g id="patch_9">
    <path d="M 355.7 199.499167 
L 455.967937 199.499167 
L 455.967937 184.4575 
L 355.7 184.4575 
z
" clip-path="url(#p4e2e1f1722)" style="fill: #1f77b4"/>
   </g>
   <g id="patch_10">
    <path d="M 355.7 169.415833 
L 389.122646 169.415833 
L 389.122646 154.374167 
L 355.7 154.374167 
z
" clip-path="url(#p4e2e1f1722)" style="fill: #1f77b4"/>
   </g>
   <g id="patch_11">
    <path d="M 355.7 139.3325 
L 372.411323 139.3325 
L 372.411323 124.290833 
L 355.7 124.290833 
z
" clip-path="url(#p4e2e1f1722)" style="fill: #1f77b4"/>
   </g>
   <g id="patch_12">
    <path d="M 355.7 109.249167 
L 455.967937 109.249167 
L 455.967937 94.2075 
L 355.7 94.2075 
z
" clip-path="url(#p4e2e1f1722)" style="fill: #1f77b4"/>
   </g>
   <g id="patch_13">
    <path d="M 355.7 79.165833 
L 472.679259 79.165833 
L 472.679259 64.124167 
L 355.7 64.124167 
z
" clip-path="url(#p4e2e1f1722)" style="fill: #1f77b4"/>
   </g>
   <g id="patch_14">
    <path d="M 355.7 49.0825 
L 489.390582 49.0825 
L 489.390582 34.040833 
L 355.7 34.040833 
z
" clip-path="url(#p4e2e1f1722)" style="fill: #1f77b4"/>
   </g>
   <g id="patch_15">
    <path d="M 355.7 379.999167 
L 355.7 379.999167 
L 355.7 364.9575 
L 355.7 364.9575 
z
" clip-path="url(#p4e2e1f1722)" style="fill: #ff7f0e"/>
   </g>
   <g id="patch_16">
    <path d="M 455.967937 349.915833 
L 472.679259 349.915833 
L 472.679259 334.874167 
L 455.967937 334.874167 
z
" clip-path="url(#p4e2e1f1722)" style="fill: #ff7f0e"/>
   </g>
   <g id="patch_17">
    <path d="M 522.813228 319.8325 
L 539.52455 319.8325 
L 539.52455 304.790833 
L 522.813228 304.790833 
z
" clip-path="url(#p4e2e1f1722)" style="fill: #ff7f0e"/>
   </g>
   <g id="patch_18">
    <path d="M 355.7 289.749167 
L 355.7 289.749167 
L 355.7 274.7075 
L 355.7 274.7075 
z
" clip-path="url(#p4e2e1f1722)" style="fill: #ff7f0e"/>
   </g>
   <g id="patch_19">
    <path d="M 355.7 259.665833 
L 355.7 259.665833 
L 355.7 244.624167 
L 355.7 244.624167 
z
" clip-path="url(#p4e2e1f1722)" style="fill: #ff7f0e"/>
   </g>
   <g id="patch_20">
    <path d="M 355.7 229.5825 
L 355.7 229.5825 
L 355.7 214.540833 
L 355.7 214.540833 
z
" clip-path="url(#p4e2e1f1722)" style="fill: #ff7f0e"/>
   </g>
   <g id="patch_21">
    <path d="M 455.967937 199.499167 
L 472.679259 199.499167 
L 472.679259 184.4575 
L 455.967937 184.4575 
z
" clip-path="url(#p4e2e1f1722)" style="fill: #ff7f0e"/>
   </g>
   <g id="patch_22">
    <path d="M 389.122646 169.415833 
L 422.545291 169.415833 
L 422.545291 154.374167 
L 389.122646 154.374167 
z
" clip-path="url(#p4e2e1f1722)" style="fill: #ff7f0e"/>
   </g>
   <g id="patch_23">
    <path d="M 372.411323 139.3325 
L 656.50381 139.3325 
L 656.50381 124.290833 
L 372.411323 124.290833 
z
" clip-path="url(#p4e2e1f1722)" style="fill: #ff7f0e"/>
   </g>
   <g id="patch_24">
    <path d="M 355.7 109.249167 
L 355.7 109.249167 
L 355.7 94.2075 
L 355.7 94.2075 
z
" clip-path="url(#p4e2e1f1722)" style="fill: #ff7f0e"/>
   </g>
   <g id="patch_25">
    <path d="M 355.7 79.165833 
L 355.7 79.165833 
L 355.7 64.124167 
L 355.7 64.124167 
z
" clip-path="url(#p4e2e1f1722)" style="fill: #ff7f0e"/>
   </g>
   <g id="patch_26">
    <path d="M 355.7 49.0825 
L 355.7 49.0825 
L 355.7 34.040833 
L 355.7 34.040833 
z
" clip-path="url(#p4e2e1f1722)" style="fill: #ff7f0e"/>
   </g>
   <g id="patch_27">
    <path d="M 355.7 379.999167 
L 355.7 379.999167 
L 355.7 364.9575 
L 355.7 364.9575 
z
" clip-path="url(#p4e2e1f1722)" style="fill: #2ca02c"/>
   </g>
   <g id="patch_28">
    <path d="M 355.7 349.915833 
L 355.7 349.915833 
L 355.7 334.874167 
L 355.7 334.874167 
z
" clip-path="url(#p4e2e1f1722)" style="fill: #2ca02c"/>
   </g>
   <g id="patch_29">
    <path d="M 355.7 319.8325 
L 355.7 319.8325 
L 355.7 304.790833 
L 355.7 304.790833 
z
" clip-path="url(#p4e2e1f1722)" style="fill: #2ca02c"/>
   </g>
   <g id="patch_30">
    <path d="M 422.545291 289.749167 
L 439.256614 289.749167 
L 439.256614 274.7075 
L 422.545291 274.7075 
z
" clip-path="url(#p4e2e1f1722)" style="fill: #2ca02c"/>
   </g>
   <g id="patch_31">
    <path d="M 355.7 259.665833 
L 355.7 259.665833 
L 355.7 244.624167 
L 355.7 244.624167 
z
" clip-path="url(#p4e2e1f1722)" style="fill: #2ca02c"/>
   </g>
   <g id="patch_32">
    <path d="M 355.7 229.5825 
L 355.7 229.5825 
L 355.7 214.540833 
L 355.7 214.540833 
z
" clip-path="url(#p4e2e1f1722)" style="fill: #2ca02c"/>
   </g>
   <g id="patch_33">
    <path d="M 355.7 199.499167 
L 355.7 199.499167 
L 355.7 184.4575 
L 355.7 184.4575 
z
" clip-path="url(#p4e2e1f1722)" style="fill: #2ca02c"/>
   </g>
   <g id="patch_34">
    <path d="M 355.7 169.415833 
L 355.7 169.415833 
L 355.7 154.374167 
L 355.7 154.374167 
z
" clip-path="url(#p4e2e1f1722)" style="fill: #2ca02c"/>
   </g>
   <g id="patch_35">
    <path d="M 355.7 139.3325 
L 355.7 139.3325 
L 355.7 124.290833 
L 355.7 124.290833 
z
" clip-path="url(#p4e2e1f1722)" style="fill: #2ca02c"/>
   </g>
   <g id="patch_36">
    <path d="M 355.7 109.249167 
L 355.7 109.249167 
L 355.7 94.2075 
L 355.7 94.2075 
z
" clip-path="url(#p4e2e1f1722)" style="fill: #2ca02c"/>
   </g>
   <g id="patch_37">
    <path d="M 355.7 79.165833 
L 355.7 79.165833 
L 355.7 64.124167 
L 355.7 64.124167 
z
" clip-path="url(#p4e2e1f1722)" style="fill: #2ca02c"/>
   </g>
   <g id="patch_38">
    <path d="M 355.7 49.0825 
L 355.7 49.0825 
L 355.7 34.040833 
L 355.7 34.040833 
z
" clip-path="url(#p4e2e1f1722)" style="fill: #2ca02c"/>
   </g>
   <g id="matplotlib.axis_1">
    <g id="xtick_1">
     <g id="line2d_1">
      <defs>
       <path id="m4d32b91859" d="M 0 0 
L 0 3.5 
" style="stroke: #000000; stroke-width: 0.8"/>
      </defs>
      <g>
       <use xlink:href="#m4d32b91859" x="355.7" y="387.52" style="stroke: #000000; stroke-width: 0.8"/>
      </g>
     </g>
     <g id="text_1">
      <!-- 0.0 -->
      <g transform="translate(346.953281 402.878281) scale(0.11 -0.11)">
       <defs>
        <path id="DejaVuSans-30" d="M 2034 4250 
Q 1547 4250 1301 3770 
Q 1056 3291 1056 2328 
Q 1056 1369 1301 889 
Q 1547 409 2034 409 
Q 2525 409 2770 889 
Q 3016 1369 3016 2328 
Q 3016 3291 2770 3770 
Q 2525 4250 2034 4250 
z
M 2034 4750 
Q 2819 4750 3233 4129 
Q 3647 3509 3647 2328 
Q 3647 1150 3233 529 
Q 2819 -91 2034 -91 
Q 1250 -91 836 529 
Q 422 1150 422 2328 
Q 422 3509 836 4129 
Q 1250 4750 2034 4750 
z
" transform="scale(0.015625)"/>
        <path id="DejaVuSans-2e" d="M 684 794 
L 1344 794 
L 1344 0 
L 684 0 
L 684 794 
z
" transform="scale(0.015625)"/>
       </defs>
       <use xlink:href="#DejaVuSans-30"/>
       <use xlink:href="#DejaVuSans-2e" transform="translate(63.623047 0)"/>
       <use xlink:href="#DejaVuSans-30" transform="translate(95.410156 0)"/>
      </g>
     </g>
    </g>
    <g id="xtick_2">
     <g id="line2d_2">
      <g>
       <use xlink:href="#m4d32b91859" x="397.478307" y="387.52" style="stroke: #000000; stroke-width: 0.8"/>
      </g>
     </g>
     <g id="text_2">
      <!-- 2.5 -->
      <g transform="translate(388.731588 402.878281) scale(0.11 -0.11)">
       <defs>
        <path id="DejaVuSans-32" d="M 1228 531 
L 3431 531 
L 3431 0 
L 469 0 
L 469 531 
Q 828 903 1448 1529 
Q 2069 2156 2228 2338 
Q 2531 2678 2651 2914 
Q 2772 3150 2772 3378 
Q 2772 3750 2511 3984 
Q 2250 4219 1831 4219 
Q 1534 4219 1204 4116 
Q 875 4013 500 3803 
L 500 4441 
Q 881 4594 1212 4672 
Q 1544 4750 1819 4750 
Q 2544 4750 2975 4387 
Q 3406 4025 3406 3419 
Q 3406 3131 3298 2873 
Q 3191 2616 2906 2266 
Q 2828 2175 2409 1742 
Q 1991 1309 1228 531 
z
" transform="scale(0.015625)"/>
        <path id="DejaVuSans-35" d="M 691 4666 
L 3169 4666 
L 3169 4134 
L 1269 4134 
L 1269 2991 
Q 1406 3038 1543 3061 
Q 1681 3084 1819 3084 
Q 2600 3084 3056 2656 
Q 3513 2228 3513 1497 
Q 3513 744 3044 326 
Q 2575 -91 1722 -91 
Q 1428 -91 1123 -41 
Q 819 9 494 109 
L 494 744 
Q 775 591 1075 516 
Q 1375 441 1709 441 
Q 2250 441 2565 725 
Q 2881 1009 2881 1497 
Q 2881 1984 2565 2268 
Q 2250 2553 1709 2553 
Q 1456 2553 1204 2497 
Q 953 2441 691 2322 
L 691 4666 
z
" transform="scale(0.015625)"/>
       </defs>
       <use xlink:href="#DejaVuSans-32"/>
       <use xlink:href="#DejaVuSans-2e" transform="translate(63.623047 0)"/>
       <use xlink:href="#DejaVuSans-35" transform="translate(95.410156 0)"/>
      </g>
     </g>
    </g>
    <g id="xtick_3">
     <g id="line2d_3">
      <g>
       <use xlink:href="#m4d32b91859" x="439.256614" y="387.52" style="stroke: #000000; stroke-width: 0.8"/>
      </g>
     </g>
     <g id="text_3">
      <!-- 5.0 -->
      <g transform="translate(430.509895 402.878281) scale(0.11 -0.11)">
       <use xlink:href="#DejaVuSans-35"/>
       <use xlink:href="#DejaVuSans-2e" transform="translate(63.623047 0)"/>
       <use xlink:href="#DejaVuSans-30" transform="translate(95.410156 0)"/>
      </g>
     </g>
    </g>
    <g id="xtick_4">
     <g id="line2d_4">
      <g>
       <use xlink:href="#m4d32b91859" x="481.034921" y="387.52" style="stroke: #000000; stroke-width: 0.8"/>
      </g>
     </g>
     <g id="text_4">
      <!-- 7.5 -->
      <g transform="translate(472.288202 402.878281) scale(0.11 -0.11)">
       <defs>
        <path id="DejaVuSans-37" d="M 525 4666 
L 3525 4666 
L 3525 4397 
L 1831 0 
L 1172 0 
L 2766 4134 
L 525 4134 
L 525 4666 
z
" transform="scale(0.015625)"/>
       </defs>
       <use xlink:href="#DejaVuSans-37"/>
       <use xlink:href="#DejaVuSans-2e" transform="translate(63.623047 0)"/>
       <use xlink:href="#DejaVuSans-35" transform="translate(95.410156 0)"/>
      </g>
     </g>
    </g>
    <g id="xtick_5">
     <g id="line2d_5">
      <g>
       <use xlink:href="#m4d32b91859" x="522.813228" y="387.52" style="stroke: #000000; stroke-width: 0.8"/>
      </g>
     </g>
     <g id="text_5">
      <!-- 10.0 -->
      <g transform="translate(510.567134 402.878281) scale(0.11 -0.11)">
       <defs>
        <path id="DejaVuSans-31" d="M 794 531 
L 1825 531 
L 1825 4091 
L 703 3866 
L 703 4441 
L 1819 4666 
L 2450 4666 
L 2450 531 
L 3481 531 
L 3481 0 
L 794 0 
L 794 531 
z
" transform="scale(0.015625)"/>
       </defs>
       <use xlink:href="#DejaVuSans-31"/>
       <use xlink:href="#DejaVuSans-30" transform="translate(63.623047 0)"/>
       <use xlink:href="#DejaVuSans-2e" transform="translate(127.246094 0)"/>
       <use xlink:href="#DejaVuSans-30" transform="translate(159.033203 0)"/>
      </g>
     </g>
    </g>
    <g id="xtick_6">
     <g id="line2d_6">
      <g>
       <use xlink:href="#m4d32b91859" x="564.591534" y="387.52" style="stroke: #000000; stroke-width: 0.8"/>
      </g>
     </g>
     <g id="text_6">
      <!-- 12.5 -->
      <g transform="translate(552.345441 402.878281) scale(0.11 -0.11)">
       <use xlink:href="#DejaVuSans-31"/>
       <use xlink:href="#DejaVuSans-32" transform="translate(63.623047 0)"/>
       <use xlink:href="#DejaVuSans-2e" transform="translate(127.246094 0)"/>
       <use xlink:href="#DejaVuSans-35" transform="translate(159.033203 0)"/>
      </g>
     </g>
    </g>
    <g id="xtick_7">
     <g id="line2d_7">
      <g>
       <use xlink:href="#m4d32b91859" x="606.369841" y="387.52" style="stroke: #000000; stroke-width: 0.8"/>
      </g>
     </g>
     <g id="text_7">
      <!-- 15.0 -->
      <g transform="translate(594.123748 402.878281) scale(0.11 -0.11)">
       <use xlink:href="#DejaVuSans-31"/>
       <use xlink:href="#DejaVuSans-35" transform="translate(63.623047 0)"/>
       <use xlink:href="#DejaVuSans-2e" transform="translate(127.246094 0)"/>
       <use xlink:href="#DejaVuSans-30" transform="translate(159.033203 0)"/>
      </g>
     </g>
    </g>
    <g id="xtick_8">
     <g id="line2d_8">
      <g>
       <use xlink:href="#m4d32b91859" x="648.148148" y="387.52" style="stroke: #000000; stroke-width: 0.8"/>
      </g>
     </g>
     <g id="text_8">
      <!-- 17.5 -->
      <g transform="translate(635.902054 402.878281) scale(0.11 -0.11)">
       <use xlink:href="#DejaVuSans-31"/>
       <use xlink:href="#DejaVuSans-37" transform="translate(63.623047 0)"/>
       <use xlink:href="#DejaVuSans-2e" transform="translate(127.246094 0)"/>
       <use xlink:href="#DejaVuSans-35" transform="translate(159.033203 0)"/>
      </g>
     </g>
    </g>
    <g id="text_9">
     <!-- Number of genes -->
     <g transform="translate(466.119187 417.524219) scale(0.11 -0.11)">
      <defs>
       <path id="DejaVuSans-4e" d="M 628 4666 
L 1478 4666 
L 3547 763 
L 3547 4666 
L 4159 4666 
L 4159 0 
L 3309 0 
L 1241 3903 
L 1241 0 
L 628 0 
L 628 4666 
z
" transform="scale(0.015625)"/>
       <path id="DejaVuSans-75" d="M 544 1381 
L 544 3500 
L 1119 3500 
L 1119 1403 
Q 1119 906 1312 657 
Q 1506 409 1894 409 
Q 2359 409 2629 706 
Q 2900 1003 2900 1516 
L 2900 3500 
L 3475 3500 
L 3475 0 
L 2900 0 
L 2900 538 
Q 2691 219 2414 64 
Q 2138 -91 1772 -91 
Q 1169 -91 856 284 
Q 544 659 544 1381 
z
M 1991 3584 
L 1991 3584 
z
" transform="scale(0.015625)"/>
       <path id="DejaVuSans-6d" d="M 3328 2828 
Q 3544 3216 3844 3400 
Q 4144 3584 4550 3584 
Q 5097 3584 5394 3201 
Q 5691 2819 5691 2113 
L 5691 0 
L 5113 0 
L 5113 2094 
Q 5113 2597 4934 2840 
Q 4756 3084 4391 3084 
Q 3944 3084 3684 2787 
Q 3425 2491 3425 1978 
L 3425 0 
L 2847 0 
L 2847 2094 
Q 2847 2600 2669 2842 
Q 2491 3084 2119 3084 
Q 1678 3084 1418 2786 
Q 1159 2488 1159 1978 
L 1159 0 
L 581 0 
L 581 3500 
L 1159 3500 
L 1159 2956 
Q 1356 3278 1631 3431 
Q 1906 3584 2284 3584 
Q 2666 3584 2933 3390 
Q 3200 3197 3328 2828 
z
" transform="scale(0.015625)"/>
       <path id="DejaVuSans-62" d="M 3116 1747 
Q 3116 2381 2855 2742 
Q 2594 3103 2138 3103 
Q 1681 3103 1420 2742 
Q 1159 2381 1159 1747 
Q 1159 1113 1420 752 
Q 1681 391 2138 391 
Q 2594 391 2855 752 
Q 3116 1113 3116 1747 
z
M 1159 2969 
Q 1341 3281 1617 3432 
Q 1894 3584 2278 3584 
Q 2916 3584 3314 3078 
Q 3713 2572 3713 1747 
Q 3713 922 3314 415 
Q 2916 -91 2278 -91 
Q 1894 -91 1617 61 
Q 1341 213 1159 525 
L 1159 0 
L 581 0 
L 581 4863 
L 1159 4863 
L 1159 2969 
z
" transform="scale(0.015625)"/>
       <path id="DejaVuSans-65" d="M 3597 1894 
L 3597 1613 
L 953 1613 
Q 991 1019 1311 708 
Q 1631 397 2203 397 
Q 2534 397 2845 478 
Q 3156 559 3463 722 
L 3463 178 
Q 3153 47 2828 -22 
Q 2503 -91 2169 -91 
Q 1331 -91 842 396 
Q 353 884 353 1716 
Q 353 2575 817 3079 
Q 1281 3584 2069 3584 
Q 2775 3584 3186 3129 
Q 3597 2675 3597 1894 
z
M 3022 2063 
Q 3016 2534 2758 2815 
Q 2500 3097 2075 3097 
Q 1594 3097 1305 2825 
Q 1016 2553 972 2059 
L 3022 2063 
z
" transform="scale(0.015625)"/>
       <path id="DejaVuSans-72" d="M 2631 2963 
Q 2534 3019 2420 3045 
Q 2306 3072 2169 3072 
Q 1681 3072 1420 2755 
Q 1159 2438 1159 1844 
L 1159 0 
L 581 0 
L 581 3500 
L 1159 3500 
L 1159 2956 
Q 1341 3275 1631 3429 
Q 1922 3584 2338 3584 
Q 2397 3584 2469 3576 
Q 2541 3569 2628 3553 
L 2631 2963 
z
" transform="scale(0.015625)"/>
       <path id="DejaVuSans-20" transform="scale(0.015625)"/>
       <path id="DejaVuSans-6f" d="M 1959 3097 
Q 1497 3097 1228 2736 
Q 959 2375 959 1747 
Q 959 1119 1226 758 
Q 1494 397 1959 397 
Q 2419 397 2687 759 
Q 2956 1122 2956 1747 
Q 2956 2369 2687 2733 
Q 2419 3097 1959 3097 
z
M 1959 3584 
Q 2709 3584 3137 3096 
Q 3566 2609 3566 1747 
Q 3566 888 3137 398 
Q 2709 -91 1959 -91 
Q 1206 -91 779 398 
Q 353 888 353 1747 
Q 353 2609 779 3096 
Q 1206 3584 1959 3584 
z
" transform="scale(0.015625)"/>
       <path id="DejaVuSans-66" d="M 2375 4863 
L 2375 4384 
L 1825 4384 
Q 1516 4384 1395 4259 
Q 1275 4134 1275 3809 
L 1275 3500 
L 2222 3500 
L 2222 3053 
L 1275 3053 
L 1275 0 
L 697 0 
L 697 3053 
L 147 3053 
L 147 3500 
L 697 3500 
L 697 3744 
Q 697 4328 969 4595 
Q 1241 4863 1831 4863 
L 2375 4863 
z
" transform="scale(0.015625)"/>
       <path id="DejaVuSans-67" d="M 2906 1791 
Q 2906 2416 2648 2759 
Q 2391 3103 1925 3103 
Q 1463 3103 1205 2759 
Q 947 2416 947 1791 
Q 947 1169 1205 825 
Q 1463 481 1925 481 
Q 2391 481 2648 825 
Q 2906 1169 2906 1791 
z
M 3481 434 
Q 3481 -459 3084 -895 
Q 2688 -1331 1869 -1331 
Q 1566 -1331 1297 -1286 
Q 1028 -1241 775 -1147 
L 775 -588 
Q 1028 -725 1275 -790 
Q 1522 -856 1778 -856 
Q 2344 -856 2625 -561 
Q 2906 -266 2906 331 
L 2906 616 
Q 2728 306 2450 153 
Q 2172 0 1784 0 
Q 1141 0 747 490 
Q 353 981 353 1791 
Q 353 2603 747 3093 
Q 1141 3584 1784 3584 
Q 2172 3584 2450 3431 
Q 2728 3278 2906 2969 
L 2906 3500 
L 3481 3500 
L 3481 434 
z
" transform="scale(0.015625)"/>
       <path id="DejaVuSans-6e" d="M 3513 2113 
L 3513 0 
L 2938 0 
L 2938 2094 
Q 2938 2591 2744 2837 
Q 2550 3084 2163 3084 
Q 1697 3084 1428 2787 
Q 1159 2491 1159 1978 
L 1159 0 
L 581 0 
L 581 3500 
L 1159 3500 
L 1159 2956 
Q 1366 3272 1645 3428 
Q 1925 3584 2291 3584 
Q 2894 3584 3203 3211 
Q 3513 2838 3513 2113 
z
" transform="scale(0.015625)"/>
       <path id="DejaVuSans-73" d="M 2834 3397 
L 2834 2853 
Q 2591 2978 2328 3040 
Q 2066 3103 1784 3103 
Q 1356 3103 1142 2972 
Q 928 2841 928 2578 
Q 928 2378 1081 2264 
Q 1234 2150 1697 2047 
L 1894 2003 
Q 2506 1872 2764 1633 
Q 3022 1394 3022 966 
Q 3022 478 2636 193 
Q 2250 -91 1575 -91 
Q 1294 -91 989 -36 
Q 684 19 347 128 
L 347 722 
Q 666 556 975 473 
Q 1284 391 1588 391 
Q 1994 391 2212 530 
Q 2431 669 2431 922 
Q 2431 1156 2273 1281 
Q 2116 1406 1581 1522 
L 1381 1569 
Q 847 1681 609 1914 
Q 372 2147 372 2553 
Q 372 3047 722 3315 
Q 1072 3584 1716 3584 
Q 2034 3584 2315 3537 
Q 2597 3491 2834 3397 
z
" transform="scale(0.015625)"/>
      </defs>
      <use xlink:href="#DejaVuSans-4e"/>
      <use xlink:href="#DejaVuSans-75" transform="translate(74.804688 0)"/>
      <use xlink:href="#DejaVuSans-6d" transform="translate(138.183594 0)"/>
      <use xlink:href="#DejaVuSans-62" transform="translate(235.595703 0)"/>
      <use xlink:href="#DejaVuSans-65" transform="translate(299.072266 0)"/>
      <use xlink:href="#DejaVuSans-72" transform="translate(360.595703 0)"/>
      <use xlink:href="#DejaVuSans-20" transform="translate(401.708984 0)"/>
      <use xlink:href="#DejaVuSans-6f" transform="translate(433.496094 0)"/>
      <use xlink:href="#DejaVuSans-66" transform="translate(494.677734 0)"/>
      <use xlink:href="#DejaVuSans-20" transform="translate(529.882812 0)"/>
      <use xlink:href="#DejaVuSans-67" transform="translate(561.669922 0)"/>
      <use xlink:href="#DejaVuSans-65" transform="translate(625.146484 0)"/>
      <use xlink:href="#DejaVuSans-6e" transform="translate(686.669922 0)"/>
      <use xlink:href="#DejaVuSans-65" transform="translate(750.048828 0)"/>
      <use xlink:href="#DejaVuSans-73" transform="translate(811.572266 0)"/>
     </g>
    </g>
   </g>
   <g id="matplotlib.axis_2">
    <g id="ytick_1">
     <g id="line2d_9">
      <defs>
       <path id="m5247186385" d="M 0 0 
L -3.5 0 
" style="stroke: #000000; stroke-width: 0.8"/>
      </defs>
      <g>
       <use xlink:href="#m5247186385" x="355.7" y="372.478333" style="stroke: #000000; stroke-width: 0.8"/>
      </g>
     </g>
     <g id="text_10">
      <!-- 3-phenylpropanoate metabolism -->
      <g transform="translate(201.6175 375.89763) scale(0.09 -0.09)">
       <defs>
        <path id="DejaVuSans-33" d="M 2597 2516 
Q 3050 2419 3304 2112 
Q 3559 1806 3559 1356 
Q 3559 666 3084 287 
Q 2609 -91 1734 -91 
Q 1441 -91 1130 -33 
Q 819 25 488 141 
L 488 750 
Q 750 597 1062 519 
Q 1375 441 1716 441 
Q 2309 441 2620 675 
Q 2931 909 2931 1356 
Q 2931 1769 2642 2001 
Q 2353 2234 1838 2234 
L 1294 2234 
L 1294 2753 
L 1863 2753 
Q 2328 2753 2575 2939 
Q 2822 3125 2822 3475 
Q 2822 3834 2567 4026 
Q 2313 4219 1838 4219 
Q 1578 4219 1281 4162 
Q 984 4106 628 3988 
L 628 4550 
Q 988 4650 1302 4700 
Q 1616 4750 1894 4750 
Q 2613 4750 3031 4423 
Q 3450 4097 3450 3541 
Q 3450 3153 3228 2886 
Q 3006 2619 2597 2516 
z
" transform="scale(0.015625)"/>
        <path id="DejaVuSans-2d" d="M 313 2009 
L 1997 2009 
L 1997 1497 
L 313 1497 
L 313 2009 
z
" transform="scale(0.015625)"/>
        <path id="DejaVuSans-70" d="M 1159 525 
L 1159 -1331 
L 581 -1331 
L 581 3500 
L 1159 3500 
L 1159 2969 
Q 1341 3281 1617 3432 
Q 1894 3584 2278 3584 
Q 2916 3584 3314 3078 
Q 3713 2572 3713 1747 
Q 3713 922 3314 415 
Q 2916 -91 2278 -91 
Q 1894 -91 1617 61 
Q 1341 213 1159 525 
z
M 3116 1747 
Q 3116 2381 2855 2742 
Q 2594 3103 2138 3103 
Q 1681 3103 1420 2742 
Q 1159 2381 1159 1747 
Q 1159 1113 1420 752 
Q 1681 391 2138 391 
Q 2594 391 2855 752 
Q 3116 1113 3116 1747 
z
" transform="scale(0.015625)"/>
        <path id="DejaVuSans-68" d="M 3513 2113 
L 3513 0 
L 2938 0 
L 2938 2094 
Q 2938 2591 2744 2837 
Q 2550 3084 2163 3084 
Q 1697 3084 1428 2787 
Q 1159 2491 1159 1978 
L 1159 0 
L 581 0 
L 581 4863 
L 1159 4863 
L 1159 2956 
Q 1366 3272 1645 3428 
Q 1925 3584 2291 3584 
Q 2894 3584 3203 3211 
Q 3513 2838 3513 2113 
z
" transform="scale(0.015625)"/>
        <path id="DejaVuSans-79" d="M 2059 -325 
Q 1816 -950 1584 -1140 
Q 1353 -1331 966 -1331 
L 506 -1331 
L 506 -850 
L 844 -850 
Q 1081 -850 1212 -737 
Q 1344 -625 1503 -206 
L 1606 56 
L 191 3500 
L 800 3500 
L 1894 763 
L 2988 3500 
L 3597 3500 
L 2059 -325 
z
" transform="scale(0.015625)"/>
        <path id="DejaVuSans-6c" d="M 603 4863 
L 1178 4863 
L 1178 0 
L 603 0 
L 603 4863 
z
" transform="scale(0.015625)"/>
        <path id="DejaVuSans-61" d="M 2194 1759 
Q 1497 1759 1228 1600 
Q 959 1441 959 1056 
Q 959 750 1161 570 
Q 1363 391 1709 391 
Q 2188 391 2477 730 
Q 2766 1069 2766 1631 
L 2766 1759 
L 2194 1759 
z
M 3341 1997 
L 3341 0 
L 2766 0 
L 2766 531 
Q 2569 213 2275 61 
Q 1981 -91 1556 -91 
Q 1019 -91 701 211 
Q 384 513 384 1019 
Q 384 1609 779 1909 
Q 1175 2209 1959 2209 
L 2766 2209 
L 2766 2266 
Q 2766 2663 2505 2880 
Q 2244 3097 1772 3097 
Q 1472 3097 1187 3025 
Q 903 2953 641 2809 
L 641 3341 
Q 956 3463 1253 3523 
Q 1550 3584 1831 3584 
Q 2591 3584 2966 3190 
Q 3341 2797 3341 1997 
z
" transform="scale(0.015625)"/>
        <path id="DejaVuSans-74" d="M 1172 4494 
L 1172 3500 
L 2356 3500 
L 2356 3053 
L 1172 3053 
L 1172 1153 
Q 1172 725 1289 603 
Q 1406 481 1766 481 
L 2356 481 
L 2356 0 
L 1766 0 
Q 1100 0 847 248 
Q 594 497 594 1153 
L 594 3053 
L 172 3053 
L 172 3500 
L 594 3500 
L 594 4494 
L 1172 4494 
z
" transform="scale(0.015625)"/>
        <path id="DejaVuSans-69" d="M 603 3500 
L 1178 3500 
L 1178 0 
L 603 0 
L 603 3500 
z
M 603 4863 
L 1178 4863 
L 1178 4134 
L 603 4134 
L 603 4863 
z
" transform="scale(0.015625)"/>
       </defs>
       <use xlink:href="#DejaVuSans-33"/>
       <use xlink:href="#DejaVuSans-2d" transform="translate(63.623047 0)"/>
       <use xlink:href="#DejaVuSans-70" transform="translate(99.707031 0)"/>
       <use xlink:href="#DejaVuSans-68" transform="translate(163.183594 0)"/>
       <use xlink:href="#DejaVuSans-65" transform="translate(226.5625 0)"/>
       <use xlink:href="#DejaVuSans-6e" transform="translate(288.085938 0)"/>
       <use xlink:href="#DejaVuSans-79" transform="translate(351.464844 0)"/>
       <use xlink:href="#DejaVuSans-6c" transform="translate(410.644531 0)"/>
       <use xlink:href="#DejaVuSans-70" transform="translate(438.427734 0)"/>
       <use xlink:href="#DejaVuSans-72" transform="translate(501.904297 0)"/>
       <use xlink:href="#DejaVuSans-6f" transform="translate(540.767578 0)"/>
       <use xlink:href="#DejaVuSans-70" transform="translate(601.949219 0)"/>
       <use xlink:href="#DejaVuSans-61" transform="translate(665.425781 0)"/>
       <use xlink:href="#DejaVuSans-6e" transform="translate(726.705078 0)"/>
       <use xlink:href="#DejaVuSans-6f" transform="translate(790.083984 0)"/>
       <use xlink:href="#DejaVuSans-61" transform="translate(851.265625 0)"/>
       <use xlink:href="#DejaVuSans-74" transform="translate(912.544922 0)"/>
       <use xlink:href="#DejaVuSans-65" transform="translate(951.753906 0)"/>
       <use xlink:href="#DejaVuSans-20" transform="translate(1013.277344 0)"/>
       <use xlink:href="#DejaVuSans-6d" transform="translate(1045.064453 0)"/>
       <use xlink:href="#DejaVuSans-65" transform="translate(1142.476562 0)"/>
       <use xlink:href="#DejaVuSans-74" transform="translate(1204 0)"/>
       <use xlink:href="#DejaVuSans-61" transform="translate(1243.208984 0)"/>
       <use xlink:href="#DejaVuSans-62" transform="translate(1304.488281 0)"/>
       <use xlink:href="#DejaVuSans-6f" transform="translate(1367.964844 0)"/>
       <use xlink:href="#DejaVuSans-6c" transform="translate(1429.146484 0)"/>
       <use xlink:href="#DejaVuSans-69" transform="translate(1456.929688 0)"/>
       <use xlink:href="#DejaVuSans-73" transform="translate(1484.712891 0)"/>
       <use xlink:href="#DejaVuSans-6d" transform="translate(1536.8125 0)"/>
      </g>
     </g>
    </g>
    <g id="ytick_2">
     <g id="line2d_10">
      <g>
       <use xlink:href="#m5247186385" x="355.7" y="342.395" style="stroke: #000000; stroke-width: 0.8"/>
      </g>
     </g>
     <g id="text_11">
      <!-- Hydrogen cycling/oxidation for energy, important for low-O2 conditions -->
      <g transform="translate(27.305781 345.814297) scale(0.09 -0.09)">
       <defs>
        <path id="DejaVuSans-48" d="M 628 4666 
L 1259 4666 
L 1259 2753 
L 3553 2753 
L 3553 4666 
L 4184 4666 
L 4184 0 
L 3553 0 
L 3553 2222 
L 1259 2222 
L 1259 0 
L 628 0 
L 628 4666 
z
" transform="scale(0.015625)"/>
        <path id="DejaVuSans-64" d="M 2906 2969 
L 2906 4863 
L 3481 4863 
L 3481 0 
L 2906 0 
L 2906 525 
Q 2725 213 2448 61 
Q 2172 -91 1784 -91 
Q 1150 -91 751 415 
Q 353 922 353 1747 
Q 353 2572 751 3078 
Q 1150 3584 1784 3584 
Q 2172 3584 2448 3432 
Q 2725 3281 2906 2969 
z
M 947 1747 
Q 947 1113 1208 752 
Q 1469 391 1925 391 
Q 2381 391 2643 752 
Q 2906 1113 2906 1747 
Q 2906 2381 2643 2742 
Q 2381 3103 1925 3103 
Q 1469 3103 1208 2742 
Q 947 2381 947 1747 
z
" transform="scale(0.015625)"/>
        <path id="DejaVuSans-63" d="M 3122 3366 
L 3122 2828 
Q 2878 2963 2633 3030 
Q 2388 3097 2138 3097 
Q 1578 3097 1268 2742 
Q 959 2388 959 1747 
Q 959 1106 1268 751 
Q 1578 397 2138 397 
Q 2388 397 2633 464 
Q 2878 531 3122 666 
L 3122 134 
Q 2881 22 2623 -34 
Q 2366 -91 2075 -91 
Q 1284 -91 818 406 
Q 353 903 353 1747 
Q 353 2603 823 3093 
Q 1294 3584 2113 3584 
Q 2378 3584 2631 3529 
Q 2884 3475 3122 3366 
z
" transform="scale(0.015625)"/>
        <path id="DejaVuSans-2f" d="M 1625 4666 
L 2156 4666 
L 531 -594 
L 0 -594 
L 1625 4666 
z
" transform="scale(0.015625)"/>
        <path id="DejaVuSans-78" d="M 3513 3500 
L 2247 1797 
L 3578 0 
L 2900 0 
L 1881 1375 
L 863 0 
L 184 0 
L 1544 1831 
L 300 3500 
L 978 3500 
L 1906 2253 
L 2834 3500 
L 3513 3500 
z
" transform="scale(0.015625)"/>
        <path id="DejaVuSans-2c" d="M 750 794 
L 1409 794 
L 1409 256 
L 897 -744 
L 494 -744 
L 750 256 
L 750 794 
z
" transform="scale(0.015625)"/>
        <path id="DejaVuSans-77" d="M 269 3500 
L 844 3500 
L 1563 769 
L 2278 3500 
L 2956 3500 
L 3675 769 
L 4391 3500 
L 4966 3500 
L 4050 0 
L 3372 0 
L 2619 2869 
L 1863 0 
L 1184 0 
L 269 3500 
z
" transform="scale(0.015625)"/>
        <path id="DejaVuSans-4f" d="M 2522 4238 
Q 1834 4238 1429 3725 
Q 1025 3213 1025 2328 
Q 1025 1447 1429 934 
Q 1834 422 2522 422 
Q 3209 422 3611 934 
Q 4013 1447 4013 2328 
Q 4013 3213 3611 3725 
Q 3209 4238 2522 4238 
z
M 2522 4750 
Q 3503 4750 4090 4092 
Q 4678 3434 4678 2328 
Q 4678 1225 4090 567 
Q 3503 -91 2522 -91 
Q 1538 -91 948 565 
Q 359 1222 359 2328 
Q 359 3434 948 4092 
Q 1538 4750 2522 4750 
z
" transform="scale(0.015625)"/>
       </defs>
       <use xlink:href="#DejaVuSans-48"/>
       <use xlink:href="#DejaVuSans-79" transform="translate(75.195312 0)"/>
       <use xlink:href="#DejaVuSans-64" transform="translate(134.375 0)"/>
       <use xlink:href="#DejaVuSans-72" transform="translate(197.851562 0)"/>
       <use xlink:href="#DejaVuSans-6f" transform="translate(236.714844 0)"/>
       <use xlink:href="#DejaVuSans-67" transform="translate(297.896484 0)"/>
       <use xlink:href="#DejaVuSans-65" transform="translate(361.373047 0)"/>
       <use xlink:href="#DejaVuSans-6e" transform="translate(422.896484 0)"/>
       <use xlink:href="#DejaVuSans-20" transform="translate(486.275391 0)"/>
       <use xlink:href="#DejaVuSans-63" transform="translate(518.0625 0)"/>
       <use xlink:href="#DejaVuSans-79" transform="translate(573.042969 0)"/>
       <use xlink:href="#DejaVuSans-63" transform="translate(632.222656 0)"/>
       <use xlink:href="#DejaVuSans-6c" transform="translate(687.203125 0)"/>
       <use xlink:href="#DejaVuSans-69" transform="translate(714.986328 0)"/>
       <use xlink:href="#DejaVuSans-6e" transform="translate(742.769531 0)"/>
       <use xlink:href="#DejaVuSans-67" transform="translate(806.148438 0)"/>
       <use xlink:href="#DejaVuSans-2f" transform="translate(869.625 0)"/>
       <use xlink:href="#DejaVuSans-6f" transform="translate(903.316406 0)"/>
       <use xlink:href="#DejaVuSans-78" transform="translate(961.373047 0)"/>
       <use xlink:href="#DejaVuSans-69" transform="translate(1020.552734 0)"/>
       <use xlink:href="#DejaVuSans-64" transform="translate(1048.335938 0)"/>
       <use xlink:href="#DejaVuSans-61" transform="translate(1111.8125 0)"/>
       <use xlink:href="#DejaVuSans-74" transform="translate(1173.091797 0)"/>
       <use xlink:href="#DejaVuSans-69" transform="translate(1212.300781 0)"/>
       <use xlink:href="#DejaVuSans-6f" transform="translate(1240.083984 0)"/>
       <use xlink:href="#DejaVuSans-6e" transform="translate(1301.265625 0)"/>
       <use xlink:href="#DejaVuSans-20" transform="translate(1364.644531 0)"/>
       <use xlink:href="#DejaVuSans-66" transform="translate(1396.431641 0)"/>
       <use xlink:href="#DejaVuSans-6f" transform="translate(1431.636719 0)"/>
       <use xlink:href="#DejaVuSans-72" transform="translate(1492.818359 0)"/>
       <use xlink:href="#DejaVuSans-20" transform="translate(1533.931641 0)"/>
       <use xlink:href="#DejaVuSans-65" transform="translate(1565.71875 0)"/>
       <use xlink:href="#DejaVuSans-6e" transform="translate(1627.242188 0)"/>
       <use xlink:href="#DejaVuSans-65" transform="translate(1690.621094 0)"/>
       <use xlink:href="#DejaVuSans-72" transform="translate(1752.144531 0)"/>
       <use xlink:href="#DejaVuSans-67" transform="translate(1791.507812 0)"/>
       <use xlink:href="#DejaVuSans-79" transform="translate(1854.984375 0)"/>
       <use xlink:href="#DejaVuSans-2c" transform="translate(1914.164062 0)"/>
       <use xlink:href="#DejaVuSans-20" transform="translate(1945.951172 0)"/>
       <use xlink:href="#DejaVuSans-69" transform="translate(1977.738281 0)"/>
       <use xlink:href="#DejaVuSans-6d" transform="translate(2005.521484 0)"/>
       <use xlink:href="#DejaVuSans-70" transform="translate(2102.933594 0)"/>
       <use xlink:href="#DejaVuSans-6f" transform="translate(2166.410156 0)"/>
       <use xlink:href="#DejaVuSans-72" transform="translate(2227.591797 0)"/>
       <use xlink:href="#DejaVuSans-74" transform="translate(2268.705078 0)"/>
       <use xlink:href="#DejaVuSans-61" transform="translate(2307.914062 0)"/>
       <use xlink:href="#DejaVuSans-6e" transform="translate(2369.193359 0)"/>
       <use xlink:href="#DejaVuSans-74" transform="translate(2432.572266 0)"/>
       <use xlink:href="#DejaVuSans-20" transform="translate(2471.78125 0)"/>
       <use xlink:href="#DejaVuSans-66" transform="translate(2503.568359 0)"/>
       <use xlink:href="#DejaVuSans-6f" transform="translate(2538.773438 0)"/>
       <use xlink:href="#DejaVuSans-72" transform="translate(2599.955078 0)"/>
       <use xlink:href="#DejaVuSans-20" transform="translate(2641.068359 0)"/>
       <use xlink:href="#DejaVuSans-6c" transform="translate(2672.855469 0)"/>
       <use xlink:href="#DejaVuSans-6f" transform="translate(2700.638672 0)"/>
       <use xlink:href="#DejaVuSans-77" transform="translate(2761.820312 0)"/>
       <use xlink:href="#DejaVuSans-2d" transform="translate(2843.607422 0)"/>
       <use xlink:href="#DejaVuSans-4f" transform="translate(2882.441406 0)"/>
       <use xlink:href="#DejaVuSans-32" transform="translate(2961.152344 0)"/>
       <use xlink:href="#DejaVuSans-20" transform="translate(3024.775391 0)"/>
       <use xlink:href="#DejaVuSans-63" transform="translate(3056.5625 0)"/>
       <use xlink:href="#DejaVuSans-6f" transform="translate(3111.542969 0)"/>
       <use xlink:href="#DejaVuSans-6e" transform="translate(3172.724609 0)"/>
       <use xlink:href="#DejaVuSans-64" transform="translate(3236.103516 0)"/>
       <use xlink:href="#DejaVuSans-69" transform="translate(3299.580078 0)"/>
       <use xlink:href="#DejaVuSans-74" transform="translate(3327.363281 0)"/>
       <use xlink:href="#DejaVuSans-69" transform="translate(3366.572266 0)"/>
       <use xlink:href="#DejaVuSans-6f" transform="translate(3394.355469 0)"/>
       <use xlink:href="#DejaVuSans-6e" transform="translate(3455.537109 0)"/>
       <use xlink:href="#DejaVuSans-73" transform="translate(3518.916016 0)"/>
      </g>
     </g>
    </g>
    <g id="ytick_3">
     <g id="line2d_11">
      <g>
       <use xlink:href="#m5247186385" x="355.7" y="312.311667" style="stroke: #000000; stroke-width: 0.8"/>
      </g>
     </g>
     <g id="text_12">
      <!-- Molybdenum cofactor synthesis -->
      <g transform="translate(205.552188 315.730964) scale(0.09 -0.09)">
       <defs>
        <path id="DejaVuSans-4d" d="M 628 4666 
L 1569 4666 
L 2759 1491 
L 3956 4666 
L 4897 4666 
L 4897 0 
L 4281 0 
L 4281 4097 
L 3078 897 
L 2444 897 
L 1241 4097 
L 1241 0 
L 628 0 
L 628 4666 
z
" transform="scale(0.015625)"/>
       </defs>
       <use xlink:href="#DejaVuSans-4d"/>
       <use xlink:href="#DejaVuSans-6f" transform="translate(86.279297 0)"/>
       <use xlink:href="#DejaVuSans-6c" transform="translate(147.460938 0)"/>
       <use xlink:href="#DejaVuSans-79" transform="translate(175.244141 0)"/>
       <use xlink:href="#DejaVuSans-62" transform="translate(234.423828 0)"/>
       <use xlink:href="#DejaVuSans-64" transform="translate(297.900391 0)"/>
       <use xlink:href="#DejaVuSans-65" transform="translate(361.376953 0)"/>
       <use xlink:href="#DejaVuSans-6e" transform="translate(422.900391 0)"/>
       <use xlink:href="#DejaVuSans-75" transform="translate(486.279297 0)"/>
       <use xlink:href="#DejaVuSans-6d" transform="translate(549.658203 0)"/>
       <use xlink:href="#DejaVuSans-20" transform="translate(647.070312 0)"/>
       <use xlink:href="#DejaVuSans-63" transform="translate(678.857422 0)"/>
       <use xlink:href="#DejaVuSans-6f" transform="translate(733.837891 0)"/>
       <use xlink:href="#DejaVuSans-66" transform="translate(795.019531 0)"/>
       <use xlink:href="#DejaVuSans-61" transform="translate(830.224609 0)"/>
       <use xlink:href="#DejaVuSans-63" transform="translate(891.503906 0)"/>
       <use xlink:href="#DejaVuSans-74" transform="translate(946.484375 0)"/>
       <use xlink:href="#DejaVuSans-6f" transform="translate(985.693359 0)"/>
       <use xlink:href="#DejaVuSans-72" transform="translate(1046.875 0)"/>
       <use xlink:href="#DejaVuSans-20" transform="translate(1087.988281 0)"/>
       <use xlink:href="#DejaVuSans-73" transform="translate(1119.775391 0)"/>
       <use xlink:href="#DejaVuSans-79" transform="translate(1171.875 0)"/>
       <use xlink:href="#DejaVuSans-6e" transform="translate(1231.054688 0)"/>
       <use xlink:href="#DejaVuSans-74" transform="translate(1294.433594 0)"/>
       <use xlink:href="#DejaVuSans-68" transform="translate(1333.642578 0)"/>
       <use xlink:href="#DejaVuSans-65" transform="translate(1397.021484 0)"/>
       <use xlink:href="#DejaVuSans-73" transform="translate(1458.544922 0)"/>
       <use xlink:href="#DejaVuSans-69" transform="translate(1510.644531 0)"/>
       <use xlink:href="#DejaVuSans-73" transform="translate(1538.427734 0)"/>
      </g>
     </g>
    </g>
    <g id="ytick_4">
     <g id="line2d_12">
      <g>
       <use xlink:href="#m5247186385" x="355.7" y="282.228333" style="stroke: #000000; stroke-width: 0.8"/>
      </g>
     </g>
     <g id="text_13">
      <!-- Outer membrane permeability factor biosynthesis -->
      <g transform="translate(123.325938 285.64763) scale(0.09 -0.09)">
       <use xlink:href="#DejaVuSans-4f"/>
       <use xlink:href="#DejaVuSans-75" transform="translate(78.710938 0)"/>
       <use xlink:href="#DejaVuSans-74" transform="translate(142.089844 0)"/>
       <use xlink:href="#DejaVuSans-65" transform="translate(181.298828 0)"/>
       <use xlink:href="#DejaVuSans-72" transform="translate(242.822266 0)"/>
       <use xlink:href="#DejaVuSans-20" transform="translate(283.935547 0)"/>
       <use xlink:href="#DejaVuSans-6d" transform="translate(315.722656 0)"/>
       <use xlink:href="#DejaVuSans-65" transform="translate(413.134766 0)"/>
       <use xlink:href="#DejaVuSans-6d" transform="translate(474.658203 0)"/>
       <use xlink:href="#DejaVuSans-62" transform="translate(572.070312 0)"/>
       <use xlink:href="#DejaVuSans-72" transform="translate(635.546875 0)"/>
       <use xlink:href="#DejaVuSans-61" transform="translate(676.660156 0)"/>
       <use xlink:href="#DejaVuSans-6e" transform="translate(737.939453 0)"/>
       <use xlink:href="#DejaVuSans-65" transform="translate(801.318359 0)"/>
       <use xlink:href="#DejaVuSans-20" transform="translate(862.841797 0)"/>
       <use xlink:href="#DejaVuSans-70" transform="translate(894.628906 0)"/>
       <use xlink:href="#DejaVuSans-65" transform="translate(958.105469 0)"/>
       <use xlink:href="#DejaVuSans-72" transform="translate(1019.628906 0)"/>
       <use xlink:href="#DejaVuSans-6d" transform="translate(1058.992188 0)"/>
       <use xlink:href="#DejaVuSans-65" transform="translate(1156.404297 0)"/>
       <use xlink:href="#DejaVuSans-61" transform="translate(1217.927734 0)"/>
       <use xlink:href="#DejaVuSans-62" transform="translate(1279.207031 0)"/>
       <use xlink:href="#DejaVuSans-69" transform="translate(1342.683594 0)"/>
       <use xlink:href="#DejaVuSans-6c" transform="translate(1370.466797 0)"/>
       <use xlink:href="#DejaVuSans-69" transform="translate(1398.25 0)"/>
       <use xlink:href="#DejaVuSans-74" transform="translate(1426.033203 0)"/>
       <use xlink:href="#DejaVuSans-79" transform="translate(1465.242188 0)"/>
       <use xlink:href="#DejaVuSans-20" transform="translate(1524.421875 0)"/>
       <use xlink:href="#DejaVuSans-66" transform="translate(1556.208984 0)"/>
       <use xlink:href="#DejaVuSans-61" transform="translate(1591.414062 0)"/>
       <use xlink:href="#DejaVuSans-63" transform="translate(1652.693359 0)"/>
       <use xlink:href="#DejaVuSans-74" transform="translate(1707.673828 0)"/>
       <use xlink:href="#DejaVuSans-6f" transform="translate(1746.882812 0)"/>
       <use xlink:href="#DejaVuSans-72" transform="translate(1808.064453 0)"/>
       <use xlink:href="#DejaVuSans-20" transform="translate(1849.177734 0)"/>
       <use xlink:href="#DejaVuSans-62" transform="translate(1880.964844 0)"/>
       <use xlink:href="#DejaVuSans-69" transform="translate(1944.441406 0)"/>
       <use xlink:href="#DejaVuSans-6f" transform="translate(1972.224609 0)"/>
       <use xlink:href="#DejaVuSans-73" transform="translate(2033.40625 0)"/>
       <use xlink:href="#DejaVuSans-79" transform="translate(2085.505859 0)"/>
       <use xlink:href="#DejaVuSans-6e" transform="translate(2144.685547 0)"/>
       <use xlink:href="#DejaVuSans-74" transform="translate(2208.064453 0)"/>
       <use xlink:href="#DejaVuSans-68" transform="translate(2247.273438 0)"/>
       <use xlink:href="#DejaVuSans-65" transform="translate(2310.652344 0)"/>
       <use xlink:href="#DejaVuSans-73" transform="translate(2372.175781 0)"/>
       <use xlink:href="#DejaVuSans-69" transform="translate(2424.275391 0)"/>
       <use xlink:href="#DejaVuSans-73" transform="translate(2452.058594 0)"/>
      </g>
     </g>
    </g>
    <g id="ytick_5">
     <g id="line2d_13">
      <g>
       <use xlink:href="#m5247186385" x="355.7" y="252.145" style="stroke: #000000; stroke-width: 0.8"/>
      </g>
     </g>
     <g id="text_14">
      <!-- alternative pyridimine to nitrogen source metabolism -->
      <g transform="translate(108.065313 255.564297) scale(0.09 -0.09)">
       <defs>
        <path id="DejaVuSans-76" d="M 191 3500 
L 800 3500 
L 1894 563 
L 2988 3500 
L 3597 3500 
L 2284 0 
L 1503 0 
L 191 3500 
z
" transform="scale(0.015625)"/>
       </defs>
       <use xlink:href="#DejaVuSans-61"/>
       <use xlink:href="#DejaVuSans-6c" transform="translate(61.279297 0)"/>
       <use xlink:href="#DejaVuSans-74" transform="translate(89.0625 0)"/>
       <use xlink:href="#DejaVuSans-65" transform="translate(128.271484 0)"/>
       <use xlink:href="#DejaVuSans-72" transform="translate(189.794922 0)"/>
       <use xlink:href="#DejaVuSans-6e" transform="translate(229.158203 0)"/>
       <use xlink:href="#DejaVuSans-61" transform="translate(292.537109 0)"/>
       <use xlink:href="#DejaVuSans-74" transform="translate(353.816406 0)"/>
       <use xlink:href="#DejaVuSans-69" transform="translate(393.025391 0)"/>
       <use xlink:href="#DejaVuSans-76" transform="translate(420.808594 0)"/>
       <use xlink:href="#DejaVuSans-65" transform="translate(479.988281 0)"/>
       <use xlink:href="#DejaVuSans-20" transform="translate(541.511719 0)"/>
       <use xlink:href="#DejaVuSans-70" transform="translate(573.298828 0)"/>
       <use xlink:href="#DejaVuSans-79" transform="translate(636.775391 0)"/>
       <use xlink:href="#DejaVuSans-72" transform="translate(695.955078 0)"/>
       <use xlink:href="#DejaVuSans-69" transform="translate(737.068359 0)"/>
       <use xlink:href="#DejaVuSans-64" transform="translate(764.851562 0)"/>
       <use xlink:href="#DejaVuSans-69" transform="translate(828.328125 0)"/>
       <use xlink:href="#DejaVuSans-6d" transform="translate(856.111328 0)"/>
       <use xlink:href="#DejaVuSans-69" transform="translate(953.523438 0)"/>
       <use xlink:href="#DejaVuSans-6e" transform="translate(981.306641 0)"/>
       <use xlink:href="#DejaVuSans-65" transform="translate(1044.685547 0)"/>
       <use xlink:href="#DejaVuSans-20" transform="translate(1106.208984 0)"/>
       <use xlink:href="#DejaVuSans-74" transform="translate(1137.996094 0)"/>
       <use xlink:href="#DejaVuSans-6f" transform="translate(1177.205078 0)"/>
       <use xlink:href="#DejaVuSans-20" transform="translate(1238.386719 0)"/>
       <use xlink:href="#DejaVuSans-6e" transform="translate(1270.173828 0)"/>
       <use xlink:href="#DejaVuSans-69" transform="translate(1333.552734 0)"/>
       <use xlink:href="#DejaVuSans-74" transform="translate(1361.335938 0)"/>
       <use xlink:href="#DejaVuSans-72" transform="translate(1400.544922 0)"/>
       <use xlink:href="#DejaVuSans-6f" transform="translate(1439.408203 0)"/>
       <use xlink:href="#DejaVuSans-67" transform="translate(1500.589844 0)"/>
       <use xlink:href="#DejaVuSans-65" transform="translate(1564.066406 0)"/>
       <use xlink:href="#DejaVuSans-6e" transform="translate(1625.589844 0)"/>
       <use xlink:href="#DejaVuSans-20" transform="translate(1688.96875 0)"/>
       <use xlink:href="#DejaVuSans-73" transform="translate(1720.755859 0)"/>
       <use xlink:href="#DejaVuSans-6f" transform="translate(1772.855469 0)"/>
       <use xlink:href="#DejaVuSans-75" transform="translate(1834.037109 0)"/>
       <use xlink:href="#DejaVuSans-72" transform="translate(1897.416016 0)"/>
       <use xlink:href="#DejaVuSans-63" transform="translate(1936.279297 0)"/>
       <use xlink:href="#DejaVuSans-65" transform="translate(1991.259766 0)"/>
       <use xlink:href="#DejaVuSans-20" transform="translate(2052.783203 0)"/>
       <use xlink:href="#DejaVuSans-6d" transform="translate(2084.570312 0)"/>
       <use xlink:href="#DejaVuSans-65" transform="translate(2181.982422 0)"/>
       <use xlink:href="#DejaVuSans-74" transform="translate(2243.505859 0)"/>
       <use xlink:href="#DejaVuSans-61" transform="translate(2282.714844 0)"/>
       <use xlink:href="#DejaVuSans-62" transform="translate(2343.994141 0)"/>
       <use xlink:href="#DejaVuSans-6f" transform="translate(2407.470703 0)"/>
       <use xlink:href="#DejaVuSans-6c" transform="translate(2468.652344 0)"/>
       <use xlink:href="#DejaVuSans-69" transform="translate(2496.435547 0)"/>
       <use xlink:href="#DejaVuSans-73" transform="translate(2524.21875 0)"/>
       <use xlink:href="#DejaVuSans-6d" transform="translate(2576.318359 0)"/>
      </g>
     </g>
    </g>
    <g id="ytick_6">
     <g id="line2d_14">
      <g>
       <use xlink:href="#m5247186385" x="355.7" y="222.061667" style="stroke: #000000; stroke-width: 0.8"/>
      </g>
     </g>
     <g id="text_15">
      <!-- carnitine metabolism -->
      <g transform="translate(253.335156 225.480964) scale(0.09 -0.09)">
       <use xlink:href="#DejaVuSans-63"/>
       <use xlink:href="#DejaVuSans-61" transform="translate(54.980469 0)"/>
       <use xlink:href="#DejaVuSans-72" transform="translate(116.259766 0)"/>
       <use xlink:href="#DejaVuSans-6e" transform="translate(155.623047 0)"/>
       <use xlink:href="#DejaVuSans-69" transform="translate(219.001953 0)"/>
       <use xlink:href="#DejaVuSans-74" transform="translate(246.785156 0)"/>
       <use xlink:href="#DejaVuSans-69" transform="translate(285.994141 0)"/>
       <use xlink:href="#DejaVuSans-6e" transform="translate(313.777344 0)"/>
       <use xlink:href="#DejaVuSans-65" transform="translate(377.15625 0)"/>
       <use xlink:href="#DejaVuSans-20" transform="translate(438.679688 0)"/>
       <use xlink:href="#DejaVuSans-6d" transform="translate(470.466797 0)"/>
       <use xlink:href="#DejaVuSans-65" transform="translate(567.878906 0)"/>
       <use xlink:href="#DejaVuSans-74" transform="translate(629.402344 0)"/>
       <use xlink:href="#DejaVuSans-61" transform="translate(668.611328 0)"/>
       <use xlink:href="#DejaVuSans-62" transform="translate(729.890625 0)"/>
       <use xlink:href="#DejaVuSans-6f" transform="translate(793.367188 0)"/>
       <use xlink:href="#DejaVuSans-6c" transform="translate(854.548828 0)"/>
       <use xlink:href="#DejaVuSans-69" transform="translate(882.332031 0)"/>
       <use xlink:href="#DejaVuSans-73" transform="translate(910.115234 0)"/>
       <use xlink:href="#DejaVuSans-6d" transform="translate(962.214844 0)"/>
      </g>
     </g>
    </g>
    <g id="ytick_7">
     <g id="line2d_15">
      <g>
       <use xlink:href="#m5247186385" x="355.7" y="191.978333" style="stroke: #000000; stroke-width: 0.8"/>
      </g>
     </g>
     <g id="text_16">
      <!-- colanic acid (cell wall component) biosynthesis -->
      <g transform="translate(136.707812 195.39763) scale(0.09 -0.09)">
       <defs>
        <path id="DejaVuSans-28" d="M 1984 4856 
Q 1566 4138 1362 3434 
Q 1159 2731 1159 2009 
Q 1159 1288 1364 580 
Q 1569 -128 1984 -844 
L 1484 -844 
Q 1016 -109 783 600 
Q 550 1309 550 2009 
Q 550 2706 781 3412 
Q 1013 4119 1484 4856 
L 1984 4856 
z
" transform="scale(0.015625)"/>
        <path id="DejaVuSans-29" d="M 513 4856 
L 1013 4856 
Q 1481 4119 1714 3412 
Q 1947 2706 1947 2009 
Q 1947 1309 1714 600 
Q 1481 -109 1013 -844 
L 513 -844 
Q 928 -128 1133 580 
Q 1338 1288 1338 2009 
Q 1338 2731 1133 3434 
Q 928 4138 513 4856 
z
" transform="scale(0.015625)"/>
       </defs>
       <use xlink:href="#DejaVuSans-63"/>
       <use xlink:href="#DejaVuSans-6f" transform="translate(54.980469 0)"/>
       <use xlink:href="#DejaVuSans-6c" transform="translate(116.162109 0)"/>
       <use xlink:href="#DejaVuSans-61" transform="translate(143.945312 0)"/>
       <use xlink:href="#DejaVuSans-6e" transform="translate(205.224609 0)"/>
       <use xlink:href="#DejaVuSans-69" transform="translate(268.603516 0)"/>
       <use xlink:href="#DejaVuSans-63" transform="translate(296.386719 0)"/>
       <use xlink:href="#DejaVuSans-20" transform="translate(351.367188 0)"/>
       <use xlink:href="#DejaVuSans-61" transform="translate(383.154297 0)"/>
       <use xlink:href="#DejaVuSans-63" transform="translate(444.433594 0)"/>
       <use xlink:href="#DejaVuSans-69" transform="translate(499.414062 0)"/>
       <use xlink:href="#DejaVuSans-64" transform="translate(527.197266 0)"/>
       <use xlink:href="#DejaVuSans-20" transform="translate(590.673828 0)"/>
       <use xlink:href="#DejaVuSans-28" transform="translate(622.460938 0)"/>
       <use xlink:href="#DejaVuSans-63" transform="translate(661.474609 0)"/>
       <use xlink:href="#DejaVuSans-65" transform="translate(716.455078 0)"/>
       <use xlink:href="#DejaVuSans-6c" transform="translate(777.978516 0)"/>
       <use xlink:href="#DejaVuSans-6c" transform="translate(805.761719 0)"/>
       <use xlink:href="#DejaVuSans-20" transform="translate(833.544922 0)"/>
       <use xlink:href="#DejaVuSans-77" transform="translate(865.332031 0)"/>
       <use xlink:href="#DejaVuSans-61" transform="translate(947.119141 0)"/>
       <use xlink:href="#DejaVuSans-6c" transform="translate(1008.398438 0)"/>
       <use xlink:href="#DejaVuSans-6c" transform="translate(1036.181641 0)"/>
       <use xlink:href="#DejaVuSans-20" transform="translate(1063.964844 0)"/>
       <use xlink:href="#DejaVuSans-63" transform="translate(1095.751953 0)"/>
       <use xlink:href="#DejaVuSans-6f" transform="translate(1150.732422 0)"/>
       <use xlink:href="#DejaVuSans-6d" transform="translate(1211.914062 0)"/>
       <use xlink:href="#DejaVuSans-70" transform="translate(1309.326172 0)"/>
       <use xlink:href="#DejaVuSans-6f" transform="translate(1372.802734 0)"/>
       <use xlink:href="#DejaVuSans-6e" transform="translate(1433.984375 0)"/>
       <use xlink:href="#DejaVuSans-65" transform="translate(1497.363281 0)"/>
       <use xlink:href="#DejaVuSans-6e" transform="translate(1558.886719 0)"/>
       <use xlink:href="#DejaVuSans-74" transform="translate(1622.265625 0)"/>
       <use xlink:href="#DejaVuSans-29" transform="translate(1661.474609 0)"/>
       <use xlink:href="#DejaVuSans-20" transform="translate(1700.488281 0)"/>
       <use xlink:href="#DejaVuSans-62" transform="translate(1732.275391 0)"/>
       <use xlink:href="#DejaVuSans-69" transform="translate(1795.751953 0)"/>
       <use xlink:href="#DejaVuSans-6f" transform="translate(1823.535156 0)"/>
       <use xlink:href="#DejaVuSans-73" transform="translate(1884.716797 0)"/>
       <use xlink:href="#DejaVuSans-79" transform="translate(1936.816406 0)"/>
       <use xlink:href="#DejaVuSans-6e" transform="translate(1995.996094 0)"/>
       <use xlink:href="#DejaVuSans-74" transform="translate(2059.375 0)"/>
       <use xlink:href="#DejaVuSans-68" transform="translate(2098.583984 0)"/>
       <use xlink:href="#DejaVuSans-65" transform="translate(2161.962891 0)"/>
       <use xlink:href="#DejaVuSans-73" transform="translate(2223.486328 0)"/>
       <use xlink:href="#DejaVuSans-69" transform="translate(2275.585938 0)"/>
       <use xlink:href="#DejaVuSans-73" transform="translate(2303.369141 0)"/>
      </g>
     </g>
    </g>
    <g id="ytick_8">
     <g id="line2d_16">
      <g>
       <use xlink:href="#m5247186385" x="355.7" y="161.895" style="stroke: #000000; stroke-width: 0.8"/>
      </g>
     </g>
     <g id="text_17">
      <!-- maltose transport -->
      <g transform="translate(268.211875 165.314297) scale(0.09 -0.09)">
       <use xlink:href="#DejaVuSans-6d"/>
       <use xlink:href="#DejaVuSans-61" transform="translate(97.412109 0)"/>
       <use xlink:href="#DejaVuSans-6c" transform="translate(158.691406 0)"/>
       <use xlink:href="#DejaVuSans-74" transform="translate(186.474609 0)"/>
       <use xlink:href="#DejaVuSans-6f" transform="translate(225.683594 0)"/>
       <use xlink:href="#DejaVuSans-73" transform="translate(286.865234 0)"/>
       <use xlink:href="#DejaVuSans-65" transform="translate(338.964844 0)"/>
       <use xlink:href="#DejaVuSans-20" transform="translate(400.488281 0)"/>
       <use xlink:href="#DejaVuSans-74" transform="translate(432.275391 0)"/>
       <use xlink:href="#DejaVuSans-72" transform="translate(471.484375 0)"/>
       <use xlink:href="#DejaVuSans-61" transform="translate(512.597656 0)"/>
       <use xlink:href="#DejaVuSans-6e" transform="translate(573.876953 0)"/>
       <use xlink:href="#DejaVuSans-73" transform="translate(637.255859 0)"/>
       <use xlink:href="#DejaVuSans-70" transform="translate(689.355469 0)"/>
       <use xlink:href="#DejaVuSans-6f" transform="translate(752.832031 0)"/>
       <use xlink:href="#DejaVuSans-72" transform="translate(814.013672 0)"/>
       <use xlink:href="#DejaVuSans-74" transform="translate(855.126953 0)"/>
      </g>
     </g>
    </g>
    <g id="ytick_9">
     <g id="line2d_17">
      <g>
       <use xlink:href="#m5247186385" x="355.7" y="131.811667" style="stroke: #000000; stroke-width: 0.8"/>
      </g>
     </g>
     <g id="text_18">
      <!-- metal transport -->
      <g transform="translate(278.407187 135.230964) scale(0.09 -0.09)">
       <use xlink:href="#DejaVuSans-6d"/>
       <use xlink:href="#DejaVuSans-65" transform="translate(97.412109 0)"/>
       <use xlink:href="#DejaVuSans-74" transform="translate(158.935547 0)"/>
       <use xlink:href="#DejaVuSans-61" transform="translate(198.144531 0)"/>
       <use xlink:href="#DejaVuSans-6c" transform="translate(259.423828 0)"/>
       <use xlink:href="#DejaVuSans-20" transform="translate(287.207031 0)"/>
       <use xlink:href="#DejaVuSans-74" transform="translate(318.994141 0)"/>
       <use xlink:href="#DejaVuSans-72" transform="translate(358.203125 0)"/>
       <use xlink:href="#DejaVuSans-61" transform="translate(399.316406 0)"/>
       <use xlink:href="#DejaVuSans-6e" transform="translate(460.595703 0)"/>
       <use xlink:href="#DejaVuSans-73" transform="translate(523.974609 0)"/>
       <use xlink:href="#DejaVuSans-70" transform="translate(576.074219 0)"/>
       <use xlink:href="#DejaVuSans-6f" transform="translate(639.550781 0)"/>
       <use xlink:href="#DejaVuSans-72" transform="translate(700.732422 0)"/>
       <use xlink:href="#DejaVuSans-74" transform="translate(741.845703 0)"/>
      </g>
     </g>
    </g>
    <g id="ytick_10">
     <g id="line2d_18">
      <g>
       <use xlink:href="#m5247186385" x="355.7" y="101.728333" style="stroke: #000000; stroke-width: 0.8"/>
      </g>
     </g>
     <g id="text_19">
      <!-- nitrate reduction (low oxygen w nitrate) -->
      <g transform="translate(169.145781 105.14763) scale(0.09 -0.09)">
       <use xlink:href="#DejaVuSans-6e"/>
       <use xlink:href="#DejaVuSans-69" transform="translate(63.378906 0)"/>
       <use xlink:href="#DejaVuSans-74" transform="translate(91.162109 0)"/>
       <use xlink:href="#DejaVuSans-72" transform="translate(130.371094 0)"/>
       <use xlink:href="#DejaVuSans-61" transform="translate(171.484375 0)"/>
       <use xlink:href="#DejaVuSans-74" transform="translate(232.763672 0)"/>
       <use xlink:href="#DejaVuSans-65" transform="translate(271.972656 0)"/>
       <use xlink:href="#DejaVuSans-20" transform="translate(333.496094 0)"/>
       <use xlink:href="#DejaVuSans-72" transform="translate(365.283203 0)"/>
       <use xlink:href="#DejaVuSans-65" transform="translate(404.146484 0)"/>
       <use xlink:href="#DejaVuSans-64" transform="translate(465.669922 0)"/>
       <use xlink:href="#DejaVuSans-75" transform="translate(529.146484 0)"/>
       <use xlink:href="#DejaVuSans-63" transform="translate(592.525391 0)"/>
       <use xlink:href="#DejaVuSans-74" transform="translate(647.505859 0)"/>
       <use xlink:href="#DejaVuSans-69" transform="translate(686.714844 0)"/>
       <use xlink:href="#DejaVuSans-6f" transform="translate(714.498047 0)"/>
       <use xlink:href="#DejaVuSans-6e" transform="translate(775.679688 0)"/>
       <use xlink:href="#DejaVuSans-20" transform="translate(839.058594 0)"/>
       <use xlink:href="#DejaVuSans-28" transform="translate(870.845703 0)"/>
       <use xlink:href="#DejaVuSans-6c" transform="translate(909.859375 0)"/>
       <use xlink:href="#DejaVuSans-6f" transform="translate(937.642578 0)"/>
       <use xlink:href="#DejaVuSans-77" transform="translate(998.824219 0)"/>
       <use xlink:href="#DejaVuSans-20" transform="translate(1080.611328 0)"/>
       <use xlink:href="#DejaVuSans-6f" transform="translate(1112.398438 0)"/>
       <use xlink:href="#DejaVuSans-78" transform="translate(1170.455078 0)"/>
       <use xlink:href="#DejaVuSans-79" transform="translate(1229.634766 0)"/>
       <use xlink:href="#DejaVuSans-67" transform="translate(1288.814453 0)"/>
       <use xlink:href="#DejaVuSans-65" transform="translate(1352.291016 0)"/>
       <use xlink:href="#DejaVuSans-6e" transform="translate(1413.814453 0)"/>
       <use xlink:href="#DejaVuSans-20" transform="translate(1477.193359 0)"/>
       <use xlink:href="#DejaVuSans-77" transform="translate(1508.980469 0)"/>
       <use xlink:href="#DejaVuSans-20" transform="translate(1590.767578 0)"/>
       <use xlink:href="#DejaVuSans-6e" transform="translate(1622.554688 0)"/>
       <use xlink:href="#DejaVuSans-69" transform="translate(1685.933594 0)"/>
       <use xlink:href="#DejaVuSans-74" transform="translate(1713.716797 0)"/>
       <use xlink:href="#DejaVuSans-72" transform="translate(1752.925781 0)"/>
       <use xlink:href="#DejaVuSans-61" transform="translate(1794.039062 0)"/>
       <use xlink:href="#DejaVuSans-74" transform="translate(1855.318359 0)"/>
       <use xlink:href="#DejaVuSans-65" transform="translate(1894.527344 0)"/>
       <use xlink:href="#DejaVuSans-29" transform="translate(1956.050781 0)"/>
      </g>
     </g>
    </g>
    <g id="ytick_11">
     <g id="line2d_19">
      <g>
       <use xlink:href="#m5247186385" x="355.7" y="71.645" style="stroke: #000000; stroke-width: 0.8"/>
      </g>
     </g>
     <g id="text_20">
      <!-- phosphonate (P source) metabolism -->
      <g transform="translate(185.940625 75.064297) scale(0.09 -0.09)">
       <defs>
        <path id="DejaVuSans-50" d="M 1259 4147 
L 1259 2394 
L 2053 2394 
Q 2494 2394 2734 2622 
Q 2975 2850 2975 3272 
Q 2975 3691 2734 3919 
Q 2494 4147 2053 4147 
L 1259 4147 
z
M 628 4666 
L 2053 4666 
Q 2838 4666 3239 4311 
Q 3641 3956 3641 3272 
Q 3641 2581 3239 2228 
Q 2838 1875 2053 1875 
L 1259 1875 
L 1259 0 
L 628 0 
L 628 4666 
z
" transform="scale(0.015625)"/>
       </defs>
       <use xlink:href="#DejaVuSans-70"/>
       <use xlink:href="#DejaVuSans-68" transform="translate(63.476562 0)"/>
       <use xlink:href="#DejaVuSans-6f" transform="translate(126.855469 0)"/>
       <use xlink:href="#DejaVuSans-73" transform="translate(188.037109 0)"/>
       <use xlink:href="#DejaVuSans-70" transform="translate(240.136719 0)"/>
       <use xlink:href="#DejaVuSans-68" transform="translate(303.613281 0)"/>
       <use xlink:href="#DejaVuSans-6f" transform="translate(366.992188 0)"/>
       <use xlink:href="#DejaVuSans-6e" transform="translate(428.173828 0)"/>
       <use xlink:href="#DejaVuSans-61" transform="translate(491.552734 0)"/>
       <use xlink:href="#DejaVuSans-74" transform="translate(552.832031 0)"/>
       <use xlink:href="#DejaVuSans-65" transform="translate(592.041016 0)"/>
       <use xlink:href="#DejaVuSans-20" transform="translate(653.564453 0)"/>
       <use xlink:href="#DejaVuSans-28" transform="translate(685.351562 0)"/>
       <use xlink:href="#DejaVuSans-50" transform="translate(724.365234 0)"/>
       <use xlink:href="#DejaVuSans-20" transform="translate(784.667969 0)"/>
       <use xlink:href="#DejaVuSans-73" transform="translate(816.455078 0)"/>
       <use xlink:href="#DejaVuSans-6f" transform="translate(868.554688 0)"/>
       <use xlink:href="#DejaVuSans-75" transform="translate(929.736328 0)"/>
       <use xlink:href="#DejaVuSans-72" transform="translate(993.115234 0)"/>
       <use xlink:href="#DejaVuSans-63" transform="translate(1031.978516 0)"/>
       <use xlink:href="#DejaVuSans-65" transform="translate(1086.958984 0)"/>
       <use xlink:href="#DejaVuSans-29" transform="translate(1148.482422 0)"/>
       <use xlink:href="#DejaVuSans-20" transform="translate(1187.496094 0)"/>
       <use xlink:href="#DejaVuSans-6d" transform="translate(1219.283203 0)"/>
       <use xlink:href="#DejaVuSans-65" transform="translate(1316.695312 0)"/>
       <use xlink:href="#DejaVuSans-74" transform="translate(1378.21875 0)"/>
       <use xlink:href="#DejaVuSans-61" transform="translate(1417.427734 0)"/>
       <use xlink:href="#DejaVuSans-62" transform="translate(1478.707031 0)"/>
       <use xlink:href="#DejaVuSans-6f" transform="translate(1542.183594 0)"/>
       <use xlink:href="#DejaVuSans-6c" transform="translate(1603.365234 0)"/>
       <use xlink:href="#DejaVuSans-69" transform="translate(1631.148438 0)"/>
       <use xlink:href="#DejaVuSans-73" transform="translate(1658.931641 0)"/>
       <use xlink:href="#DejaVuSans-6d" transform="translate(1711.03125 0)"/>
      </g>
     </g>
    </g>
    <g id="ytick_12">
     <g id="line2d_20">
      <g>
       <use xlink:href="#m5247186385" x="355.7" y="41.561667" style="stroke: #000000; stroke-width: 0.8"/>
      </g>
     </g>
     <g id="text_21">
      <!-- t1 cyt c gen -->
      <g transform="translate(295.157031 44.980964) scale(0.09 -0.09)">
       <use xlink:href="#DejaVuSans-74"/>
       <use xlink:href="#DejaVuSans-31" transform="translate(39.208984 0)"/>
       <use xlink:href="#DejaVuSans-20" transform="translate(102.832031 0)"/>
       <use xlink:href="#DejaVuSans-63" transform="translate(134.619141 0)"/>
       <use xlink:href="#DejaVuSans-79" transform="translate(189.599609 0)"/>
       <use xlink:href="#DejaVuSans-74" transform="translate(248.779297 0)"/>
       <use xlink:href="#DejaVuSans-20" transform="translate(287.988281 0)"/>
       <use xlink:href="#DejaVuSans-63" transform="translate(319.775391 0)"/>
       <use xlink:href="#DejaVuSans-20" transform="translate(374.755859 0)"/>
       <use xlink:href="#DejaVuSans-67" transform="translate(406.542969 0)"/>
       <use xlink:href="#DejaVuSans-65" transform="translate(470.019531 0)"/>
       <use xlink:href="#DejaVuSans-6e" transform="translate(531.542969 0)"/>
      </g>
     </g>
    </g>
    <g id="text_22">
     <!-- Description by Cyrus -->
     <g transform="translate(21.018125 264.294766) rotate(-90) scale(0.11 -0.11)">
      <defs>
       <path id="DejaVuSans-44" d="M 1259 4147 
L 1259 519 
L 2022 519 
Q 2988 519 3436 956 
Q 3884 1394 3884 2338 
Q 3884 3275 3436 3711 
Q 2988 4147 2022 4147 
L 1259 4147 
z
M 628 4666 
L 1925 4666 
Q 3281 4666 3915 4102 
Q 4550 3538 4550 2338 
Q 4550 1131 3912 565 
Q 3275 0 1925 0 
L 628 0 
L 628 4666 
z
" transform="scale(0.015625)"/>
       <path id="DejaVuSans-43" d="M 4122 4306 
L 4122 3641 
Q 3803 3938 3442 4084 
Q 3081 4231 2675 4231 
Q 1875 4231 1450 3742 
Q 1025 3253 1025 2328 
Q 1025 1406 1450 917 
Q 1875 428 2675 428 
Q 3081 428 3442 575 
Q 3803 722 4122 1019 
L 4122 359 
Q 3791 134 3420 21 
Q 3050 -91 2638 -91 
Q 1578 -91 968 557 
Q 359 1206 359 2328 
Q 359 3453 968 4101 
Q 1578 4750 2638 4750 
Q 3056 4750 3426 4639 
Q 3797 4528 4122 4306 
z
" transform="scale(0.015625)"/>
      </defs>
      <use xlink:href="#DejaVuSans-44"/>
      <use xlink:href="#DejaVuSans-65" transform="translate(77.001953 0)"/>
      <use xlink:href="#DejaVuSans-73" transform="translate(138.525391 0)"/>
      <use xlink:href="#DejaVuSans-63" transform="translate(190.625 0)"/>
      <use xlink:href="#DejaVuSans-72" transform="translate(245.605469 0)"/>
      <use xlink:href="#DejaVuSans-69" transform="translate(286.71875 0)"/>
      <use xlink:href="#DejaVuSans-70" transform="translate(314.501953 0)"/>
      <use xlink:href="#DejaVuSans-74" transform="translate(377.978516 0)"/>
      <use xlink:href="#DejaVuSans-69" transform="translate(417.1875 0)"/>
      <use xlink:href="#DejaVuSans-6f" transform="translate(444.970703 0)"/>
      <use xlink:href="#DejaVuSans-6e" transform="translate(506.152344 0)"/>
      <use xlink:href="#DejaVuSans-20" transform="translate(569.53125 0)"/>
      <use xlink:href="#DejaVuSans-62" transform="translate(601.318359 0)"/>
      <use xlink:href="#DejaVuSans-79" transform="translate(664.794922 0)"/>
      <use xlink:href="#DejaVuSans-20" transform="translate(723.974609 0)"/>
      <use xlink:href="#DejaVuSans-43" transform="translate(755.761719 0)"/>
      <use xlink:href="#DejaVuSans-79" transform="translate(825.585938 0)"/>
      <use xlink:href="#DejaVuSans-72" transform="translate(884.765625 0)"/>
      <use xlink:href="#DejaVuSans-75" transform="translate(925.878906 0)"/>
      <use xlink:href="#DejaVuSans-73" transform="translate(989.257812 0)"/>
     </g>
    </g>
   </g>
   <g id="patch_39">
    <path d="M 355.7 387.52 
L 355.7 26.52 
" style="fill: none; stroke: #000000; stroke-width: 0.8; stroke-linejoin: miter; stroke-linecap: square"/>
   </g>
   <g id="patch_40">
    <path d="M 355.7 387.52 
L 671.544 387.52 
" style="fill: none; stroke: #000000; stroke-width: 0.8; stroke-linejoin: miter; stroke-linecap: square"/>
   </g>
   <g id="text_23">
    <!-- Curated functional groups × primary Level 1 category (top 12 groups) -->
    <g transform="translate(320.349422 20.52) scale(0.11 -0.11)">
     <defs>
      <path id="DejaVuSans-d7" d="M 4488 3438 
L 3059 2003 
L 4488 575 
L 4116 197 
L 2681 1631 
L 1247 197 
L 878 575 
L 2303 2003 
L 878 3438 
L 1247 3816 
L 2681 2381 
L 4116 3816 
L 4488 3438 
z
" transform="scale(0.015625)"/>
      <path id="DejaVuSans-4c" d="M 628 4666 
L 1259 4666 
L 1259 531 
L 3531 531 
L 3531 0 
L 628 0 
L 628 4666 
z
" transform="scale(0.015625)"/>
     </defs>
     <use xlink:href="#DejaVuSans-43"/>
     <use xlink:href="#DejaVuSans-75" transform="translate(69.824219 0)"/>
     <use xlink:href="#DejaVuSans-72" transform="translate(133.203125 0)"/>
     <use xlink:href="#DejaVuSans-61" transform="translate(174.316406 0)"/>
     <use xlink:href="#DejaVuSans-74" transform="translate(235.595703 0)"/>
     <use xlink:href="#DejaVuSans-65" transform="translate(274.804688 0)"/>
     <use xlink:href="#DejaVuSans-64" transform="translate(336.328125 0)"/>
     <use xlink:href="#DejaVuSans-20" transform="translate(399.804688 0)"/>
     <use xlink:href="#DejaVuSans-66" transform="translate(431.591797 0)"/>
     <use xlink:href="#DejaVuSans-75" transform="translate(466.796875 0)"/>
     <use xlink:href="#DejaVuSans-6e" transform="translate(530.175781 0)"/>
     <use xlink:href="#DejaVuSans-63" transform="translate(593.554688 0)"/>
     <use xlink:href="#DejaVuSans-74" transform="translate(648.535156 0)"/>
     <use xlink:href="#DejaVuSans-69" transform="translate(687.744141 0)"/>
     <use xlink:href="#DejaVuSans-6f" transform="translate(715.527344 0)"/>
     <use xlink:href="#DejaVuSans-6e" transform="translate(776.708984 0)"/>
     <use xlink:href="#DejaVuSans-61" transform="translate(840.087891 0)"/>
     <use xlink:href="#DejaVuSans-6c" transform="translate(901.367188 0)"/>
     <use xlink:href="#DejaVuSans-20" transform="translate(929.150391 0)"/>
     <use xlink:href="#DejaVuSans-67" transform="translate(960.9375 0)"/>
     <use xlink:href="#DejaVuSans-72" transform="translate(1024.414062 0)"/>
     <use xlink:href="#DejaVuSans-6f" transform="translate(1063.277344 0)"/>
     <use xlink:href="#DejaVuSans-75" transform="translate(1124.458984 0)"/>
     <use xlink:href="#DejaVuSans-70" transform="translate(1187.837891 0)"/>
     <use xlink:href="#DejaVuSans-73" transform="translate(1251.314453 0)"/>
     <use xlink:href="#DejaVuSans-20" transform="translate(1303.414062 0)"/>
     <use xlink:href="#DejaVuSans-d7" transform="translate(1335.201172 0)"/>
     <use xlink:href="#DejaVuSans-20" transform="translate(1418.990234 0)"/>
     <use xlink:href="#DejaVuSans-70" transform="translate(1450.777344 0)"/>
     <use xlink:href="#DejaVuSans-72" transform="translate(1514.253906 0)"/>
     <use xlink:href="#DejaVuSans-69" transform="translate(1555.367188 0)"/>
     <use xlink:href="#DejaVuSans-6d" transform="translate(1583.150391 0)"/>
     <use xlink:href="#DejaVuSans-61" transform="translate(1680.5625 0)"/>
     <use xlink:href="#DejaVuSans-72" transform="translate(1741.841797 0)"/>
     <use xlink:href="#DejaVuSans-79" transform="translate(1782.955078 0)"/>
     <use xlink:href="#DejaVuSans-20" transform="translate(1842.134766 0)"/>
     <use xlink:href="#DejaVuSans-4c" transform="translate(1873.921875 0)"/>
     <use xlink:href="#DejaVuSans-65" transform="translate(1927.884766 0)"/>
     <use xlink:href="#DejaVuSans-76" transform="translate(1989.408203 0)"/>
     <use xlink:href="#DejaVuSans-65" transform="translate(2048.587891 0)"/>
     <use xlink:href="#DejaVuSans-6c" transform="translate(2110.111328 0)"/>
     <use xlink:href="#DejaVuSans-20" transform="translate(2137.894531 0)"/>
     <use xlink:href="#DejaVuSans-31" transform="translate(2169.681641 0)"/>
     <use xlink:href="#DejaVuSans-20" transform="translate(2233.304688 0)"/>
     <use xlink:href="#DejaVuSans-63" transform="translate(2265.091797 0)"/>
     <use xlink:href="#DejaVuSans-61" transform="translate(2320.072266 0)"/>
     <use xlink:href="#DejaVuSans-74" transform="translate(2381.351562 0)"/>
     <use xlink:href="#DejaVuSans-65" transform="translate(2420.560547 0)"/>
     <use xlink:href="#DejaVuSans-67" transform="translate(2482.083984 0)"/>
     <use xlink:href="#DejaVuSans-6f" transform="translate(2545.560547 0)"/>
     <use xlink:href="#DejaVuSans-72" transform="translate(2606.742188 0)"/>
     <use xlink:href="#DejaVuSans-79" transform="translate(2647.855469 0)"/>
     <use xlink:href="#DejaVuSans-20" transform="translate(2707.035156 0)"/>
     <use xlink:href="#DejaVuSans-28" transform="translate(2738.822266 0)"/>
     <use xlink:href="#DejaVuSans-74" transform="translate(2777.835938 0)"/>
     <use xlink:href="#DejaVuSans-6f" transform="translate(2817.044922 0)"/>
     <use xlink:href="#DejaVuSans-70" transform="translate(2878.226562 0)"/>
     <use xlink:href="#DejaVuSans-20" transform="translate(2941.703125 0)"/>
     <use xlink:href="#DejaVuSans-31" transform="translate(2973.490234 0)"/>
     <use xlink:href="#DejaVuSans-32" transform="translate(3037.113281 0)"/>
     <use xlink:href="#DejaVuSans-20" transform="translate(3100.736328 0)"/>
     <use xlink:href="#DejaVuSans-67" transform="translate(3132.523438 0)"/>
     <use xlink:href="#DejaVuSans-72" transform="translate(3196 0)"/>
     <use xlink:href="#DejaVuSans-6f" transform="translate(3234.863281 0)"/>
     <use xlink:href="#DejaVuSans-75" transform="translate(3296.044922 0)"/>
     <use xlink:href="#DejaVuSans-70" transform="translate(3359.423828 0)"/>
     <use xlink:href="#DejaVuSans-73" transform="translate(3422.900391 0)"/>
     <use xlink:href="#DejaVuSans-29" transform="translate(3475 0)"/>
    </g>
   </g>
   <g id="legend_1">
    <g id="patch_41">
     <path d="M 684.16088 88.496875 
L 772.144318 88.496875 
Q 773.944318 88.496875 773.944318 86.696875 
L 773.944318 32.82 
Q 773.944318 31.02 772.144318 31.02 
L 684.16088 31.02 
Q 682.36088 31.02 682.36088 32.82 
L 682.36088 86.696875 
Q 682.36088 88.496875 684.16088 88.496875 
z
" style="fill: #ffffff; opacity: 0.8; stroke: #cccccc; stroke-linejoin: miter"/>
    </g>
    <g id="text_24">
     <!-- Level 1 -->
     <g transform="translate(708.385255 42.978281) scale(0.11 -0.11)">
      <use xlink:href="#DejaVuSans-4c"/>
      <use xlink:href="#DejaVuSans-65" transform="translate(53.962891 0)"/>
      <use xlink:href="#DejaVuSans-76" transform="translate(115.486328 0)"/>
      <use xlink:href="#DejaVuSans-65" transform="translate(174.666016 0)"/>
      <use xlink:href="#DejaVuSans-6c" transform="translate(236.189453 0)"/>
      <use xlink:href="#DejaVuSans-20" transform="translate(263.972656 0)"/>
      <use xlink:href="#DejaVuSans-31" transform="translate(295.759766 0)"/>
     </g>
    </g>
    <g id="patch_42">
     <path d="M 685.96088 56.604531 
L 703.96088 56.604531 
L 703.96088 50.304531 
L 685.96088 50.304531 
z
" style="fill: #1f77b4"/>
    </g>
    <g id="text_25">
     <!-- metabolism -->
     <g transform="translate(711.16088 56.604531) scale(0.09 -0.09)">
      <use xlink:href="#DejaVuSans-6d"/>
      <use xlink:href="#DejaVuSans-65" transform="translate(97.412109 0)"/>
      <use xlink:href="#DejaVuSans-74" transform="translate(158.935547 0)"/>
      <use xlink:href="#DejaVuSans-61" transform="translate(198.144531 0)"/>
      <use xlink:href="#DejaVuSans-62" transform="translate(259.423828 0)"/>
      <use xlink:href="#DejaVuSans-6f" transform="translate(322.900391 0)"/>
      <use xlink:href="#DejaVuSans-6c" transform="translate(384.082031 0)"/>
      <use xlink:href="#DejaVuSans-69" transform="translate(411.865234 0)"/>
      <use xlink:href="#DejaVuSans-73" transform="translate(439.648438 0)"/>
      <use xlink:href="#DejaVuSans-6d" transform="translate(491.748047 0)"/>
     </g>
    </g>
    <g id="patch_43">
     <path d="M 685.96088 69.814844 
L 703.96088 69.814844 
L 703.96088 63.514844 
L 685.96088 63.514844 
z
" style="fill: #ff7f0e"/>
    </g>
    <g id="text_26">
     <!-- transport -->
     <g transform="translate(711.16088 69.814844) scale(0.09 -0.09)">
      <use xlink:href="#DejaVuSans-74"/>
      <use xlink:href="#DejaVuSans-72" transform="translate(39.208984 0)"/>
      <use xlink:href="#DejaVuSans-61" transform="translate(80.322266 0)"/>
      <use xlink:href="#DejaVuSans-6e" transform="translate(141.601562 0)"/>
      <use xlink:href="#DejaVuSans-73" transform="translate(204.980469 0)"/>
      <use xlink:href="#DejaVuSans-70" transform="translate(257.080078 0)"/>
      <use xlink:href="#DejaVuSans-6f" transform="translate(320.556641 0)"/>
      <use xlink:href="#DejaVuSans-72" transform="translate(381.738281 0)"/>
      <use xlink:href="#DejaVuSans-74" transform="translate(422.851562 0)"/>
     </g>
    </g>
    <g id="patch_44">
     <path d="M 685.96088 83.025156 
L 703.96088 83.025156 
L 703.96088 76.725156 
L 685.96088 76.725156 
z
" style="fill: #2ca02c"/>
    </g>
    <g id="text_27">
     <!-- cell structure -->
     <g transform="translate(711.16088 83.025156) scale(0.09 -0.09)">
      <use xlink:href="#DejaVuSans-63"/>
      <use xlink:href="#DejaVuSans-65" transform="translate(54.980469 0)"/>
      <use xlink:href="#DejaVuSans-6c" transform="translate(116.503906 0)"/>
      <use xlink:href="#DejaVuSans-6c" transform="translate(144.287109 0)"/>
      <use xlink:href="#DejaVuSans-20" transform="translate(172.070312 0)"/>
      <use xlink:href="#DejaVuSans-73" transform="translate(203.857422 0)"/>
      <use xlink:href="#DejaVuSans-74" transform="translate(255.957031 0)"/>
      <use xlink:href="#DejaVuSans-72" transform="translate(295.166016 0)"/>
      <use xlink:href="#DejaVuSans-75" transform="translate(336.279297 0)"/>
      <use xlink:href="#DejaVuSans-63" transform="translate(399.658203 0)"/>
      <use xlink:href="#DejaVuSans-74" transform="translate(454.638672 0)"/>
      <use xlink:href="#DejaVuSans-75" transform="translate(493.847656 0)"/>
      <use xlink:href="#DejaVuSans-72" transform="translate(557.226562 0)"/>
      <use xlink:href="#DejaVuSans-65" transform="translate(596.089844 0)"/>
     </g>
    </g>
   </g>
  </g>
 </g>
 <defs>
  <clipPath id="p4e2e1f1722">
   <rect x="355.7" y="26.52" width="315.844" height="361"/>
  </clipPath>
 </defs>
</svg>
